<?xml version="1.0" encoding="utf-8"?>
<COLLADA xmlns="http://www.collada.org/2005/11/COLLADASchema" version="1.4.1" xmlns:xsi="http://www.w3.org/2001/XMLSchema-instance">
  <asset>
    <contributor>
      <author>Blender User</author>
      <authoring_tool>Blender 2.83.5 commit date:2020-08-19, commit time:06:07, hash:c2b144df395f</authoring_tool>
    </contributor>
    <created>2020-09-29T14:41:26</created>
    <modified>2020-09-29T14:41:26</modified>
    <unit name="meter" meter="1"/>
    <up_axis>Z_UP</up_axis>
  </asset>
  <library_cameras>
    <camera id="Camera-camera" name="Camera">
      <optics>
        <technique_common>
          <perspective>
            <xfov sid="xfov">39.59775</xfov>
            <aspect_ratio>1.777778</aspect_ratio>
            <znear sid="znear">0.1</znear>
            <zfar sid="zfar">100</zfar>
          </perspective>
        </technique_common>
      </optics>
      <extra>
        <technique profile="blender">
          <shiftx sid="shiftx" type="float">0</shiftx>
          <shifty sid="shifty" type="float">0</shifty>
          <dof_distance sid="dof_distance" type="float">10</dof_distance>
        </technique>
      </extra>
    </camera>
  </library_cameras>
  <library_lights>
    <light id="Light-light" name="Light">
      <technique_common>
        <point>
          <color sid="color">1000 1000 1000</color>
          <constant_attenuation>1</constant_attenuation>
          <linear_attenuation>0</linear_attenuation>
          <quadratic_attenuation>0.00111109</quadratic_attenuation>
        </point>
      </technique_common>
      <extra>
        <technique profile="blender">
          <type sid="type" type="int">0</type>
          <flag sid="flag" type="int">0</flag>
          <mode sid="mode" type="int">1</mode>
          <gamma sid="blender_gamma" type="float">1</gamma>
          <red sid="red" type="float">1</red>
          <green sid="green" type="float">1</green>
          <blue sid="blue" type="float">1</blue>
          <shadow_r sid="blender_shadow_r" type="float">0</shadow_r>
          <shadow_g sid="blender_shadow_g" type="float">0</shadow_g>
          <shadow_b sid="blender_shadow_b" type="float">0</shadow_b>
          <energy sid="blender_energy" type="float">1000</energy>
          <dist sid="blender_dist" type="float">29.99998</dist>
          <spotsize sid="spotsize" type="float">75</spotsize>
          <spotblend sid="spotblend" type="float">0.15</spotblend>
          <att1 sid="att1" type="float">0</att1>
          <att2 sid="att2" type="float">1</att2>
          <falloff_type sid="falloff_type" type="int">2</falloff_type>
          <clipsta sid="clipsta" type="float">0.04999995</clipsta>
          <clipend sid="clipend" type="float">30.002</clipend>
          <bias sid="bias" type="float">1</bias>
          <soft sid="soft" type="float">3</soft>
          <bufsize sid="bufsize" type="int">2880</bufsize>
          <samp sid="samp" type="int">3</samp>
          <buffers sid="buffers" type="int">1</buffers>
          <area_shape sid="area_shape" type="int">1</area_shape>
          <area_size sid="area_size" type="float">0.1</area_size>
          <area_sizey sid="area_sizey" type="float">0.1</area_sizey>
          <area_sizez sid="area_sizez" type="float">1</area_sizez>
        </technique>
      </extra>
    </light>
  </library_lights>
  <library_effects>
    <effect id="Material_001-effect">
      <profile_COMMON>
        <newparam sid="ahsap_jpg_001_jpg-surface">
          <surface type="2D">
            <init_from>ahsap_jpg_001_jpg</init_from>
          </surface>
        </newparam>
        <newparam sid="ahsap_jpg_001_jpg-sampler">
          <sampler2D>
            <source>ahsap_jpg_001_jpg-surface</source>
          </sampler2D>
        </newparam>
        <technique sid="common">
          <lambert>
            <emission>
              <color sid="emission">0 0 0 1</color>
            </emission>
            <diffuse>
              <texture texture="ahsap_jpg_001_jpg-sampler" texcoord="UVMap"/>
            </diffuse>
            <index_of_refraction>
              <float sid="ior">1.45</float>
            </index_of_refraction>
          </lambert>
        </technique>
      </profile_COMMON>
    </effect>
  </library_effects>
  <library_images>
    <image id="ahsap_jpg_001_jpg" name="ahsap_jpg_001_jpg">
      <init_from>ahsap.jpg.001.jpg</init_from>
    </image>
  </library_images>
  <library_materials>
    <material id="Material_001-material" name="Material.001">
      <instance_effect url="#Material_001-effect"/>
    </material>
  </library_materials>
  <library_geometries>
    <geometry id="Kutu1-mesh" name="Kutu1">
      <mesh>
        <source id="Kutu1-mesh-positions">
          <float_array id="Kutu1-mesh-positions-array" count="96">-0.15 0.1499998 -0.09499996 -0.15 0.2499998 -0.09499996 -0.15 0.1499998 0.004999995 -0.15 0.2499998 0.004999995 0.1499996 0.2499998 -0.09499996 0.1499996 0.1499998 -0.09499996 0.1499996 0.2499998 0.004999995 0.1499996 0.1499998 0.004999995 0.3000002 0.1499998 -0.09499996 0.3000002 0.1499998 0.004999995 0.3000002 -0.15 -0.09499996 0.1499996 -0.15 -0.09499996 0.3000002 -0.15 0.004999995 0.1499996 -0.15 0.004999995 0.1499996 -0.2500001 -0.09499996 0.1499996 -0.2500001 0.004999995 -0.15 -0.2500001 -0.09499996 -0.15 -0.15 -0.09499996 -0.15 -0.2500001 0.004999995 -0.15 -0.15 0.004999995 -0.3000002 -0.15 -0.09499996 -0.3000002 -0.15 0.004999995 -0.3000002 0.1499998 -0.09499996 -0.3000002 0.1499998 0.004999995 0.3000002 -0.2500001 -0.115 0.3000002 0.2499998 -0.115 0.3000002 0.2499998 0.385 0.3000002 -0.2500001 0.385 -0.3000002 -0.2500001 -0.115 -0.3000002 -0.2500001 0.385 -0.3000002 0.2499998 -0.115 -0.3000002 0.2499998 0.385</float_array>
          <technique_common>
            <accessor source="#Kutu1-mesh-positions-array" count="32" stride="3">
              <param name="X" type="float"/>
              <param name="Y" type="float"/>
              <param name="Z" type="float"/>
            </accessor>
          </technique_common>
        </source>
        <source id="Kutu1-mesh-normals">
          <float_array id="Kutu1-mesh-normals-array" count="36">1 0 0 -1 0 0 0 -1 0 0 1 0 0 0 -1 0 0 1 1 -2.79397e-7 0 0 -1 -1.24176e-6 0 -1 1.30712e-7 -1 2.79397e-7 0 0 1 1.24176e-6 0 1 -1.30712e-7</float_array>
          <technique_common>
            <accessor source="#Kutu1-mesh-normals-array" count="12" stride="3">
              <param name="X" type="float"/>
              <param name="Y" type="float"/>
              <param name="Z" type="float"/>
            </accessor>
          </technique_common>
        </source>
        <source id="Kutu1-mesh-map">
          <float_array id="Kutu1-mesh-map-array" count="432">0 0 1 0 1 1 0 0 1 0 1 1 0 0 1 0 1 1 0 0 1 0 1 1 0 0 1 0 1 1 0 0 1 0 1 1 0 0 1 0 1 1 0 0 1 0 1 1 0 0 1 0 1 1 0 0 1 0 1 1 0 0 1 0 1 1 0 0 1 0 1 1 0 0 1 0 1 1 0 0 1 0 1 1 0 0 1 0 1 1 0 0 1 0 1 1 0 0 1 0 1 1 0 0 1 0 1 1 0 0 1 0 1 1 0 0 1 0 1 1 0 0 1 0 1 1 0 0 1 0 1 1 0 0 1 0 1 1 0 0 1 0 1 1 0 0 1 0 1 1 0 0 1 0 1 1 0 0 1 0 1 1 0 0 1 0 1 1 0 0 1 0 1 1 0 0 1 0 1 1 0 0 1 0 1 1 0 0 1 0 1 1 0 0 1 0 1 1 0 0 1 0 1 1 0 0 1 0 1 1 0 0 1 0 1 1 0 0 1 0 1 1 0 0 1 0 1 1 0 0 1 0 1 1 0 0 1 0 1 1 0 0 1 0 1 1 0 0 1 0 1 1 0 0 1 0 1 1 0 0 1 0 1 1 0 0 1 0 1 1 0 0 1 0 1 1 0 0 1 0 1 1 0 0 1 0 1 1 0 0 1 0 1 1 0 0 1 0 1 1 0 0 1 0 1 1 0 0 1 0 1 1 0 0 1 0 1 1 0 0 1 0 1 1 0 0 1 0 1 1 0 0 1 0 1 1 0 0 1 0 1 1 0 0 1 0 1 1 0 0 1 0 1 1 0 0 1 0 1 1 0 0 1 0 1 1 0 0 1 0 1 1 0 0 1 0 1 1 0 0 1 0 1 1 0 0 1 0 1 1 0 0 1 0 1 1 0 0 1 0 1 1 0 0 1 0 1 1 0 0 1 0 1 1 0 0 1 0 1 1 0 0 1 0 1 1 0 0 1 0 1 1</float_array>
          <technique_common>
            <accessor source="#Kutu1-mesh-map-array" count="216" stride="2">
              <param name="S" type="float"/>
              <param name="T" type="float"/>
            </accessor>
          </technique_common>
        </source>
        <vertices id="Kutu1-mesh-vertices">
          <input semantic="POSITION" source="#Kutu1-mesh-positions"/>
        </vertices>
        <triangles material="Material_001-material" count="72">
          <input semantic="VERTEX" source="#Kutu1-mesh-vertices" offset="0"/>
          <input semantic="NORMAL" source="#Kutu1-mesh-normals" offset="1"/>
          <input semantic="TEXCOORD" source="#Kutu1-mesh-map" offset="2" set="0"/>
          <p>0 0 0 1 0 1 2 0 2 2 0 3 1 0 4 3 0 5 4 1 6 5 1 7 6 1 8 6 1 9 5 1 10 7 1 11 5 2 12 8 2 13 7 2 14 7 2 15 8 2 16 9 2 17 10 3 18 11 3 19 12 3 20 12 3 21 11 3 22 13 3 23 11 1 24 14 1 25 13 1 26 13 1 27 14 1 28 15 1 29 16 0 30 17 0 31 18 0 32 18 0 33 17 0 34 19 0 35 17 3 36 20 3 37 19 3 38 19 3 39 20 3 40 21 3 41 22 2 42 0 2 43 23 2 44 23 2 45 0 2 46 2 2 47 23 4 48 2 4 49 21 4 50 21 4 51 2 4 52 19 4 53 19 4 54 2 4 55 7 4 56 19 4 57 7 4 58 13 4 59 13 4 60 7 4 61 9 4 62 13 4 63 9 4 64 12 4 65 3 4 66 6 4 67 2 4 68 2 4 69 6 4 70 7 4 71 15 4 72 18 4 73 13 4 74 13 4 75 18 4 76 19 4 77 22 5 78 17 5 79 0 5 80 0 5 81 17 5 82 11 5 83 0 5 84 11 5 85 5 5 86 5 5 87 11 5 88 10 5 89 5 5 90 10 5 91 8 5 92 22 5 93 20 5 94 17 5 95 16 5 96 14 5 97 17 5 98 17 5 99 14 5 100 11 5 101 4 5 102 1 5 103 5 5 104 5 5 105 1 5 106 0 5 107 12 6 108 24 6 109 10 6 110 10 0 111 24 0 112 25 0 113 10 0 114 25 0 115 8 0 116 8 0 117 25 0 118 9 0 119 9 0 120 25 0 121 26 0 122 9 0 123 26 0 124 27 0 125 24 0 126 12 0 127 27 0 128 27 0 129 12 0 130 9 0 131 18 2 132 28 2 133 16 2 134 16 2 135 28 2 136 24 2 137 16 7 138 24 7 139 14 7 140 14 2 141 24 2 142 15 2 143 15 2 144 24 2 145 27 2 146 15 2 147 27 2 148 29 2 149 28 2 150 18 2 151 29 2 152 29 8 153 18 8 154 15 8 155 23 9 156 30 9 157 22 9 158 22 1 159 30 1 160 28 1 161 22 1 162 28 1 163 20 1 164 20 1 165 28 1 166 21 1 167 21 1 168 28 1 169 29 1 170 21 1 171 29 1 172 31 1 173 30 1 174 23 1 175 31 1 176 31 1 177 23 1 178 21 1 179 6 3 180 25 3 181 4 3 182 4 3 183 25 3 184 30 3 185 4 10 186 30 10 187 1 10 188 1 3 189 30 3 190 3 3 191 3 3 192 30 3 193 31 3 194 3 3 195 31 3 196 26 3 197 25 3 198 6 3 199 26 3 200 26 11 201 6 11 202 3 11 203 26 5 204 31 5 205 27 5 206 27 5 207 31 5 208 29 5 209 30 4 210 25 4 211 28 4 212 28 4 213 25 4 214 24 4 215</p>
        </triangles>
      </mesh>
    </geometry>
  </library_geometries>
  <library_visual_scenes>
    <visual_scene id="Scene" name="Scene">
      <node id="Kutu1" name="Kutu1" type="NODE">
        <matrix sid="transform">1 0 0 0 0 1 0 0 0 0 1 0 0 0 0 1</matrix>
        <instance_geometry url="#Kutu1-mesh" name="Kutu1">
          <bind_material>
            <technique_common>
              <instance_material symbol="Material_001-material" target="#Material_001-material">
                <bind_vertex_input semantic="UVMap" input_semantic="TEXCOORD" input_set="0"/>
              </instance_material>
            </technique_common>
          </bind_material>
        </instance_geometry>
      </node>
      <node id="Camera" name="Camera" type="NODE">
        <matrix sid="transform">0.6859207 -0.3240135 0.6515582 7.358891 0.7276763 0.3054208 -0.6141704 -6.925791 0 0.8953956 0.4452714 4.958309 0 0 0 1</matrix>
        <instance_camera url="#Camera-camera"/>
      </node>
      <node id="Light" name="Light" type="NODE">
        <matrix sid="transform">-0.2908646 -0.7711008 0.5663932 4.076245 0.9551712 -0.1998834 0.2183912 1.005454 -0.05518906 0.6045247 0.7946723 5.903862 0 0 0 1</matrix>
        <instance_light url="#Light-light"/>
      </node>
    </visual_scene>
  </library_visual_scenes>
  <scene>
    <instance_visual_scene url="#Scene"/>
  </scene>
</COLLADA>