<?xml version="1.0" encoding="utf-8"?>
<COLLADA xmlns="http://www.collada.org/2005/11/COLLADASchema" version="1.4.1" xmlns:xsi="http://www.w3.org/2001/XMLSchema-instance">
  <asset>
    <contributor>
      <author>Blender User</author>
      <authoring_tool>Blender 2.83.5 commit date:2020-08-19, commit time:06:07, hash:c2b144df395f</authoring_tool>
    </contributor>
    <created>2021-05-26T14:25:45</created>
    <modified>2021-05-26T14:25:45</modified>
    <unit name="meter" meter="1"/>
    <up_axis>Z_UP</up_axis>
  </asset>
  <library_cameras>
    <camera id="Camera-camera" name="Camera">
      <optics>
        <technique_common>
          <perspective>
            <xfov sid="xfov">39.59775</xfov>
            <aspect_ratio>1.777778</aspect_ratio>
            <znear sid="znear">0.1</znear>
            <zfar sid="zfar">100</zfar>
          </perspective>
        </technique_common>
      </optics>
      <extra>
        <technique profile="blender">
          <shiftx sid="shiftx" type="float">0</shiftx>
          <shifty sid="shifty" type="float">0</shifty>
          <dof_distance sid="dof_distance" type="float">10</dof_distance>
        </technique>
      </extra>
    </camera>
  </library_cameras>
  <library_lights>
    <light id="Light-light" name="Light">
      <technique_common>
        <point>
          <color sid="color">1000 1000 1000</color>
          <constant_attenuation>1</constant_attenuation>
          <linear_attenuation>0</linear_attenuation>
          <quadratic_attenuation>0.00111109</quadratic_attenuation>
        </point>
      </technique_common>
      <extra>
        <technique profile="blender">
          <type sid="type" type="int">0</type>
          <flag sid="flag" type="int">0</flag>
          <mode sid="mode" type="int">1</mode>
          <gamma sid="blender_gamma" type="float">1</gamma>
          <red sid="red" type="float">1</red>
          <green sid="green" type="float">1</green>
          <blue sid="blue" type="float">1</blue>
          <shadow_r sid="blender_shadow_r" type="float">0</shadow_r>
          <shadow_g sid="blender_shadow_g" type="float">0</shadow_g>
          <shadow_b sid="blender_shadow_b" type="float">0</shadow_b>
          <energy sid="blender_energy" type="float">1000</energy>
          <dist sid="blender_dist" type="float">29.99998</dist>
          <spotsize sid="spotsize" type="float">75</spotsize>
          <spotblend sid="spotblend" type="float">0.15</spotblend>
          <att1 sid="att1" type="float">0</att1>
          <att2 sid="att2" type="float">1</att2>
          <falloff_type sid="falloff_type" type="int">2</falloff_type>
          <clipsta sid="clipsta" type="float">0.04999995</clipsta>
          <clipend sid="clipend" type="float">30.002</clipend>
          <bias sid="bias" type="float">1</bias>
          <soft sid="soft" type="float">3</soft>
          <bufsize sid="bufsize" type="int">2880</bufsize>
          <samp sid="samp" type="int">3</samp>
          <buffers sid="buffers" type="int">1</buffers>
          <area_shape sid="area_shape" type="int">1</area_shape>
          <area_size sid="area_size" type="float">0.1</area_size>
          <area_sizey sid="area_sizey" type="float">0.1</area_sizey>
          <area_sizez sid="area_sizez" type="float">1</area_sizez>
        </technique>
      </extra>
    </light>
  </library_lights>
  <library_effects>
    <effect id="Paint_-_Enamel_Glossy__Red_-effect">
      <profile_COMMON>
        <technique sid="common">
          <lambert>
            <emission>
              <color sid="emission">0 0 0 1</color>
            </emission>
            <diffuse>
              <color sid="diffuse">0.8 0.8 0.8 1</color>
            </diffuse>
            <reflectivity>
              <float sid="specular">0.5</float>
            </reflectivity>
          </lambert>
        </technique>
      </profile_COMMON>
    </effect>
    <effect id="Paint_-_Enamel_Glossy__Blue_-effect">
      <profile_COMMON>
        <technique sid="common">
          <lambert>
            <emission>
              <color sid="emission">0 0 0 1</color>
            </emission>
            <diffuse>
              <color sid="diffuse">0.8 0.8 0.8 1</color>
            </diffuse>
            <index_of_refraction>
              <float sid="ior">1.45</float>
            </index_of_refraction>
          </lambert>
        </technique>
      </profile_COMMON>
    </effect>
    <effect id="Paint_-_Enamel_Glossy__Yellow_-effect">
      <profile_COMMON>
        <technique sid="common">
          <lambert>
            <emission>
              <color sid="emission">0 0 0 1</color>
            </emission>
            <diffuse>
              <color sid="diffuse">0.8 0.8 0.8 1</color>
            </diffuse>
            <index_of_refraction>
              <float sid="ior">1.45</float>
            </index_of_refraction>
          </lambert>
        </technique>
      </profile_COMMON>
    </effect>
    <effect id="Material-effect">
      <profile_COMMON>
        <technique sid="common">
          <lambert>
            <emission>
              <color sid="emission">0 0 0 1</color>
            </emission>
            <diffuse>
              <color sid="diffuse">0.8 0.8 0.8 1</color>
            </diffuse>
            <index_of_refraction>
              <float sid="ior">1.45</float>
            </index_of_refraction>
          </lambert>
        </technique>
      </profile_COMMON>
    </effect>
    <effect id="Paint_-_Enamel_Glossy__Green_-effect">
      <profile_COMMON>
        <technique sid="common">
          <lambert>
            <emission>
              <color sid="emission">0 0 0 1</color>
            </emission>
            <diffuse>
              <color sid="diffuse">0.8 0.8 0.8 1</color>
            </diffuse>
            <index_of_refraction>
              <float sid="ior">1.45</float>
            </index_of_refraction>
          </lambert>
        </technique>
      </profile_COMMON>
    </effect>
    <effect id="Material_001-effect">
      <profile_COMMON>
        <technique sid="common">
          <lambert>
            <emission>
              <color sid="emission">0 0 0 1</color>
            </emission>
            <diffuse>
              <color sid="diffuse">0.8000001 0.01719583 0.01267867 1</color>
            </diffuse>
            <index_of_refraction>
              <float sid="ior">1.45</float>
            </index_of_refraction>
          </lambert>
        </technique>
      </profile_COMMON>
    </effect>
  </library_effects>
  <library_images/>
  <library_materials>
    <material id="Paint_-_Enamel_Glossy__Red_-material" name="Paint_-_Enamel_Glossy_(Red)">
      <instance_effect url="#Paint_-_Enamel_Glossy__Red_-effect"/>
    </material>
    <material id="Paint_-_Enamel_Glossy__Blue_-material" name="Paint_-_Enamel_Glossy_(Blue)">
      <instance_effect url="#Paint_-_Enamel_Glossy__Blue_-effect"/>
    </material>
    <material id="Paint_-_Enamel_Glossy__Yellow_-material" name="Paint_-_Enamel_Glossy_(Yellow)">
      <instance_effect url="#Paint_-_Enamel_Glossy__Yellow_-effect"/>
    </material>
    <material id="Material-material" name="Material">
      <instance_effect url="#Material-effect"/>
    </material>
    <material id="Paint_-_Enamel_Glossy__Green_-material" name="Paint_-_Enamel_Glossy_(Green)">
      <instance_effect url="#Paint_-_Enamel_Glossy__Green_-effect"/>
    </material>
    <material id="Material_001-material" name="Material.001">
      <instance_effect url="#Material_001-effect"/>
    </material>
  </library_materials>
  <library_geometries>
    <geometry id="factory-mesh" name="factory">
      <mesh>
        <source id="factory-mesh-positions">
          <float_array id="factory-mesh-positions-array" count="2034">6.7 7.2 -0.00999999 6.7 6.5 -0.00999999 6.7 7.2 0 6.7 6.5 0 5.3 7.2 -0.00999999 5.3 7.2 0 5.3 6.5 -0.00999999 5.3 6.5 0 5.15 7.35 -0.00999999 5.15 6.35 -0.00999999 5.15 7.35 0 5.15 6.35 0 6.85 7.35 -0.00999999 6.85 7.35 0 6.85 6.35 -0.00999999 6.85 6.35 0 5.3 7.2 -0.00999999 5.3 6.5 -0.00999999 5.3 7.2 0 5.3 6.5 0 6.7 7.2 -0.00999999 6.7 7.2 0 6.7 6.5 -0.00999999 6.7 6.5 0 6.85 6.75 -0.00999999 7.15 6.75 -0.00999999 6.85 6.75 0 7.15 6.75 0 6.85 6.95 -0.00999999 6.85 6.95 0 7.15 6.95 -0.00999999 7.15 6.95 0 7.15 7.05 -0.00999999 7.15 7.05 0 7.35 6.85 -0.00999999 7.35 6.85 0 7.15 6.65 -0.00999999 7.15 6.65 0 9.95 16.35 -0.00999999 10.65 16.35 -0.00999999 9.95 16.35 0 10.65 16.35 0 9.95 14.95 -0.00999999 9.95 14.95 0 10.65 14.95 -0.00999999 10.65 14.95 0 9.800001 14.8 -0.00999999 10.8 14.8 -0.00999999 9.800001 14.8 0 10.8 14.8 0 9.800001 16.5 -0.00999999 9.800001 16.5 0 10.8 16.5 -0.00999999 10.8 16.5 0 9.95 14.95 -0.00999999 10.65 14.95 -0.00999999 9.95 14.95 0 10.65 14.95 0 9.95 16.35 -0.00999999 9.95 16.35 0 10.65 16.35 -0.00999999 10.65 16.35 0 10.4 16.5 -0.00999999 10.4 16.8 -0.00999999 10.4 16.5 0 10.4 16.8 0 10.2 16.5 -0.00999999 10.2 16.5 0 10.2 16.8 -0.00999999 10.2 16.8 0 10.1 16.8 -0.00999999 10.1 16.8 0 10.3 17 -0.00999999 10.3 17 0 10.5 16.8 -0.00999999 10.5 16.8 0 6.6 11.9 -0.00999999 6.6 12.6 -0.00999999 6.6 11.9 0 6.6 12.6 0 8 11.9 -0.00999999 8 11.9 0 8 12.6 -0.00999999 8 12.6 0 8.15 11.75 -0.00999999 8.15 12.75 -0.00999999 8.15 11.75 0 8.15 12.75 0 6.45 11.75 -0.00999999 6.45 11.75 0 6.45 12.75 -0.00999999 6.45 12.75 0 8 11.9 -0.00999999 8 12.6 -0.00999999 8 11.9 0 8 12.6 0 6.6 11.9 -0.00999999 6.6 11.9 0 6.6 12.6 -0.00999999 6.6 12.6 0 6.45 12.35 -0.00999999 6.15 12.35 -0.00999999 6.45 12.35 0 6.15 12.35 0 6.45 12.15 -0.00999999 6.45 12.15 0 6.15 12.15 -0.00999999 6.15 12.15 0 6.15 12.05 -0.00999999 6.15 12.05 0 5.95 12.25 -0.00999999 5.95 12.25 0 6.15 12.45 -0.00999999 6.15 12.45 0 7.65 3.25 -0.00999999 8.350001 3.25 -0.00999999 7.65 3.25 0 8.350001 3.25 0 7.65 1.85 -0.00999999 7.65 1.85 0 8.350001 1.85 -0.00999999 8.350001 1.85 0 7.5 1.7 -0.00999999 8.5 1.7 -0.00999999 7.5 1.7 0 8.5 1.7 0 7.5 3.4 -0.00999999 7.5 3.4 0 8.5 3.4 -0.00999999 8.5 3.4 0 7.65 1.85 -0.00999999 8.350001 1.85 -0.00999999 7.65 1.85 0 8.350001 1.85 0 7.65 3.25 -0.00999999 7.65 3.25 0 8.350001 3.25 -0.00999999 8.350001 3.25 0 8.100001 3.4 -0.00999999 8.100001 3.7 -0.00999999 8.100001 3.4 0 8.100001 3.7 0 7.9 3.4 -0.00999999 7.9 3.4 0 7.9 3.7 -0.00999999 7.9 3.7 0 7.8 3.7 -0.00999999 7.8 3.7 0 8 3.9 -0.00999999 8 3.9 0 8.2 3.7 -0.00999999 8.2 3.7 0 0.625 -1.525 -0.00999999 1.053601 -1.525 -0.00999999 0.625 -1.525 0 1.053601 -1.525 0 0.8125 -0.925 -0.00999999 0.8125 -0.925 0 1.1875 -0.925 -0.00999999 1.1875 -0.925 0 1 -1.3 -0.00999999 1 -1.3 0 1.3 -1.3 -0.00999999 1.3 -1.3 0 0.925722 -2.235695 -0.00999999 0.925722 -2.235695 0 1.3 -1.3 -0.00999999 0.925722 -2.235695 -0.00999999 1.3 -1.3 0 0.925722 -2.235695 0 1 -1.3 -0.00999999 1 -1.3 0 1.1875 -0.925 -0.00999999 1.1875 -0.925 0 0.8125 -0.925 -0.00999999 0.8125 -0.925 0 0.625 -1.525 -0.00999999 0.625 -1.525 0 1.053601 -1.525 -0.00999999 1.053601 -1.525 0 1.4 -0.8 -0.00999999 0.6 -0.8 -0.00999999 1.4 -0.8 0 0.6 -0.8 0 1.4 -2.3 -0.00999999 1.4 -2.3 0 0.6 -2.3 -0.00999999 0.6 -2.3 0 1.4 -2.3 -0.00999999 0.6 -2.3 -0.00999999 1.4 -2.3 0 0.6 -2.3 0 1.4 -0.8 -0.00999999 1.4 -0.8 0 0.6 -0.8 -0.00999999 0.6 -0.8 0 1.5 -0.7 -0.00999999 0.5 -0.7 -0.00999999 1.5 -0.7 0 0.5 -0.7 0 1.5 -2.4 -0.00999999 1.5 -2.4 0 0.5 -2.4 -0.00999999 0.5 -2.4 0 2.6 11.9 -0.00999999 2.6 12.6 -0.00999999 2.6 11.9 0 2.6 12.6 0 4 11.9 -0.00999999 4 11.9 0 4 12.6 -0.00999999 4 12.6 0 4.15 11.75 -0.00999999 4.15 12.75 -0.00999999 4.15 11.75 0 4.15 12.75 0 2.45 11.75 -0.00999999 2.45 11.75 0 2.45 12.75 -0.00999999 2.45 12.75 0 4 11.9 -0.00999999 4 12.6 -0.00999999 4 11.9 0 4 12.6 0 2.6 11.9 -0.00999999 2.6 11.9 0 2.6 12.6 -0.00999999 2.6 12.6 0 2.45 12.35 -0.00999999 2.15 12.35 -0.00999999 2.45 12.35 0 2.15 12.35 0 2.45 12.15 -0.00999999 2.45 12.15 0 2.15 12.15 -0.00999999 2.15 12.15 0 2.15 12.05 -0.00999999 2.15 12.05 0 1.95 12.25 -0.00999999 1.95 12.25 0 2.15 12.45 -0.00999999 2.15 12.45 0 0.001673996 -12.5989 -0.100705 0.001673996 -0.09890395 -0.100705 12.50167 -12.5989 -0.100705 12.50167 -0.09890395 -0.100705 12.50167 -0.09890395 -7.05e-4 0.001673996 -0.09890395 -7.05e-4 0.001673996 -12.5989 -7.05e-4 12.50167 -12.5989 -7.05e-4 12.50167 -0.09890395 -0.100705 12.60167 -0.09890395 -0.100705 12.50167 -12.5989 -0.100705 12.60167 -12.6989 -0.100705 0.001673996 -12.5989 -0.100705 -0.09832596 -12.6989 -0.100705 -0.09832596 -0.09890395 -0.100705 0.001673996 -0.09890395 -0.100705 0.001673996 -0.09890395 1.499295 -0.09832596 -0.09890395 1.499295 -0.09832596 -12.6989 1.499295 12.60167 -12.6989 1.499295 12.60167 -0.09890395 1.499295 12.50167 -0.09890395 1.499295 0.001673996 -12.5989 1.499295 12.50167 -12.5989 1.499295 2.55 -9.95 -0.00999999 2.55 -10.65 -0.00999999 2.55 -9.95 0 2.55 -10.65 0 1.15 -9.95 -0.00999999 1.15 -9.95 0 1.15 -10.65 -0.00999999 1.15 -10.65 0 1 -9.800001 -0.00999999 1 -10.8 -0.00999999 1 -9.800001 0 1 -10.8 0 2.7 -9.800001 -0.00999999 2.7 -9.800001 0 2.7 -10.8 -0.00999999 2.7 -10.8 0 1.15 -9.95 -0.00999999 1.15 -10.65 -0.00999999 1.15 -9.95 0 1.15 -10.65 0 2.55 -9.95 -0.00999999 2.55 -9.95 0 2.55 -10.65 -0.00999999 2.55 -10.65 0 2.7 -10.4 -0.00999999 3 -10.4 -0.00999999 2.7 -10.4 0 3 -10.4 0 2.7 -10.2 -0.00999999 2.7 -10.2 0 3 -10.2 -0.00999999 3 -10.2 0 3 -10.1 -0.00999999 3 -10.1 0 3.2 -10.3 -0.00999999 3.2 -10.3 0 3 -10.5 -0.00999999 3 -10.5 0 10.31967 -9.062563 -0.00999999 10.81464 -9.557538 -0.00999999 10.31967 -9.062563 0 10.81464 -9.557538 0 9.32972 -10.05251 -0.00999999 9.32972 -10.05251 0 9.824695 -10.54749 -0.00999999 9.824695 -10.54749 0 9.117588 -10.05251 -0.00999999 9.824695 -10.75962 -0.00999999 9.117588 -10.05251 0 9.824695 -10.75962 0 10.31967 -8.850432 -0.00999999 10.31967 -8.850432 0 11.02678 -9.557538 -0.00999999 11.02678 -9.557538 0 9.32972 -10.05251 -0.00999999 9.824695 -10.54749 -0.00999999 9.32972 -10.05251 0 9.824695 -10.54749 0 10.31967 -9.062563 -0.00999999 10.31967 -9.062563 0 10.81464 -9.557538 -0.00999999 10.81464 -9.557538 0 10.74393 -9.274696 -0.00999999 10.95607 -9.062563 -0.00999999 10.74393 -9.274696 0 10.95607 -9.062563 0 10.60251 -9.133275 -0.00999999 10.60251 -9.133275 0 10.81464 -8.921142 -0.00999999 10.81464 -8.921142 0 10.74393 -8.850432 -0.00999999 10.74393 -8.850432 0 11.02678 -8.850432 -0.00999999 11.02678 -8.850432 0 11.02678 -9.133275 -0.00999999 11.02678 -9.133275 0 4.612132 -0.870711 -0.00999999 5.312132 -0.870711 -0.00999999 4.612132 -0.870711 0 5.312132 -0.870711 0 4.612132 -2.270711 -0.00999999 4.612132 -2.270711 0 5.312132 -2.270711 -0.00999999 5.312132 -2.270711 0 4.462132 -2.420711 -0.00999999 5.462132 -2.420711 -0.00999999 4.462132 -2.420711 0 5.462132 -2.420711 0 4.462132 -0.720711 -0.00999999 4.462132 -0.720711 0 5.462132 -0.720711 -0.00999999 5.462132 -0.720711 0 4.612132 -2.270711 -0.00999999 5.312132 -2.270711 -0.00999999 4.612132 -2.270711 0 5.312132 -2.270711 0 4.612132 -0.870711 -0.00999999 4.612132 -0.870711 0 5.312132 -0.870711 -0.00999999 5.312132 -0.870711 0 5.062132 -0.720711 -0.00999999 5.062132 -0.420711 -0.00999999 5.062132 -0.720711 0 5.062132 -0.420711 0 4.862132 -0.720711 -0.00999999 4.862132 -0.720711 0 4.862132 -0.420711 -0.00999999 4.862132 -0.420711 0 4.762132 -0.420711 -0.00999999 4.762132 -0.420711 0 4.962132 -0.2207109 -0.00999999 4.962132 -0.2207109 0 5.162132 -0.420711 -0.00999999 5.162132 -0.420711 0 6.740559 -0.870711 -0.00999999 7.440559 -0.870711 -0.00999999 6.740559 -0.870711 0 7.440559 -0.870711 0 6.740559 -2.270711 -0.00999999 6.740559 -2.270711 0 7.440559 -2.270711 -0.00999999 7.440559 -2.270711 0 6.590559 -2.420711 -0.00999999 7.590559 -2.420711 -0.00999999 6.590559 -2.420711 0 7.590559 -2.420711 0 6.590559 -0.720711 -0.00999999 6.590559 -0.720711 0 7.590559 -0.720711 -0.00999999 7.590559 -0.720711 0 6.740559 -2.270711 -0.00999999 7.440559 -2.270711 -0.00999999 6.740559 -2.270711 0 7.440559 -2.270711 0 6.740559 -0.870711 -0.00999999 6.740559 -0.870711 0 7.440559 -0.870711 -0.00999999 7.440559 -0.870711 0 7.190559 -0.720711 -0.00999999 7.190559 -0.420711 -0.00999999 7.190559 -0.720711 0 7.190559 -0.420711 0 6.990559 -0.720711 -0.00999999 6.990559 -0.720711 0 6.990559 -0.420711 -0.00999999 6.990559 -0.420711 0 6.890559 -0.420711 -0.00999999 6.890559 -0.420711 0 7.090559 -0.2207109 -0.00999999 7.090559 -0.2207109 0 7.290559 -0.420711 -0.00999999 7.290559 -0.420711 0 1.15 -8.15 -0.00999999 1.15 -7.45 -0.00999999 1.15 -8.15 0 1.15 -7.45 0 2.55 -8.15 -0.00999999 2.55 -8.15 0 2.55 -7.45 -0.00999999 2.55 -7.45 0 2.7 -8.300001 -0.00999999 2.7 -7.3 -0.00999999 2.7 -8.300001 0 2.7 -7.3 0 1 -8.300001 -0.00999999 1 -8.300001 0 1 -7.3 -0.00999999 1 -7.3 0 2.55 -8.15 -0.00999999 2.55 -7.45 -0.00999999 2.55 -8.15 0 2.55 -7.45 0 1.15 -8.15 -0.00999999 1.15 -8.15 0 1.15 -7.45 -0.00999999 1.15 -7.45 0 1 -7.7 -0.00999999 0.7 -7.7 -0.00999999 1 -7.7 0 0.7 -7.7 0 1 -7.9 -0.00999999 1 -7.9 0 0.7 -7.9 -0.00999999 0.7 -7.9 0 0.7 -8 -0.00999999 0.7 -8 0 0.5 -7.8 -0.00999999 0.5 -7.8 0 0.7 -7.6 -0.00999999 0.7 -7.6 0 5.15 -8.15 -0.00999999 5.15 -7.45 -0.00999999 5.15 -8.15 0 5.15 -7.45 0 6.55 -8.15 -0.00999999 6.55 -8.15 0 6.55 -7.45 -0.00999999 6.55 -7.45 0 6.7 -8.300001 -0.00999999 6.7 -7.3 -0.00999999 6.7 -8.300001 0 6.7 -7.3 0 5 -8.300001 -0.00999999 5 -8.300001 0 5 -7.3 -0.00999999 5 -7.3 0 6.55 -8.15 -0.00999999 6.55 -7.45 -0.00999999 6.55 -8.15 0 6.55 -7.45 0 5.15 -8.15 -0.00999999 5.15 -8.15 0 5.15 -7.45 -0.00999999 5.15 -7.45 0 5 -7.7 -0.00999999 4.7 -7.7 -0.00999999 5 -7.7 0 4.7 -7.7 0 5 -7.9 -0.00999999 5 -7.9 0 4.7 -7.9 -0.00999999 4.7 -7.9 0 4.7 -8 -0.00999999 4.7 -8 0 4.5 -7.8 -0.00999999 4.5 -7.8 0 4.7 -7.6 -0.00999999 4.7 -7.6 0 6.55 -9.95 -0.00999999 6.55 -10.65 -0.00999999 6.55 -9.95 0 6.55 -10.65 0 5.15 -9.95 -0.00999999 5.15 -9.95 0 5.15 -10.65 -0.00999999 5.15 -10.65 0 5 -9.800001 -0.00999999 5 -10.8 -0.00999999 5 -9.800001 0 5 -10.8 0 6.7 -9.800001 -0.00999999 6.7 -9.800001 0 6.7 -10.8 -0.00999999 6.7 -10.8 0 5.15 -9.95 -0.00999999 5.15 -10.65 -0.00999999 5.15 -9.95 0 5.15 -10.65 0 6.55 -9.95 -0.00999999 6.55 -9.95 0 6.55 -10.65 -0.00999999 6.55 -10.65 0 6.7 -10.4 -0.00999999 7 -10.4 -0.00999999 6.7 -10.4 0 7 -10.4 0 6.7 -10.2 -0.00999999 6.7 -10.2 0 7 -10.2 -0.00999999 7 -10.2 0 7 -10.1 -0.00999999 7 -10.1 0 7.2 -10.3 -0.00999999 7.2 -10.3 0 7 -10.5 -0.00999999 7 -10.5 0 2.512132 -0.870711 -0.00999999 3.212132 -0.870711 -0.00999999 2.512132 -0.870711 0 3.212132 -0.870711 0 2.512132 -2.270711 -0.00999999 2.512132 -2.270711 0 3.212132 -2.270711 -0.00999999 3.212132 -2.270711 0 2.362132 -2.420711 -0.00999999 3.362132 -2.420711 -0.00999999 2.362132 -2.420711 0 3.362132 -2.420711 0 2.362132 -0.720711 -0.00999999 2.362132 -0.720711 0 3.362132 -0.720711 -0.00999999 3.362132 -0.720711 0 2.512132 -2.270711 -0.00999999 3.212132 -2.270711 -0.00999999 2.512132 -2.270711 0 3.212132 -2.270711 0 2.512132 -0.870711 -0.00999999 2.512132 -0.870711 0 3.212132 -0.870711 -0.00999999 3.212132 -0.870711 0 2.962132 -0.720711 -0.00999999 2.962132 -0.420711 -0.00999999 2.962132 -0.720711 0 2.962132 -0.420711 0 2.762132 -0.720711 -0.00999999 2.762132 -0.720711 0 2.762132 -0.420711 -0.00999999 2.762132 -0.420711 0 2.662132 -0.420711 -0.00999999 2.662132 -0.420711 0 2.862132 -0.2207109 -0.00999999 2.862132 -0.2207109 0 3.062132 -0.420711 -0.00999999 3.062132 -0.420711 0 -0.1 17.1 -0.1 12.6 17.1 -0.1 -0.1 -0.1 -0.1 12.6 -0.1 -0.1 12.6 17.1 0 -0.1 17.1 0 -0.1 -0.1 0 12.6 -0.1 0 8.5 0 1.5 8.5 -0.1 1.5 8.5 0 0 8.5 -0.1 0 12.5 -0.1 0 12.6 -0.1 0 12.5 -0.1 1.5 12.6 -0.1 1.5 0 0 0 0 0 1.5 -0.1 -0.1 1.5 0 17 1.5 -0.1 17.1 1.5 12.5 17 1.5 12.6 17.1 1.5 12.5 17 0 0 17 0 12.6 17.1 0 -0.1 17.1 0 -0.1 -0.1 0 7.8 -5.773645 -7.05e-4 0.3 -5.773645 -7.05e-4 7.8 -5.773645 2.999295 0.3 -5.773645 2.999295 7.8 -6.973645 -7.05e-4 7.8 -6.973645 2.999295 0.3 -6.973645 -7.05e-4 0.3 -6.973645 2.999295 7.8 -11.3 -7.05e-4 0.3 -11.3 -7.05e-4 7.8 -11.3 2.999295 0.3 -11.3 2.999295 7.8 -12.5 -7.05e-4 7.8 -12.5 2.999295 0.3 -12.5 -7.05e-4 0.3 -12.5 2.999295 7.61688 12.95597 0 7.61688 15.5 0 7.61688 12.95597 1 7.61688 15.5 1 6.8 12.95597 0 6.8 12.95597 1 6.8 15.5 0 6.8 15.5 1 3.653669 15.5 0 3.653669 15.5 1 3.653669 12.95597 0 3.653669 12.95597 1 2.778287 12.95597 0 2.778287 12.95597 1 2.778287 15.5 0 2.778287 15.5 1 1.5 15.5 0 1.5 15.5 1 1.5 15.25708 0 1.5 15.25708 1 1.235989 15.25708 0 1.235989 15.25708 1 1.235989 3.26739 0 1.235989 3.26739 1 1.472403 3.26739 0 1.472403 3.26739 1 1.472403 2.992539 0 1.472403 2.992539 1 5.763963 2.992539 0 5.763963 2.992539 1 5.763963 5.827862 0 5.763963 5.827862 1 6.670608 5.827862 0 6.670608 5.827862 1 6.670608 2.992539 0 6.670608 2.992539 1 7.2 2.992539 0 7.2 2.992539 1 7.2 1.9 0 7.2 1.9 1 1.472403 1.9 0 1.472403 1.9 1 1.472403 0.02122294 0 1.472403 0.02122294 1 0.04266798 0.02122294 0 0.04266798 0.02122294 1 0.04266798 3.26739 0 0.04266798 3.26739 1 0.227849 3.26739 0 0.227849 3.26739 1 0.227849 16.1781 0 0.227849 16.1781 1 9.701269 16.1781 0 9.701269 16.1781 1 9.701269 15.5 0 9.701269 15.5 1 11.25 -9.75 -7.05e-4 9.75 -11.25 -7.05e-4 11.25 -9.75 0.999295 9.75 -11.25 0.999295 12 -10.5 -7.05e-4 12 -10.5 0.999295 10.5 -12 -7.05e-4 10.5 -12 0.999295</float_array>
          <technique_common>
            <accessor source="#factory-mesh-positions-array" count="678" stride="3">
              <param name="X" type="float"/>
              <param name="Y" type="float"/>
              <param name="Z" type="float"/>
            </accessor>
          </technique_common>
        </source>
        <source id="factory-mesh-normals">
          <float_array id="factory-mesh-normals-array" count="699">-1 0 0 0 -1 0 1 0 0 0 1 0 0 0 1 0 0 -1 0 0 -1 0 0 -1 0 0 -1 0 0 -1 0 0 -1 0 0 -1 0.7071066 0.707107 0 0.7071058 -0.7071079 0 0 0 -1 0 0 -1 0 0 -1 0 0 -1 0 0 -1 0 0 -1 -0.7071101 0.7071036 0 -0.7071074 0.7071062 0 0.7071074 0.7071062 0 0.7071101 0.7071036 0 0 0 -1 0 0 -1 0 0 -1 0 0 -1 0 0 -1 0 0 -1 0 0 -1 -0.7071058 -0.7071079 0 -0.707107 -0.7071066 0 -0.7071058 -0.7071078 0 -0.7071071 -0.7071066 0 -0.7071071 0.7071066 0 -0.7071058 0.7071078 0 -0.707107 0.7071066 0 -0.7071058 0.7071079 0 0 0 -1 0 0 -1 0 0 -1 -0.7071062 0.7071075 0 -0.7071087 0.7071049 0 -0.7071062 0.7071074 0 -0.7071088 0.7071049 0 0.7071088 0.7071049 0 0.7071062 0.7071074 0 0.7071087 0.7071049 0 0.7071062 0.7071075 0 -0.9544801 0.2982751 0 0.8944272 -0.4472137 0 0.8944272 -0.4472137 0 0.9284768 -0.3713906 0 0.9284768 -0.3713908 0 0.9284768 -0.3713906 0 0.9284767 -0.3713908 0 -0.9841945 0.1770914 0 -0.9841945 0.1770911 0 -0.9841945 0.1770914 0 0 0 -1 0 0 -1 0 0 -1 0 0 -1 0 0 -1 0 0 -1 -0.9284767 0.3713908 0 -0.9284768 0.3713906 0 -0.9284768 0.3713908 0 -0.9284768 0.3713906 0 -0.8944272 0.4472137 0 -0.8944272 0.4472137 0 0.9544801 -0.2982751 0 0.9841945 -0.1770911 0 0.9841945 -0.1770914 0 0.9841945 -0.1770914 0 0 0 -1 0 0 -1 0 0 -1 0 0 -1 0 0 -1 0 0 -1 0 0 -1 0 0 -1 0 0 -1 0 0 -1 0 0 -1 0 0 -1 0 0 -1 0 0 -1 0 0 -1 0 0 -1 -0.7071064 -0.7071072 0 -0.7071064 -0.7071073 0 -0.7071064 0.7071072 0 -0.7071064 0.7071073 0 8.13243e-7 0 1 0 0 1 8.16014e-7 0 1 -1.50863e-6 0 1 -1.51377e-6 0 1 0 0 1 0 0 -1 0 0 -1 0 0 -1 0.7071051 0.7071085 0 0.7071071 0.7071066 0 0.7071052 0.7071084 0 0.7071071 -0.7071066 0 0.7071052 -0.7071084 0 0.7071051 -0.7071085 0 -0.7071059 -0.7071077 0 -0.707108 -0.7071056 0 -0.7071059 -0.7071077 0 0.7071064 -0.7071072 0 0.707107 -0.7071067 0 0.7071063 0.7071073 0 0.7071053 0.7071084 0 0.7071052 0.7071084 0 -0.7071066 0.707107 0 -0.7071065 -0.7071071 0 -0.707107 0.7071067 0 -0.7071065 0.7071071 0 -0.7071065 0.7071071 0 0.7071062 0.7071074 0 0.7071067 -0.7071069 0 0.7071058 -0.7071078 0 0 0 -1 0 0 -1 0 0 -1 0 0 -1 0 0 -1 0 0 -1 0 0 -1 -0.7071052 -0.7071084 0 -0.7071063 -0.7071073 0 -0.7071053 -0.7071084 0 -0.7071064 0.7071072 0 0.707108 0.7071056 0 0.7071059 0.7071077 0 0.7071059 0.7071077 0 0.7071066 -0.707107 0 0 0 -1 0 0 -1 0 0 -1 0.7071035 -0.7071101 0 0.7071084 -0.7071053 0 0.7071036 -0.7071101 0 0.7071085 -0.7071052 0 -0.7071077 -0.7071059 0 -0.7071113 -0.7071023 0 -0.7071078 -0.7071059 0 -0.7071114 -0.7071022 0 -0.7071085 0.7071052 0 -0.7070979 -0.7071157 0 -0.7071049 -0.7071087 0 -0.7070984 -0.7071152 0 -0.7071053 -0.7071083 0 -0.7071101 -0.7071036 0 -0.7071031 -0.7071105 0 -0.7071096 -0.707104 0 -0.7071026 -0.707111 0 0 0 -1 0 0 -1 0 0 -1 0 0 -1 0 0 -1 0 0 -1 -0.7071074 0.7071062 0 -0.7071074 0.7071062 0 0.7071061 0.7071075 0 0.7071074 0.7071063 0 0.7071074 0.7071062 0 -0.7071061 0.7071075 0 -0.7071087 0.7071049 0 -0.7071087 0.7071049 0 0.7071087 0.7071049 0 0.7071087 0.7071049 0 0 0 -1 0 0 -1 0 0 -1 0 0 -1 0 0 -1 -0.7071065 -0.7071071 0 -0.7071064 -0.7071073 0 -0.7071066 -0.7071071 0 -0.7071073 0.7071063 0 -0.7071073 0.7071063 0 0 0 -1 0 0 -1 0 0 -1 0 0 -1 0 0 -1 0 0 -1 0 0 -1 0 0 -1 0 0 -1 0 0 -1 -0.7071066 0.707107 0 -0.7071078 0.7071058 0 -0.7071067 0.707107 0 -0.7071079 0.7071057 0 0 0 -1 0 0 -1 0 0 -1 0 0 -1 0 0 -1 0 0 -1 0 0 -1 0.7071058 0.7071079 0 0.7071083 0.7071053 0 0.7071058 0.7071078 0 0.7071084 0.7071052 0 0.7071084 -0.7071052 0 0.7071058 -0.7071078 0 0.7071083 -0.7071053 0 0 0 -1 0 0 -1 0 0 -1 0 0 -1 -0.7071074 0.7071063 0 0.7071068 0.7071068 0 0.7071068 0.7071069 0 1.12197e-6 0 1 1.1095e-6 0 1 -5.50307e-7 0 1 -5.54459e-7 0 1 0 0 1 0 0 1 0 0 1 -0.7071068 0.7071068 0 0.7071068 -0.7071068 0 -0.7071068 -0.7071068 0</float_array>
          <technique_common>
            <accessor source="#factory-mesh-normals-array" count="233" stride="3">
              <param name="X" type="float"/>
              <param name="Y" type="float"/>
              <param name="Z" type="float"/>
            </accessor>
          </technique_common>
        </source>
        <source id="factory-mesh-map-0">
          <float_array id="factory-mesh-map-0-array" count="7296">0 0 70 0 0 1 0 1 70 0 70 1 0 0 140 0 0 1 0 1 140 0 140 1 0 0 70 0 0 1 0 1 70 0 70 1 0 0 140 0 0 1 0 1 140 0 140 1 0 0 100 0 0 1 0 1 100 0 100 1 0 0 170 0 0 1 0 1 170 0 170 1 0 0 100 0 0 1 0 1 100 0 100 1 0 0 170 0 0 1 0 1 170 0 170 1 -35 70 -50 -85 -35 -70 -35 -70 -50 -85 50 -85 -35 -70 50 -85 35 -70 35 -70 50 -85 35 70 35 70 50 -85 50 85 35 70 50 85 -50 85 -50 -85 -35 70 -50 85 -50 85 -35 70 35 70 35 -70 50 -85 35 70 35 70 50 -85 50 85 35 70 50 85 -50 85 35 -70 -35 -70 50 -85 50 -85 -35 -70 -50 -85 -50 -85 -35 -70 -35 70 -50 -85 -35 70 -50 85 -50 85 -35 70 35 70 0 0 70 0 0 1 0 1 70 0 70 1 0 0 140 0 0 1 0 1 140 0 140 1 0 0 70 0 0 1 0 1 70 0 70 1 0 0 140 0 0 1 0 1 140 0 140 1 -35 -70 35 -70 -35 70 -35 70 35 -70 35 70 35 70 -35 70 35 -70 35 -70 -35 70 -35 -70 0 0 30 0 0 1 0 1 30 0 30 1 0 0 20 0 0 1 0 1 20 0 20 1 0 0 30 0 0 1 0 1 30 0 30 1 0 0 10 0 0 1 0 1 10 0 10 1 0 0 28.28427 0 0 1 0 1 28.28427 0 28.28427 1 0 0 28.28427 0 0 1 0 1 28.28427 0 28.28427 1 0 0 10 0 0 1 0 1 10 0 10 1 -20 -5 0 -25 -10 -5 -10 -5 0 -25 10 -5 -10 -5 10 -5 -10 25 -10 25 10 -5 10 25 0 -25 20 -5 10 -5 20 -5 10 -5 0 -25 0 -25 10 -5 -10 -5 0 -25 -10 -5 -20 -5 10 25 -10 25 10 -5 10 -5 -10 25 -10 -5 0 0 70 0 0 1 0 1 70 0 70 1 0 0 140 0 0 1 0 1 140 0 140 1 0 0 70 0 0 1 0 1 70 0 70 1 0 0 140 0 0 1 0 1 140 0 140 1 0 0 100 0 0 1 0 1 100 0 100 1 0 0 170 0 0 1 0 1 170 0 170 1 0 0 100 0 0 1 0 1 100 0 100 1 0 0 170 0 0 1 0 1 170 0 170 1 -35 70 -50 -85 -35 -70 -35 -70 -50 -85 50 -85 -35 -70 50 -85 35 -70 35 -70 50 -85 35 70 35 70 50 -85 50 85 35 70 50 85 -50 85 -50 -85 -35 70 -50 85 -50 85 -35 70 35 70 35 -70 50 -85 35 70 35 70 50 -85 50 85 35 70 50 85 -50 85 35 -70 -35 -70 50 -85 50 -85 -35 -70 -50 -85 -50 -85 -35 -70 -35 70 -50 -85 -35 70 -50 85 -50 85 -35 70 35 70 0 0 70 0 0 1 0 1 70 0 70 1 0 0 140 0 0 1 0 1 140 0 140 1 0 0 70 0 0 1 0 1 70 0 70 1 0 0 140 0 0 1 0 1 140 0 140 1 -35 -70 35 -70 -35 70 -35 70 35 -70 35 70 35 70 -35 70 35 -70 35 -70 -35 70 -35 -70 0 0 30 0 0 1 0 1 30 0 30 1 0 0 20 0 0 1 0 1 20 0 20 1 0 0 30 0 0 1 0 1 30 0 30 1 0 0 10 0 0 1 0 1 10 0 10 1 0 0 28.28427 0 0 1 0 1 28.28427 0 28.28427 1 0 0 28.28427 0 0 1 0 1 28.28427 0 28.28427 1 0 0 10 0 0 1 0 1 10 0 10 1 -20 -5 0 -25 -10 -5 -10 -5 0 -25 10 -5 -10 -5 10 -5 -10 25 -10 25 10 -5 10 25 0 -25 20 -5 10 -5 20 -5 10 -5 0 -25 0 -25 10 -5 -10 -5 0 -25 -10 -5 -20 -5 10 25 -10 25 10 -5 10 -5 -10 25 -10 -5 0 0 70 0 0 1 0 1 70 0 70 1 0 0 140 0 0 1 0 1 140 0 140 1 0 0 70 0 0 1 0 1 70 0 70 1 0 0 140 0 0 1 0 1 140 0 140 1 0 0 100 0 0 1 0 1 100 0 100 1 0 0 170 0 0 1 0 1 170 0 170 1 0 0 100 0 0 1 0 1 100 0 100 1 0 0 170 0 0 1 0 1 170 0 170 1 -35 70 -50 -85 -35 -70 -35 -70 -50 -85 50 -85 -35 -70 50 -85 35 -70 35 -70 50 -85 35 70 35 70 50 -85 50 85 35 70 50 85 -50 85 -50 -85 -35 70 -50 85 -50 85 -35 70 35 70 35 -70 50 -85 35 70 35 70 50 -85 50 85 35 70 50 85 -50 85 35 -70 -35 -70 50 -85 50 -85 -35 -70 -50 -85 -50 -85 -35 -70 -35 70 -50 -85 -35 70 -50 85 -50 85 -35 70 35 70 0 0 70 0 0 1 0 1 70 0 70 1 0 0 140 0 0 1 0 1 140 0 140 1 0 0 70 0 0 1 0 1 70 0 70 1 0 0 140 0 0 1 0 1 140 0 140 1 -35 -70 35 -70 -35 70 -35 70 35 -70 35 70 35 70 -35 70 35 -70 35 -70 -35 70 -35 -70 0 0 30 0 0 1 0 1 30 0 30 1 0 0 20 0 0 1 0 1 20 0 20 1 0 0 30 0 0 1 0 1 30 0 30 1 0 0 10 0 0 1 0 1 10 0 10 1 0 0 28.28427 0 0 1 0 1 28.28427 0 28.28427 1 0 0 28.28427 0 0 1 0 1 28.28427 0 28.28427 1 0 0 10 0 0 1 0 1 10 0 10 1 -20 -5 0 -25 -10 -5 -10 -5 0 -25 10 -5 -10 -5 10 -5 -10 25 -10 25 10 -5 10 25 0 -25 20 -5 10 -5 20 -5 10 -5 0 -25 0 -25 10 -5 -10 -5 0 -25 -10 -5 -20 -5 10 25 -10 25 10 -5 10 -5 -10 25 -10 -5 0 0 70 0 0 1 0 1 70 0 70 1 0 0 140 0 0 1 0 1 140 0 140 1 0 0 70 0 0 1 0 1 70 0 70 1 0 0 140 0 0 1 0 1 140 0 140 1 0 0 100 0 0 1 0 1 100 0 100 1 0 0 170 0 0 1 0 1 170 0 170 1 0 0 100 0 0 1 0 1 100 0 100 1 0 0 170 0 0 1 0 1 170 0 170 1 -35 70 -50 -85 -35 -70 -35 -70 -50 -85 50 -85 -35 -70 50 -85 35 -70 35 -70 50 -85 35 70 35 70 50 -85 50 85 35 70 50 85 -50 85 -50 -85 -35 70 -50 85 -50 85 -35 70 35 70 35 -70 50 -85 35 70 35 70 50 -85 50 85 35 70 50 85 -50 85 35 -70 -35 -70 50 -85 50 -85 -35 -70 -50 -85 -50 -85 -35 -70 -35 70 -50 -85 -35 70 -50 85 -50 85 -35 70 35 70 0 0 70 0 0 1 0 1 70 0 70 1 0 0 140 0 0 1 0 1 140 0 140 1 0 0 70 0 0 1 0 1 70 0 70 1 0 0 140 0 0 1 0 1 140 0 140 1 -35 -70 35 -70 -35 70 -35 70 35 -70 35 70 35 70 -35 70 35 -70 35 -70 -35 70 -35 -70 0 0 30 0 0 1 0 1 30 0 30 1 0 0 20 0 0 1 0 1 20 0 20 1 0 0 30 0 0 1 0 1 30 0 30 1 0 0 10 0 0 1 0 1 10 0 10 1 0 0 28.28427 0 0 1 0 1 28.28427 0 28.28427 1 0 0 28.28427 0 0 1 0 1 28.28427 0 28.28427 1 0 0 10 0 0 1 0 1 10 0 10 1 -20 -5 0 -25 -10 -5 -10 -5 0 -25 10 -5 -10 -5 10 -5 -10 25 -10 25 10 -5 10 25 0 -25 20 -5 10 -5 20 -5 10 -5 0 -25 0 -25 10 -5 -10 -5 0 -25 -10 -5 -20 -5 10 25 -10 25 10 -5 10 -5 -10 25 -10 -5 0 0 42.86006 0 0 1 0 1 42.86006 0 42.86006 1 0 0 62.86145 0 0 1 0 1 62.86145 0 62.86145 1 0 0 37.5 0 0 1 0 1 37.5 0 37.5 1 0 0 41.92627 0 0 1 0 1 41.92627 0 41.92627 1 0 0 30 0 0 1 0 1 30 0 30 1 0 0 100.7775 0 0 1 0 1 100.7775 0 100.7775 1 0 0 72.21086 0 0 1 0 1 72.21086 0 72.21086 1 -3.677814 -65.53477 33.75 28.03477 9.110061 5.534767 9.110061 5.534767 33.75 28.03477 3.75 28.03477 9.110061 5.534767 3.75 28.03477 -33.75 5.534767 -33.75 5.534767 3.75 28.03477 -15 65.53477 -15 65.53477 3.75 28.03477 22.5 65.53477 3.677814 -65.53477 -9.110061 5.534767 -33.75 28.03477 -33.75 28.03477 -9.110061 5.534767 -3.75 28.03477 -3.75 28.03477 -9.110061 5.534767 33.75 5.534767 -3.75 28.03477 33.75 5.534767 15 65.53477 15 65.53477 -22.5 65.53477 -3.75 28.03477 0 0 100.7775 0 0 1 0 1 100.7775 0 100.7775 1 0 0 30 0 0 1 0 1 30 0 30 1 0 0 41.92627 0 0 1 0 1 41.92627 0 41.92627 1 0 0 37.5 0 0 1 0 1 37.5 0 37.5 1 0 0 62.86145 0 0 1 0 1 62.86145 0 62.86145 1 0 0 42.86006 0 0 1 0 1 42.86006 0 42.86006 1 0 0 72.21086 0 0 1 0 1 72.21086 0 72.21086 1 0 0 80 0 0 1 0 1 80 0 80 1 0 0 150 0 0 1 0 1 150 0 150 1 0 0 80 0 0 1 0 1 80 0 80 1 0 0 150 0 0 1 0 1 150 0 150 1 5.360061 2.5 -37.5 2.5 -7.427814 -68.56954 -7.427814 -68.56954 -37.5 2.5 -40 -75 -7.427814 -68.56954 -40 -75 40 -75 -40 -75 -37.5 2.5 -40 75 -40 75 -37.5 2.5 -18.75 62.5 -40 75 -18.75 62.5 18.75 62.5 0 25 30 25 18.75 62.5 18.75 62.5 30 25 40 75 18.75 62.5 40 75 -40 75 40 75 30 25 40 -75 40 -75 30 25 -7.427814 -68.56954 -5.360061 2.5 7.427814 -68.56954 37.5 2.5 37.5 2.5 7.427814 -68.56954 40 -75 37.5 2.5 40 -75 40 75 40 -75 7.427814 -68.56954 -40 -75 -40 -75 7.427814 -68.56954 -30 25 -40 -75 -30 25 -40 75 -40 75 -30 25 -18.75 62.5 -40 75 -18.75 62.5 18.75 62.5 -30 25 0 25 -18.75 62.5 -40 75 18.75 62.5 40 75 40 75 18.75 62.5 37.5 2.5 0 0 80 0 0 1 0 1 80 0 80 1 0 0 150 0 0 1 0 1 150 0 150 1 0 0 80 0 0 1 0 1 80 0 80 1 0 0 150 0 0 1 0 1 150 0 150 1 0 0 100 0 0 1 0 1 100 0 100 1 0 0 170 0 0 1 0 1 170 0 170 1 0 0 100 0 0 1 0 1 100 0 100 1 0 0 170 0 0 1 0 1 170 0 170 1 -40 75 -50 -85 -40 -75 -40 -75 -50 -85 50 -85 -40 -75 50 -85 40 -75 40 -75 50 -85 40 75 40 75 50 -85 50 85 40 75 50 85 -50 85 -50 -85 -40 75 -50 85 -50 85 -40 75 40 75 40 -75 50 -85 40 75 40 75 50 -85 50 85 40 75 50 85 -50 85 40 -75 -40 -75 50 -85 50 -85 -40 -75 -50 -85 -50 -85 -40 -75 -40 75 -50 -85 -40 75 -50 85 -50 85 -40 75 40 75 0 0 70 0 0 1 0 1 70 0 70 1 0 0 140 0 0 1 0 1 140 0 140 1 0 0 70 0 0 1 0 1 70 0 70 1 0 0 140 0 0 1 0 1 140 0 140 1 0 0 100 0 0 1 0 1 100 0 100 1 0 0 170 0 0 1 0 1 170 0 170 1 0 0 100 0 0 1 0 1 100 0 100 1 0 0 170 0 0 1 0 1 170 0 170 1 -35 70 -50 -85 -35 -70 -35 -70 -50 -85 50 -85 -35 -70 50 -85 35 -70 35 -70 50 -85 35 70 35 70 50 -85 50 85 35 70 50 85 -50 85 -50 -85 -35 70 -50 85 -50 85 -35 70 35 70 35 -70 50 -85 35 70 35 70 50 -85 50 85 35 70 50 85 -50 85 35 -70 -35 -70 50 -85 50 -85 -35 -70 -50 -85 -50 -85 -35 -70 -35 70 -50 -85 -35 70 -50 85 -50 85 -35 70 35 70 0 0 70 0 0 1 0 1 70 0 70 1 0 0 140 0 0 1 0 1 140 0 140 1 0 0 70 0 0 1 0 1 70 0 70 1 0 0 140 0 0 1 0 1 140 0 140 1 -35 -70 35 -70 -35 70 -35 70 35 -70 35 70 35 70 -35 70 35 -70 35 -70 -35 70 -35 -70 0 0 30 0 0 1 0 1 30 0 30 1 0 0 20 0 0 1 0 1 20 0 20 1 0 0 30 0 0 1 0 1 30 0 30 1 0 0 10 0 0 1 0 1 10 0 10 1 0 0 28.28427 0 0 1 0 1 28.28427 0 28.28427 1 0 0 28.28427 0 0 1 0 1 28.28427 0 28.28427 1 0 0 10 0 0 1 0 1 10 0 10 1 -20 -5 0 -25 -10 -5 -10 -5 0 -25 10 -5 -10 -5 10 -5 -10 25 -10 25 10 -5 10 25 0 -25 20 -5 10 -5 20 -5 10 -5 0 -25 0 -25 10 -5 -10 -5 0 -25 -10 -5 -20 -5 10 25 -10 25 10 -5 10 -5 -10 25 -10 -5 625 625 -625 625 625 -625 625 -625 -625 625 -625 -625 1250 10 0 10 1250 0 1250 0 0 10 0 0 1250 10 0 10 1250 0 1250 0 0 10 0 0 1250 10 0 10 1250 0 1250 0 0 10 0 0 1250 10 0 10 1250 0 1250 0 0 10 0 0 625 625 -625 625 625 -625 625 -625 -625 625 -625 -625 -630 -625 -630 -635 620 -625 620 -625 -630 -635 630 -635 620 -625 630 -635 620 625 620 625 630 -635 630 635 620 625 630 635 -630 635 -630 635 -630 625 620 625 0 -10 10 -10 0 150 0 150 10 -10 10 150 0 -10 1260 -10 0 150 0 150 1260 -10 1260 150 0 -10 1270 -10 0 150 0 150 1270 -10 1270 150 0 -10 1260 -10 0 150 0 150 1260 -10 1260 150 0 -10 10 -10 0 150 0 150 10 -10 10 150 0 -10 1250 -10 0 150 0 150 1250 -10 1250 150 0 -10 1250 -10 0 150 0 150 1250 -10 1250 150 0 -10 1250 -10 0 150 0 150 1250 -10 1250 150 630 -625 -620 -625 630 -635 630 -635 -620 -625 -630 -635 -630 -635 -620 -625 -620 625 -630 -635 -620 625 -630 635 -630 635 -620 625 630 635 630 635 -620 625 630 625 0 0 70 0 0 1 0 1 70 0 70 1 0 0 140 0 0 1 0 1 140 0 140 1 0 0 70 0 0 1 0 1 70 0 70 1 0 0 140 0 0 1 0 1 140 0 140 1 0 0 100 0 0 1 0 1 100 0 100 1 0 0 170 0 0 1 0 1 170 0 170 1 0 0 100 0 0 1 0 1 100 0 100 1 0 0 170 0 0 1 0 1 170 0 170 1 -35 70 -50 -85 -35 -70 -35 -70 -50 -85 50 -85 -35 -70 50 -85 35 -70 35 -70 50 -85 35 70 35 70 50 -85 50 85 35 70 50 85 -50 85 -50 -85 -35 70 -50 85 -50 85 -35 70 35 70 35 -70 50 -85 35 70 35 70 50 -85 50 85 35 70 50 85 -50 85 35 -70 -35 -70 50 -85 50 -85 -35 -70 -50 -85 -50 -85 -35 -70 -35 70 -50 -85 -35 70 -50 85 -50 85 -35 70 35 70 0 0 70 0 0 1 0 1 70 0 70 1 0 0 140 0 0 1 0 1 140 0 140 1 0 0 70 0 0 1 0 1 70 0 70 1 0 0 140 0 0 1 0 1 140 0 140 1 -35 -70 35 -70 -35 70 -35 70 35 -70 35 70 35 70 -35 70 35 -70 35 -70 -35 70 -35 -70 0 0 30 0 0 1 0 1 30 0 30 1 0 0 20 0 0 1 0 1 20 0 20 1 0 0 30 0 0 1 0 1 30 0 30 1 0 0 10 0 0 1 0 1 10 0 10 1 0 0 28.28427 0 0 1 0 1 28.28427 0 28.28427 1 0 0 28.28427 0 0 1 0 1 28.28427 0 28.28427 1 0 0 10 0 0 1 0 1 10 0 10 1 -20 -5 0 -25 -10 -5 -10 -5 0 -25 10 -5 -10 -5 10 -5 -10 25 -10 25 10 -5 10 25 0 -25 20 -5 10 -5 20 -5 10 -5 0 -25 0 -25 10 -5 -10 -5 0 -25 -10 -5 -20 -5 10 25 -10 25 10 -5 10 -5 -10 25 -10 -5 0 0 70 0 0 1 0 1 70 0 70 1 0 0 140 0 0 1 0 1 140 0 140 1 0 0 70 0 0 1 0 1 70 0 70 1 0 0 140 0 0 1 0 1 140 0 140 1 0 0 100 0 0 1 0 1 100 0 100 1 0 0 170 0 0 1 0 1 170 0 170 1 0 0 100 0 0 1 0 1 100 0 100 1 0 0 170 0 0 1 0 1 170 0 170 1 -35 70 -50 -85 -35 -70 -35 -70 -50 -85 50 -85 -35 -70 50 -85 35 -70 35 -70 50 -85 35 70 35 70 50 -85 50 85 35 70 50 85 -50 85 -50 -85 -35 70 -50 85 -50 85 -35 70 35 70 35 -70 50 -85 35 70 35 70 50 -85 50 85 35 70 50 85 -50 85 35 -70 -35 -70 50 -85 50 -85 -35 -70 -50 -85 -50 -85 -35 -70 -35 70 -50 -85 -35 70 -50 85 -50 85 -35 70 35 70 0 0 70 0 0 1 0 1 70 0 70 1 0 0 140 0 0 1 0 1 140 0 140 1 0 0 70 0 0 1 0 1 70 0 70 1 0 0 140 0 0 1 0 1 140 0 140 1 -35 -70 35 -70 -35 70 -35 70 35 -70 35 70 35 70 -35 70 35 -70 35 -70 -35 70 -35 -70 0 0 30 0 0 1 0 1 30 0 30 1 0 0 20 0 0 1 0 1 20 0 20 1 0 0 30 0 0 1 0 1 30 0 30 1 0 0 10 0 0 1 0 1 10 0 10 1 0 0 28.28427 0 0 1 0 1 28.28427 0 28.28427 1 0 0 28.28427 0 0 1 0 1 28.28427 0 28.28427 1 0 0 10 0 0 1 0 1 10 0 10 1 -20 -5 0 -25 -10 -5 -10 -5 0 -25 10 -5 -10 -5 10 -5 -10 25 -10 25 10 -5 10 25 0 -25 20 -5 10 -5 20 -5 10 -5 0 -25 0 -25 10 -5 -10 -5 0 -25 -10 -5 -20 -5 10 25 -10 25 10 -5 10 -5 -10 25 -10 -5 0 0 70 0 0 1 0 1 70 0 70 1 0 0 140 0 0 1 0 1 140 0 140 1 0 0 70 0 0 1 0 1 70 0 70 1 0 0 140 0 0 1 0 1 140 0 140 1 0 0 100 0 0 1 0 1 100 0 100 1 0 0 170 0 0 1 0 1 170 0 170 1 0 0 100 0 0 1 0 1 100 0 100 1 0 0 170 0 0 1 0 1 170 0 170 1 -35 70 -50 -85 -35 -70 -35 -70 -50 -85 50 -85 -35 -70 50 -85 35 -70 35 -70 50 -85 35 70 35 70 50 -85 50 85 35 70 50 85 -50 85 -50 -85 -35 70 -50 85 -50 85 -35 70 35 70 35 -70 50 -85 35 70 35 70 50 -85 50 85 35 70 50 85 -50 85 35 -70 -35 -70 50 -85 50 -85 -35 -70 -50 -85 -50 -85 -35 -70 -35 70 -50 -85 -35 70 -50 85 -50 85 -35 70 35 70 0 0 70 0 0 1 0 1 70 0 70 1 0 0 140 0 0 1 0 1 140 0 140 1 0 0 70 0 0 1 0 1 70 0 70 1 0 0 140 0 0 1 0 1 140 0 140 1 -35 -70 35 -70 -35 70 -35 70 35 -70 35 70 35 70 -35 70 35 -70 35 -70 -35 70 -35 -70 0 0 30 0 0 1 0 1 30 0 30 1 0 0 20 0 0 1 0 1 20 0 20 1 0 0 30 0 0 1 0 1 30 0 30 1 0 0 10 0 0 1 0 1 10 0 10 1 0 0 28.28427 0 0 1 0 1 28.28427 0 28.28427 1 0 0 28.28427 0 0 1 0 1 28.28427 0 28.28427 1 0 0 10 0 0 1 0 1 10 0 10 1 -20 -5 0 -25 -10 -5 -10 -5 0 -25 10 -5 -10 -5 10 -5 -10 25 -10 25 10 -5 10 25 0 -25 20 -5 10 -5 20 -5 10 -5 0 -25 0 -25 10 -5 -10 -5 0 -25 -10 -5 -20 -5 10 25 -10 25 10 -5 10 -5 -10 25 -10 -5 0 0 70 0 0 1 0 1 70 0 70 1 0 0 140 0 0 1 0 1 140 0 140 1 0 0 70 0 0 1 0 1 70 0 70 1 0 0 140 0 0 1 0 1 140 0 140 1 0 0 100 0 0 1 0 1 100 0 100 1 0 0 170 0 0 1 0 1 170 0 170 1 0 0 100 0 0 1 0 1 100 0 100 1 0 0 170 0 0 1 0 1 170 0 170 1 -35 70 -50 -85 -35 -70 -35 -70 -50 -85 50 -85 -35 -70 50 -85 35 -70 35 -70 50 -85 35 70 35 70 50 -85 50 85 35 70 50 85 -50 85 -50 -85 -35 70 -50 85 -50 85 -35 70 35 70 35 -70 50 -85 35 70 35 70 50 -85 50 85 35 70 50 85 -50 85 35 -70 -35 -70 50 -85 50 -85 -35 -70 -50 -85 -50 -85 -35 -70 -35 70 -50 -85 -35 70 -50 85 -50 85 -35 70 35 70 0 0 70 0 0 1 0 1 70 0 70 1 0 0 140 0 0 1 0 1 140 0 140 1 0 0 70 0 0 1 0 1 70 0 70 1 0 0 140 0 0 1 0 1 140 0 140 1 -35 -70 35 -70 -35 70 -35 70 35 -70 35 70 35 70 -35 70 35 -70 35 -70 -35 70 -35 -70 0 0 30 0 0 1 0 1 30 0 30 1 0 0 20 0 0 1 0 1 20 0 20 1 0 0 30 0 0 1 0 1 30 0 30 1 0 0 10 0 0 1 0 1 10 0 10 1 0 0 28.28427 0 0 1 0 1 28.28427 0 28.28427 1 0 0 28.28427 0 0 1 0 1 28.28427 0 28.28427 1 0 0 10 0 0 1 0 1 10 0 10 1 -20 -5 0 -25 -10 -5 -10 -5 0 -25 10 -5 -10 -5 10 -5 -10 25 -10 25 10 -5 10 25 0 -25 20 -5 10 -5 20 -5 10 -5 0 -25 0 -25 10 -5 -10 -5 0 -25 -10 -5 -20 -5 10 25 -10 25 10 -5 10 -5 -10 25 -10 -5 0 0 70 0 0 1 0 1 70 0 70 1 0 0 140 0 0 1 0 1 140 0 140 1 0 0 70 0 0 1 0 1 70 0 70 1 0 0 140 0 0 1 0 1 140 0 140 1 0 0 100 0 0 1 0 1 100 0 100 1 0 0 170 0 0 1 0 1 170 0 170 1 0 0 100 0 0 1 0 1 100 0 100 1 0 0 170 0 0 1 0 1 170 0 170 1 -35 70 -50 -85 -35 -70 -35 -70 -50 -85 50 -85 -35 -70 50 -85 35 -70 35 -70 50 -85 35 70 35 70 50 -85 50 85 35 70 50 85 -50 85 -50 -85 -35 70 -50 85 -50 85 -35 70 35 70 35 -70 50 -85 35 70 35 70 50 -85 50 85 35 70 50 85 -50 85 35 -70 -35 -70 50 -85 50 -85 -35 -70 -50 -85 -50 -85 -35 -70 -35 70 -50 -85 -35 70 -50 85 -50 85 -35 70 35 70 0 0 70 0 0 1 0 1 70 0 70 1 0 0 140 0 0 1 0 1 140 0 140 1 0 0 70 0 0 1 0 1 70 0 70 1 0 0 140 0 0 1 0 1 140 0 140 1 -35 -70 35 -70 -35 70 -35 70 35 -70 35 70 35 70 -35 70 35 -70 35 -70 -35 70 -35 -70 0 0 30 0 0 1 0 1 30 0 30 1 0 0 20 0 0 1 0 1 20 0 20 1 0 0 30 0 0 1 0 1 30 0 30 1 0 0 10 0 0 1 0 1 10 0 10 1 0 0 28.28427 0 0 1 0 1 28.28427 0 28.28427 1 0 0 28.28427 0 0 1 0 1 28.28427 0 28.28427 1 0 0 10 0 0 1 0 1 10 0 10 1 -20 -5 0 -25 -10 -5 -10 -5 0 -25 10 -5 -10 -5 10 -5 -10 25 -10 25 10 -5 10 25 0 -25 20 -5 10 -5 20 -5 10 -5 0 -25 0 -25 10 -5 -10 -5 0 -25 -10 -5 -20 -5 10 25 -10 25 10 -5 10 -5 -10 25 -10 -5 0 0 70 0 0 1 0 1 70 0 70 1 0 0 140 0 0 1 0 1 140 0 140 1 0 0 70 0 0 1 0 1 70 0 70 1 0 0 140 0 0 1 0 1 140 0 140 1 0 0 100 0 0 1 0 1 100 0 100 1 0 0 170 0 0 1 0 1 170 0 170 1 0 0 100 0 0 1 0 1 100 0 100 1 0 0 170 0 0 1 0 1 170 0 170 1 -35 70 -50 -85 -35 -70 -35 -70 -50 -85 50 -85 -35 -70 50 -85 35 -70 35 -70 50 -85 35 70 35 70 50 -85 50 85 35 70 50 85 -50 85 -50 -85 -35 70 -50 85 -50 85 -35 70 35 70 35 -70 50 -85 35 70 35 70 50 -85 50 85 35 70 50 85 -50 85 35 -70 -35 -70 50 -85 50 -85 -35 -70 -50 -85 -50 -85 -35 -70 -35 70 -50 -85 -35 70 -50 85 -50 85 -35 70 35 70 0 0 70 0 0 1 0 1 70 0 70 1 0 0 140 0 0 1 0 1 140 0 140 1 0 0 70 0 0 1 0 1 70 0 70 1 0 0 140 0 0 1 0 1 140 0 140 1 -35 -70 35 -70 -35 70 -35 70 35 -70 35 70 35 70 -35 70 35 -70 35 -70 -35 70 -35 -70 0 0 30 0 0 1 0 1 30 0 30 1 0 0 20 0 0 1 0 1 20 0 20 1 0 0 30 0 0 1 0 1 30 0 30 1 0 0 10 0 0 1 0 1 10 0 10 1 0 0 28.28427 0 0 1 0 1 28.28427 0 28.28427 1 0 0 28.28427 0 0 1 0 1 28.28427 0 28.28427 1 0 0 10 0 0 1 0 1 10 0 10 1 -20 -5 0 -25 -10 -5 -10 -5 0 -25 10 -5 -10 -5 10 -5 -10 25 -10 25 10 -5 10 25 0 -25 20 -5 10 -5 20 -5 10 -5 0 -25 0 -25 10 -5 -10 -5 0 -25 -10 -5 -20 -5 10 25 -10 25 10 -5 10 -5 -10 25 -10 -5 0 0 70 0 0 1 0 1 70 0 70 1 0 0 140 0 0 1 0 1 140 0 140 1 0 0 70 0 0 1 0 1 70 0 70 1 0 0 140 0 0 1 0 1 140 0 140 1 0 0 100 0 0 1 0 1 100 0 100 1 0 0 170 0 0 1 0 1 170 0 170 1 0 0 100 0 0 1 0 1 100 0 100 1 0 0 170 0 0 1 0 1 170 0 170 1 -35 70 -50 -85 -35 -70 -35 -70 -50 -85 50 -85 -35 -70 50 -85 35 -70 35 -70 50 -85 35 70 35 70 50 -85 50 85 35 70 50 85 -50 85 -50 -85 -35 70 -50 85 -50 85 -35 70 35 70 35 -70 50 -85 35 70 35 70 50 -85 50 85 35 70 50 85 -50 85 35 -70 -35 -70 50 -85 50 -85 -35 -70 -50 -85 -50 -85 -35 -70 -35 70 -50 -85 -35 70 -50 85 -50 85 -35 70 35 70 0 0 70 0 0 1 0 1 70 0 70 1 0 0 140 0 0 1 0 1 140 0 140 1 0 0 70 0 0 1 0 1 70 0 70 1 0 0 140 0 0 1 0 1 140 0 140 1 -35 -70 35 -70 -35 70 -35 70 35 -70 35 70 35 70 -35 70 35 -70 35 -70 -35 70 -35 -70 0 0 30 0 0 1 0 1 30 0 30 1 0 0 20 0 0 1 0 1 20 0 20 1 0 0 30 0 0 1 0 1 30 0 30 1 0 0 10 0 0 1 0 1 10 0 10 1 0 0 28.28427 0 0 1 0 1 28.28427 0 28.28427 1 0 0 28.28427 0 0 1 0 1 28.28427 0 28.28427 1 0 0 10 0 0 1 0 1 10 0 10 1 -20 -5 0 -25 -10 -5 -10 -5 0 -25 10 -5 -10 -5 10 -5 -10 25 -10 25 10 -5 10 25 0 -25 20 -5 10 -5 20 -5 10 -5 0 -25 0 -25 10 -5 -10 -5 0 -25 -10 -5 -20 -5 10 25 -10 25 10 -5 10 -5 -10 25 -10 -5 0 0 70 0 0 1 0 1 70 0 70 1 0 0 140 0 0 1 0 1 140 0 140 1 0 0 70 0 0 1 0 1 70 0 70 1 0 0 140 0 0 1 0 1 140 0 140 1 0 0 100 0 0 1 0 1 100 0 100 1 0 0 170 0 0 1 0 1 170 0 170 1 0 0 100 0 0 1 0 1 100 0 100 1 0 0 170 0 0 1 0 1 170 0 170 1 -35 70 -50 -85 -35 -70 -35 -70 -50 -85 50 -85 -35 -70 50 -85 35 -70 35 -70 50 -85 35 70 35 70 50 -85 50 85 35 70 50 85 -50 85 -50 -85 -35 70 -50 85 -50 85 -35 70 35 70 35 -70 50 -85 35 70 35 70 50 -85 50 85 35 70 50 85 -50 85 35 -70 -35 -70 50 -85 50 -85 -35 -70 -50 -85 -50 -85 -35 -70 -35 70 -50 -85 -35 70 -50 85 -50 85 -35 70 35 70 0 0 70 0 0 1 0 1 70 0 70 1 0 0 140 0 0 1 0 1 140 0 140 1 0 0 70 0 0 1 0 1 70 0 70 1 0 0 140 0 0 1 0 1 140 0 140 1 -35 -70 35 -70 -35 70 -35 70 35 -70 35 70 35 70 -35 70 35 -70 35 -70 -35 70 -35 -70 0 0 30 0 0 1 0 1 30 0 30 1 0 0 20 0 0 1 0 1 20 0 20 1 0 0 30 0 0 1 0 1 30 0 30 1 0 0 10 0 0 1 0 1 10 0 10 1 0 0 28.28427 0 0 1 0 1 28.28427 0 28.28427 1 0 0 28.28427 0 0 1 0 1 28.28427 0 28.28427 1 0 0 10 0 0 1 0 1 10 0 10 1 -20 -5 0 -25 -10 -5 -10 -5 0 -25 10 -5 -10 -5 10 -5 -10 25 -10 25 10 -5 10 25 0 -25 20 -5 10 -5 20 -5 10 -5 0 -25 0 -25 10 -5 -10 -5 0 -25 -10 -5 -20 -5 10 25 -10 25 10 -5 10 -5 -10 25 -10 -5 635 860 -635 860 635 -860 635 -860 -635 860 -635 -860 1270 10 0 10 1270 0 1270 0 0 10 0 0 1720 10 0 10 1720 0 1720 0 0 10 0 0 1270 10 0 10 1270 0 1270 0 0 10 0 0 1720 10 0 10 1720 0 1720 0 0 10 0 0 -635 -860 635 -860 -635 860 -635 860 635 -860 635 860 0 150 -10 150 0 0 0 0 -10 150 -10 0 1260 0 1270 0 1260 150 1260 150 1270 0 1270 150 400 0 1250 0 400 150 400 150 1250 0 1250 150 225 -850 -625 -850 225 -860 225 -860 -625 -850 -635 -860 -635 -860 -625 -850 -625 850 -635 -860 -625 850 -635 860 -635 860 -625 850 625 850 -635 860 625 850 635 860 635 860 625 850 635 -860 635 -860 625 850 625 -860 0 0 1710 0 0 150 0 150 1710 0 1710 150 0 0 1250 0 0 150 0 150 1250 0 1250 150 0 0 1700 0 0 150 0 150 1700 0 1700 150 0 0 1270 0 0 150 0 150 1270 0 1270 150 0 0 1720 0 0 150 0 150 1720 0 1720 150 860 150 0 150 860 0 860 0 0 150 0 0 0 0 1720 0 0 150 0 150 1720 0 1720 150 -225 -850 -225 -860 625 -850 625 -850 -225 -860 635 -860 625 -850 635 -860 625 850 625 850 635 -860 635 860 625 850 635 860 -635 860 625 850 -635 860 -625 850 -625 850 -635 860 -635 -860 -625 850 -635 -860 -625 -860 0 0 750 0 0 300 0 300 750 0 750 300 0 0 120 0 0 300 0 300 120 0 120 300 0 0 750 0 0 300 0 300 750 0 750 300 0 0 120 0 0 300 0 300 120 0 120 300 -375 -60 375 -60 -375 60 -375 60 375 -60 375 60 -375 -60 375 -60 -375 60 -375 60 375 -60 375 60 0 0 750 0 0 300 0 300 750 0 750 300 0 0 120 0 0 300 0 300 120 0 120 300 0 0 750 0 0 300 0 300 750 0 750 300 0 0 120 0 0 300 0 300 120 0 120 300 -375 -60 375 -60 -375 60 -375 60 375 -60 375 60 -375 -60 375 -60 -375 60 -375 60 375 -60 375 60 0 0 254.4032 0 0 100 0 100 254.4032 0 254.4032 100 0 0 81.688 0 0 100 0 100 81.688 0 81.688 100 0 0 254.4032 0 0 100 0 100 254.4032 0 254.4032 100 0 0 314.6331 0 0 100 0 100 314.6331 0 314.6331 100 0 0 254.4032 0 0 100 0 100 254.4032 0 254.4032 100 0 0 87.53814 0 0 100 0 100 87.53814 0 87.53814 100 0 0 254.4032 0 0 100 0 100 254.4032 0 254.4032 100 0 0 127.8288 0 0 100 0 100 127.8288 0 127.8288 100 0 0 24.29253 0 0 100 0 100 24.29253 0 24.29253 100 0 0 26.40112 0 0 100 0 100 26.40112 0 26.40112 100 0 0 1198.968 0 0 100 0 100 1198.968 0 1198.968 100 0 0 23.64138 0 0 100 0 100 23.64138 0 23.64138 100 0 0 27.48509 0 0 100 0 100 27.48509 0 27.48509 100 0 0 429.1561 0 0 100 0 100 429.1561 0 429.1561 100 0 0 283.5324 0 0 100 0 100 283.5324 0 283.5324 100 0 0 90.6645 0 0 100 0 100 90.6645 0 90.6645 100 0 0 283.5324 0 0 100 0 100 283.5324 0 283.5324 100 0 0 52.93917 0 0 100 0 100 52.93917 0 52.93917 100 0 0 109.2539 0 0 100 0 100 109.2539 0 109.2539 100 0 0 572.7598 0 0 100 0 100 572.7598 0 572.7598 100 0 0 187.8777 0 0 100 0 100 187.8777 0 187.8777 100 0 0 142.9734 0 0 100 0 100 142.9734 0 142.9734 100 0 0 324.6166 0 0 100 0 100 324.6166 0 324.6166 100 0 0 18.5181 0 0 100 0 100 18.5181 0 18.5181 100 0 0 1291.071 0 0 100 0 100 1291.071 0 1291.071 100 0 0 947.3419 0 0 100 0 100 947.3419 0 947.3419 100 0 0 67.81016 0 0 100 0 100 67.81016 0 67.81016 100 0 0 208.4388 0 0 100 0 100 208.4388 0 208.4388 100 482.93 740.0338 482.93 807.8439 274.4912 740.0338 274.4912 740.0338 482.93 807.8439 192.8032 740.0338 274.4912 740.0338 192.8032 740.0338 274.4912 485.6306 274.4912 485.6306 192.8032 740.0338 192.8032 485.6306 192.8032 740.0338 482.93 807.8439 -121.83 740.0338 -121.83 740.0338 482.93 807.8439 -464.4119 807.8439 -121.83 740.0338 -464.4119 807.8439 -209.3681 740.0338 -209.3681 740.0338 -464.4119 807.8439 -337.1968 740.0338 -337.1968 740.0338 -464.4119 807.8439 -363.598 715.7413 -337.1968 740.0338 -363.598 715.7413 -337.1968 715.7413 -464.4119 807.8439 -464.4119 -483.2273 -363.598 715.7413 -363.598 715.7413 -464.4119 -483.2273 -363.598 -483.2273 -363.598 -483.2273 -464.4119 -483.2273 -339.9566 -619.9663 -363.598 -483.2273 -339.9566 -619.9663 -339.9566 -510.7124 -339.9566 -510.7124 -339.9566 -619.9663 89.1995 -510.7124 89.1995 -510.7124 -339.9566 -619.9663 232.8032 -619.9663 89.1995 -510.7124 232.8032 -619.9663 179.864 -510.7124 179.864 -510.7124 232.8032 -619.9663 232.8032 -510.7124 -482.93 -483.2273 -482.93 -807.8439 -464.4119 -483.2273 -464.4119 -483.2273 -482.93 -807.8439 -339.9566 -619.9663 -482.93 -807.8439 -339.9566 -807.8439 -339.9566 -619.9663 179.864 -227.18 89.1995 -227.18 179.864 -510.7124 179.864 -510.7124 89.1995 -227.18 89.1995 -510.7124 -339.9566 -510.7124 -339.9566 -483.2273 -363.598 -483.2273 -209.3681 485.6306 -121.83 485.6306 -209.3681 740.0338 -209.3681 740.0338 -121.83 485.6306 -121.83 740.0338 482.93 -740.0338 274.4912 -740.0338 482.93 -807.8439 482.93 -807.8439 274.4912 -740.0338 192.8032 -740.0338 482.93 -807.8439 192.8032 -740.0338 -121.83 -740.0338 274.4912 -485.6306 192.8032 -485.6306 274.4912 -740.0338 274.4912 -740.0338 192.8032 -485.6306 192.8032 -740.0338 -121.83 -485.6306 -209.3681 -485.6306 -121.83 -740.0338 -121.83 -740.0338 -209.3681 -485.6306 -209.3681 -740.0338 -121.83 -740.0338 -209.3681 -740.0338 -464.4119 -807.8439 -464.4119 -807.8439 -209.3681 -740.0338 -337.1968 -740.0338 -464.4119 -807.8439 -337.1968 -740.0338 -363.598 -715.7413 -363.598 -715.7413 -337.1968 -740.0338 -337.1968 -715.7413 -464.4119 -807.8439 -363.598 -715.7413 -464.4119 483.2273 -464.4119 483.2273 -363.598 -715.7413 -363.598 483.2273 -464.4119 483.2273 -363.598 483.2273 -339.9566 619.9663 -339.9566 619.9663 -363.598 483.2273 -339.9566 510.7124 -339.9566 619.9663 -339.9566 510.7124 89.1995 510.7124 -363.598 483.2273 -339.9566 483.2273 -339.9566 510.7124 89.1995 227.18 179.864 227.18 89.1995 510.7124 89.1995 510.7124 179.864 227.18 179.864 510.7124 89.1995 510.7124 179.864 510.7124 232.8032 619.9663 232.8032 619.9663 179.864 510.7124 232.8032 510.7124 232.8032 619.9663 -339.9566 619.9663 89.1995 510.7124 -339.9566 807.8439 -482.93 807.8439 -339.9566 619.9663 -339.9566 619.9663 -482.93 807.8439 -464.4119 483.2273 -482.93 807.8439 -482.93 483.2273 -464.4119 483.2273 -464.4119 -807.8439 482.93 -807.8439 -121.83 -740.0338 0 0 212.132 0 0 100 0 100 212.132 0 212.132 100 0 0 106.066 0 0 100 0 100 106.066 0 106.066 100 0 0 212.132 0 0 100 0 100 212.132 0 212.132 100 0 0 106.066 0 0 100 0 100 106.066 0 106.066 100 -37.5 -112.5 112.5 37.5 -112.5 -37.5 -112.5 -37.5 112.5 37.5 37.5 112.5 -37.5 112.5 -112.5 37.5 112.5 -37.5 112.5 -37.5 -112.5 37.5 37.5 -112.5</float_array>
          <technique_common>
            <accessor source="#factory-mesh-map-0-array" count="3648" stride="2">
              <param name="S" type="float"/>
              <param name="T" type="float"/>
            </accessor>
          </technique_common>
        </source>
        <vertices id="factory-mesh-vertices">
          <input semantic="POSITION" source="#factory-mesh-positions"/>
        </vertices>
        <triangles material="Paint_-_Enamel_Glossy__Red_-material" count="432">
          <input semantic="VERTEX" source="#factory-mesh-vertices" offset="0"/>
          <input semantic="NORMAL" source="#factory-mesh-normals" offset="1"/>
          <input semantic="TEXCOORD" source="#factory-mesh-map-0" offset="2" set="0"/>
          <p>0 0 0 1 0 1 2 0 2 2 0 3 1 0 4 3 0 5 4 1 6 0 1 7 5 1 8 5 1 9 0 1 10 2 1 11 6 2 12 4 2 13 7 2 14 7 2 15 4 2 16 5 2 17 1 3 18 6 3 19 3 3 20 3 3 21 6 3 22 7 3 23 8 0 24 9 0 25 10 0 26 10 0 27 9 0 28 11 0 29 12 3 30 8 3 31 13 3 32 13 3 33 8 3 34 10 3 35 14 2 36 12 2 37 15 2 38 15 2 39 12 2 40 13 2 41 9 1 42 14 1 43 11 1 44 11 1 45 14 1 46 15 1 47 7 4 48 15 4 49 3 4 50 3 4 51 15 4 52 13 4 53 3 4 54 13 4 55 2 4 56 2 4 57 13 4 58 5 4 59 5 4 60 13 4 61 10 4 62 5 4 63 10 4 64 11 4 65 15 4 66 7 4 67 11 4 68 11 4 69 7 4 70 5 4 71 1 5 72 14 6 73 6 7 74 6 7 75 14 6 76 9 5 77 6 7 78 9 5 79 8 8 80 1 5 81 0 9 82 14 6 83 14 6 84 0 9 85 12 10 86 12 10 87 0 9 88 4 11 89 12 10 90 4 11 91 8 8 92 8 8 93 4 11 94 6 7 95 38 1 204 39 1 205 40 1 206 40 1 207 39 1 208 41 1 209 42 2 210 38 2 211 43 2 212 43 2 213 38 2 214 40 2 215 44 3 216 42 3 217 45 3 218 45 3 219 42 3 220 43 3 221 39 0 222 44 0 223 41 0 224 41 0 225 44 0 226 45 0 227 46 1 228 47 1 229 48 1 230 48 1 231 47 1 232 49 1 233 50 0 234 46 0 235 51 0 236 51 0 237 46 0 238 48 0 239 52 3 240 50 3 241 53 3 242 53 3 243 50 3 244 51 3 245 47 2 246 52 2 247 49 2 248 49 2 249 52 2 250 53 2 251 45 4 252 53 4 253 41 4 254 41 4 255 53 4 256 51 4 257 41 4 258 51 4 259 40 4 260 40 4 261 51 4 262 43 4 263 43 4 264 51 4 265 48 4 266 43 4 267 48 4 268 49 4 269 53 4 270 45 4 271 49 4 272 49 4 273 45 4 274 43 4 275 39 5 276 52 5 277 44 5 278 44 5 279 52 5 280 47 5 281 44 5 282 47 5 283 46 17 284 39 5 285 38 5 286 52 5 287 52 5 288 38 5 289 50 18 290 50 18 291 38 5 292 42 19 293 50 18 294 42 19 295 46 17 296 46 17 297 42 19 298 44 5 299 76 2 408 77 2 409 78 2 410 78 2 411 77 2 412 79 2 413 80 3 414 76 3 415 81 3 416 81 3 417 76 3 418 78 3 419 82 0 420 80 0 421 83 0 422 83 0 423 80 0 424 81 0 425 77 1 426 82 1 427 79 1 428 79 1 429 82 1 430 83 1 431 84 2 432 85 2 433 86 2 434 86 2 435 85 2 436 87 2 437 88 1 438 84 1 439 89 1 440 89 1 441 84 1 442 86 1 443 90 0 444 88 0 445 91 0 446 91 0 447 88 0 448 89 0 449 85 3 450 90 3 451 87 3 452 87 3 453 90 3 454 91 3 455 83 4 456 91 4 457 79 4 458 79 4 459 91 4 460 89 4 461 79 4 462 89 4 463 78 4 464 78 4 465 89 4 466 81 4 467 81 4 468 89 4 469 86 4 470 81 4 471 86 4 472 87 4 473 91 4 474 83 4 475 87 4 476 87 4 477 83 4 478 81 4 479 77 24 480 90 25 481 82 26 482 82 26 483 90 25 484 85 5 485 82 26 486 85 5 487 84 27 488 77 24 489 76 28 490 90 25 491 90 25 492 76 28 493 88 29 494 88 29 495 76 28 496 80 30 497 88 29 498 80 30 499 84 27 500 84 27 501 80 30 502 82 26 503 114 1 612 115 1 613 116 1 614 116 1 615 115 1 616 117 1 617 118 2 618 114 2 619 119 2 620 119 2 621 114 2 622 116 2 623 120 3 624 118 3 625 121 3 626 121 3 627 118 3 628 119 3 629 115 0 630 120 0 631 117 0 632 117 0 633 120 0 634 121 0 635 122 1 636 123 1 637 124 1 638 124 1 639 123 1 640 125 1 641 126 0 642 122 0 643 127 0 644 127 0 645 122 0 646 124 0 647 128 3 648 126 3 649 129 3 650 129 3 651 126 3 652 127 3 653 123 2 654 128 2 655 125 2 656 125 2 657 128 2 658 129 2 659 121 4 660 129 4 661 117 4 662 117 4 663 129 4 664 127 4 665 117 4 666 127 4 667 116 4 668 116 4 669 127 4 670 119 4 671 119 4 672 127 4 673 124 4 674 119 4 675 124 4 676 125 4 677 129 4 678 121 4 679 125 4 680 125 4 681 121 4 682 119 4 683 115 5 684 128 5 685 120 5 686 120 5 687 128 5 688 123 5 689 120 5 690 123 5 691 122 39 692 115 5 693 114 5 694 128 5 695 128 5 696 114 5 697 126 40 698 126 40 699 114 5 700 118 41 701 126 40 702 118 41 703 122 39 704 122 39 705 118 41 706 120 5 707 204 2 1116 205 2 1117 206 2 1118 206 2 1119 205 2 1120 207 2 1121 208 3 1122 204 3 1123 209 3 1124 209 3 1125 204 3 1126 206 3 1127 210 0 1128 208 0 1129 211 0 1130 211 0 1131 208 0 1132 209 0 1133 205 1 1134 210 1 1135 207 1 1136 207 1 1137 210 1 1138 211 1 1139 212 2 1140 213 2 1141 214 2 1142 214 2 1143 213 2 1144 215 2 1145 216 1 1146 212 1 1147 217 1 1148 217 1 1149 212 1 1150 214 1 1151 218 0 1152 216 0 1153 219 0 1154 219 0 1155 216 0 1156 217 0 1157 213 3 1158 218 3 1159 215 3 1160 215 3 1161 218 3 1162 219 3 1163 211 4 1164 219 4 1165 207 4 1166 207 4 1167 219 4 1168 217 4 1169 207 4 1170 217 4 1171 206 4 1172 206 4 1173 217 4 1174 209 4 1175 209 4 1176 217 4 1177 214 4 1178 209 4 1179 214 4 1180 215 4 1181 219 4 1182 211 4 1183 215 4 1184 215 4 1185 211 4 1186 209 4 1187 205 85 1188 218 86 1189 210 87 1190 210 87 1191 218 86 1192 213 5 1193 210 87 1194 213 5 1195 212 88 1196 205 85 1197 204 89 1198 218 86 1199 218 86 1200 204 89 1201 216 90 1202 216 90 1203 204 89 1204 208 91 1205 216 90 1206 208 91 1207 212 88 1208 212 88 1209 208 91 1210 210 87 1211 282 0 1536 283 0 1537 284 0 1538 284 0 1539 283 0 1540 285 0 1541 286 3 1542 282 3 1543 287 3 1544 287 3 1545 282 3 1546 284 3 1547 288 2 1548 286 2 1549 289 2 1550 289 2 1551 286 2 1552 287 2 1553 283 1 1554 288 1 1555 285 1 1556 285 1 1557 288 1 1558 289 1 1559 283 5 1566 282 5 1567 288 5 1568 288 5 1569 282 5 1570 286 5 1571 290 1 1572 291 1 1573 292 1 1574 292 1 1575 291 1 1576 293 1 1577 294 0 1578 290 0 1579 295 0 1580 295 0 1581 290 0 1582 292 0 1583 296 3 1584 294 3 1585 297 3 1586 297 3 1587 294 3 1588 295 3 1589 298 0 1590 296 0 1591 299 0 1592 299 0 1593 296 0 1594 297 0 1595 300 105 1596 298 106 1597 301 107 1598 301 107 1599 298 106 1600 299 106 1601 302 108 1602 300 109 1603 303 108 1604 303 108 1605 300 109 1606 301 110 1607 291 0 1608 302 0 1609 293 0 1610 293 0 1611 302 0 1612 303 0 1613 303 4 1614 301 4 1615 293 4 1616 293 4 1617 301 4 1618 297 4 1619 293 4 1620 297 4 1621 292 4 1622 292 4 1623 297 4 1624 295 4 1625 301 4 1626 299 4 1627 297 4 1628 302 5 1629 291 5 1630 300 5 1631 300 5 1632 291 5 1633 296 5 1634 300 5 1635 296 5 1636 298 5 1637 290 5 1638 294 5 1639 291 5 1640 291 5 1641 294 5 1642 296 5 1643 320 134 1740 321 135 1741 322 136 1742 322 136 1743 321 135 1744 323 135 1745 324 121 1746 320 137 1747 325 121 1748 325 121 1749 320 137 1750 322 137 1751 326 138 1752 324 139 1753 327 138 1754 327 138 1755 324 139 1756 325 140 1757 321 141 1758 326 141 1759 323 141 1760 323 141 1761 326 141 1762 327 141 1763 321 142 1770 320 143 1771 326 144 1772 326 144 1773 320 143 1774 324 5 1775 328 145 1776 329 146 1777 330 147 1778 330 147 1779 329 146 1780 331 148 1781 332 149 1782 328 150 1783 333 151 1784 333 151 1785 328 150 1786 330 152 1787 334 153 1788 332 153 1789 335 153 1790 335 153 1791 332 153 1792 333 153 1793 336 154 1794 334 155 1795 337 156 1796 337 156 1797 334 155 1798 335 157 1799 338 3 1800 336 3 1801 339 3 1802 339 3 1803 336 3 1804 337 3 1805 340 2 1806 338 2 1807 341 2 1808 341 2 1809 338 2 1810 339 2 1811 329 158 1812 340 159 1813 331 160 1814 331 160 1815 340 159 1816 341 161 1817 341 4 1818 339 4 1819 331 4 1820 331 4 1821 339 4 1822 335 4 1823 331 4 1824 335 4 1825 330 4 1826 330 4 1827 335 4 1828 333 4 1829 339 4 1830 337 4 1831 335 4 1832 340 5 1833 329 5 1834 338 5 1835 338 5 1836 329 5 1837 334 5 1838 338 5 1839 334 5 1840 336 5 1841 328 5 1842 332 5 1843 329 5 1844 329 5 1845 332 5 1846 334 5 1847 358 1 1944 359 1 1945 360 1 1946 360 1 1947 359 1 1948 361 1 1949 362 0 1950 358 0 1951 363 0 1952 363 0 1953 358 0 1954 360 0 1955 364 3 1956 362 3 1957 365 3 1958 365 3 1959 362 3 1960 363 3 1961 359 2 1962 364 2 1963 361 2 1964 361 2 1965 364 2 1966 365 2 1967 359 5 1974 358 5 1975 364 5 1976 364 5 1977 358 5 1978 362 5 1979 366 2 1980 367 2 1981 368 2 1982 368 2 1983 367 2 1984 369 2 1985 370 1 1986 366 1 1987 371 1 1988 371 1 1989 366 1 1990 368 1 1991 372 0 1992 370 0 1993 373 0 1994 373 0 1995 370 0 1996 371 0 1997 374 1 1998 372 1 1999 375 1 2000 375 1 2001 372 1 2002 373 1 2003 376 168 2004 374 169 2005 377 169 2006 377 169 2007 374 169 2008 375 168 2009 378 170 2010 376 171 2011 379 47 2012 379 47 2013 376 171 2014 377 172 2015 367 1 2016 378 1 2017 369 1 2018 369 1 2019 378 1 2020 379 1 2021 379 4 2022 377 4 2023 369 4 2024 369 4 2025 377 4 2026 373 4 2027 369 4 2028 373 4 2029 368 4 2030 368 4 2031 373 4 2032 371 4 2033 377 4 2034 375 4 2035 373 4 2036 378 5 2037 367 5 2038 376 5 2039 376 5 2040 367 5 2041 372 5 2042 376 5 2043 372 5 2044 374 5 2045 366 5 2046 370 5 2047 367 5 2048 367 5 2049 370 5 2050 372 5 2051 396 1 2148 397 1 2149 398 1 2150 398 1 2151 397 1 2152 399 1 2153 400 0 2154 396 0 2155 401 0 2156 401 0 2157 396 0 2158 398 0 2159 402 3 2160 400 3 2161 403 3 2162 403 3 2163 400 3 2164 401 3 2165 397 2 2166 402 2 2167 399 2 2168 399 2 2169 402 2 2170 403 2 2171 397 5 2178 396 5 2179 402 5 2180 402 5 2181 396 5 2182 400 5 2183 404 2 2184 405 2 2185 406 2 2186 406 2 2187 405 2 2188 407 2 2189 408 1 2190 404 1 2191 409 1 2192 409 1 2193 404 1 2194 406 1 2195 410 0 2196 408 0 2197 411 0 2198 411 0 2199 408 0 2200 409 0 2201 412 1 2202 410 1 2203 413 1 2204 413 1 2205 410 1 2206 411 1 2207 414 173 2208 412 174 2209 415 44 2210 415 44 2211 412 174 2212 413 175 2213 416 176 2214 414 47 2215 417 177 2216 417 177 2217 414 47 2218 415 170 2219 405 1 2220 416 1 2221 407 1 2222 407 1 2223 416 1 2224 417 1 2225 417 4 2226 415 4 2227 407 4 2228 407 4 2229 415 4 2230 411 4 2231 407 4 2232 411 4 2233 406 4 2234 406 4 2235 411 4 2236 409 4 2237 415 4 2238 413 4 2239 411 4 2240 416 5 2241 405 5 2242 414 5 2243 414 5 2244 405 5 2245 410 5 2246 414 5 2247 410 5 2248 412 5 2249 404 5 2250 408 5 2251 405 5 2252 405 5 2253 408 5 2254 410 5 2255 434 2 2352 435 2 2353 436 2 2354 436 2 2355 435 2 2356 437 2 2357 438 1 2358 434 1 2359 439 1 2360 439 1 2361 434 1 2362 436 1 2363 440 0 2364 438 0 2365 441 0 2366 441 0 2367 438 0 2368 439 0 2369 435 3 2370 440 3 2371 437 3 2372 437 3 2373 440 3 2374 441 3 2375 435 5 2382 434 5 2383 440 5 2384 440 5 2385 434 5 2386 438 5 2387 442 3 2388 443 3 2389 444 3 2390 444 3 2391 443 3 2392 445 3 2393 446 2 2394 442 2 2395 447 2 2396 447 2 2397 442 2 2398 444 2 2399 448 1 2400 446 1 2401 449 1 2402 449 1 2403 446 1 2404 447 1 2405 450 2 2406 448 2 2407 451 2 2408 451 2 2409 448 2 2410 449 2 2411 452 92 2412 450 183 2413 453 184 2414 453 184 2415 450 183 2416 451 185 2417 454 21 2418 452 186 2419 455 21 2420 455 21 2421 452 186 2422 453 187 2423 443 2 2424 454 2 2425 445 2 2426 445 2 2427 454 2 2428 455 2 2429 455 4 2430 453 4 2431 445 4 2432 445 4 2433 453 4 2434 449 4 2435 445 4 2436 449 4 2437 444 4 2438 444 4 2439 449 4 2440 447 4 2441 453 4 2442 451 4 2443 449 4 2444 454 188 2445 443 189 2446 452 190 2447 452 190 2448 443 189 2449 448 191 2450 452 190 2451 448 191 2452 450 5 2453 442 5 2454 446 5 2455 443 189 2456 443 189 2457 446 5 2458 448 191 2459 472 2 2556 473 2 2557 474 2 2558 474 2 2559 473 2 2560 475 2 2561 476 1 2562 472 1 2563 477 1 2564 477 1 2565 472 1 2566 474 1 2567 478 0 2568 476 0 2569 479 0 2570 479 0 2571 476 0 2572 477 0 2573 473 3 2574 478 3 2575 475 3 2576 475 3 2577 478 3 2578 479 3 2579 473 5 2586 472 5 2587 478 5 2588 478 5 2589 472 5 2590 476 5 2591 480 3 2592 481 3 2593 482 3 2594 482 3 2595 481 3 2596 483 3 2597 484 2 2598 480 2 2599 485 2 2600 485 2 2601 480 2 2602 482 2 2603 486 1 2604 484 1 2605 487 1 2606 487 1 2607 484 1 2608 485 1 2609 488 2 2610 486 2 2611 489 2 2612 489 2 2613 486 2 2614 487 2 2615 490 34 2616 488 33 2617 491 34 2618 491 34 2619 488 33 2620 489 31 2621 492 198 2622 490 199 2623 493 200 2624 493 200 2625 490 199 2626 491 201 2627 481 2 2628 492 2 2629 483 2 2630 483 2 2631 492 2 2632 493 2 2633 493 4 2634 491 4 2635 483 4 2636 483 4 2637 491 4 2638 487 4 2639 483 4 2640 487 4 2641 482 4 2642 482 4 2643 487 4 2644 485 4 2645 491 4 2646 489 4 2647 487 4 2648 492 202 2649 481 203 2650 490 204 2651 490 204 2652 481 203 2653 486 205 2654 490 204 2655 486 205 2656 488 5 2657 480 5 2658 484 5 2659 481 203 2660 481 203 2661 484 5 2662 486 205 2663 510 0 2760 511 0 2761 512 0 2762 512 0 2763 511 0 2764 513 0 2765 514 3 2766 510 3 2767 515 3 2768 515 3 2769 510 3 2770 512 3 2771 516 2 2772 514 2 2773 517 2 2774 517 2 2775 514 2 2776 515 2 2777 511 1 2778 516 1 2779 513 1 2780 513 1 2781 516 1 2782 517 1 2783 511 5 2790 510 5 2791 516 5 2792 516 5 2793 510 5 2794 514 5 2795 518 1 2796 519 1 2797 520 1 2798 520 1 2799 519 1 2800 521 1 2801 522 0 2802 518 0 2803 523 0 2804 523 0 2805 518 0 2806 520 0 2807 524 3 2808 522 3 2809 525 3 2810 525 3 2811 522 3 2812 523 3 2813 526 0 2814 524 0 2815 527 0 2816 527 0 2817 524 0 2818 525 0 2819 528 209 2820 526 210 2821 529 211 2822 529 211 2823 526 210 2824 527 212 2825 530 213 2826 528 214 2827 531 215 2828 531 215 2829 528 214 2830 529 13 2831 519 0 2832 530 0 2833 521 0 2834 521 0 2835 530 0 2836 531 0 2837 531 4 2838 529 4 2839 521 4 2840 521 4 2841 529 4 2842 525 4 2843 521 4 2844 525 4 2845 520 4 2846 520 4 2847 525 4 2848 523 4 2849 529 4 2850 527 4 2851 525 4 2852 530 5 2853 519 5 2854 528 5 2855 528 5 2856 519 5 2857 524 5 2858 528 5 2859 524 5 2860 526 5 2861 518 5 2862 522 5 2863 519 5 2864 519 5 2865 522 5 2866 524 5 2867 548 1 2964 549 1 2965 550 1 2966 550 1 2967 549 1 2968 551 1 2969 552 0 2970 548 0 2971 553 0 2972 553 0 2973 548 0 2974 550 0 2975 554 3 2976 552 3 2977 555 3 2978 555 3 2979 552 3 2980 553 3 2981 549 2 2982 554 2 2983 551 2 2984 551 2 2985 554 2 2986 555 2 2987 549 5 2994 548 5 2995 554 5 2996 554 5 2997 548 5 2998 552 5 2999 556 2 3000 557 2 3001 558 2 3002 558 2 3003 557 2 3004 559 2 3005 560 1 3006 556 1 3007 561 1 3008 561 1 3009 556 1 3010 558 1 3011 562 0 3012 560 0 3013 563 0 3014 563 0 3015 560 0 3016 561 0 3017 564 1 3018 562 1 3019 565 1 3020 565 1 3021 562 1 3022 563 1 3023 566 168 3024 564 44 3025 567 220 3026 567 220 3027 564 44 3028 565 173 3029 568 172 3030 566 221 3031 569 171 3032 569 171 3033 566 221 3034 567 222 3035 557 1 3036 568 1 3037 559 1 3038 559 1 3039 568 1 3040 569 1 3041 569 4 3042 567 4 3043 559 4 3044 559 4 3045 567 4 3046 563 4 3047 559 4 3048 563 4 3049 558 4 3050 558 4 3051 563 4 3052 561 4 3053 567 4 3054 565 4 3055 563 4 3056 568 5 3057 557 5 3058 566 5 3059 566 5 3060 557 5 3061 562 5 3062 566 5 3063 562 5 3064 564 5 3065 556 5 3066 560 5 3067 557 5 3068 557 5 3069 560 5 3070 562 5 3071</p>
        </triangles>
        <triangles material="Paint_-_Enamel_Glossy__Blue_-material" count="211">
          <input semantic="VERTEX" source="#factory-mesh-vertices" offset="0"/>
          <input semantic="NORMAL" source="#factory-mesh-normals" offset="1"/>
          <input semantic="TEXCOORD" source="#factory-mesh-map-0" offset="2" set="0"/>
          <p>16 0 96 17 0 97 18 0 98 18 0 99 17 0 100 19 0 101 20 3 102 16 3 103 21 3 104 21 3 105 16 3 106 18 3 107 22 2 108 20 2 109 23 2 110 23 2 111 20 2 112 21 2 113 17 1 114 22 1 115 19 1 116 19 1 117 22 1 118 23 1 119 23 4 120 21 4 121 19 4 122 19 4 123 21 4 124 18 4 125 17 5 126 16 5 127 22 5 128 22 5 129 16 5 130 20 5 131 24 1 132 25 1 133 26 1 134 26 1 135 25 1 136 27 1 137 28 0 138 24 0 139 29 0 140 29 0 141 24 0 142 26 0 143 30 3 144 28 3 145 31 3 146 31 3 147 28 3 148 29 3 149 32 0 150 30 0 151 33 0 152 33 0 153 30 0 154 31 0 155 34 12 156 32 12 157 35 12 158 35 12 159 32 12 160 33 12 161 36 13 162 34 13 163 37 13 164 37 13 165 34 13 166 35 13 167 25 0 168 36 0 169 27 0 170 27 0 171 36 0 172 37 0 173 37 4 174 35 4 175 27 4 176 27 4 177 35 4 178 31 4 179 27 4 180 31 4 181 26 4 182 26 4 183 31 4 184 29 4 185 35 4 186 33 4 187 31 4 188 36 5 189 25 5 190 34 14 191 34 14 192 25 5 193 30 15 194 34 14 195 30 15 196 32 16 197 24 5 198 28 5 199 25 5 200 25 5 201 28 5 202 30 15 203 54 1 300 55 1 301 56 1 302 56 1 303 55 1 304 57 1 305 58 0 306 54 0 307 59 0 308 59 0 309 54 0 310 56 0 311 60 3 312 58 3 313 61 3 314 61 3 315 58 3 316 59 3 317 55 2 318 60 2 319 57 2 320 57 2 321 60 2 322 61 2 323 61 4 324 59 4 325 57 4 326 57 4 327 59 4 328 56 4 329 55 5 330 54 5 331 60 5 332 60 5 333 54 5 334 58 5 335 62 2 336 63 2 337 64 2 338 64 2 339 63 2 340 65 2 341 66 1 342 62 1 343 67 1 344 67 1 345 62 1 346 64 1 347 68 0 348 66 0 349 69 0 350 69 0 351 66 0 352 67 0 353 70 1 354 68 1 355 71 1 356 71 1 357 68 1 358 69 1 359 72 20 360 70 21 361 73 20 362 73 20 363 70 21 364 71 21 365 74 22 366 72 23 367 75 22 368 75 22 369 72 23 370 73 23 371 63 1 372 74 1 373 65 1 374 65 1 375 74 1 376 75 1 377 75 4 378 73 4 379 65 4 380 65 4 381 73 4 382 69 4 383 65 4 384 69 4 385 64 4 386 64 4 387 69 4 388 67 4 389 73 4 390 71 4 391 69 4 392 74 5 393 63 5 394 72 5 395 72 5 396 63 5 397 68 5 398 72 5 399 68 5 400 70 5 401 62 5 402 66 5 403 63 5 404 63 5 405 66 5 406 68 5 407 92 2 504 93 2 505 94 2 506 94 2 507 93 2 508 95 2 509 96 1 510 92 1 511 97 1 512 97 1 513 92 1 514 94 1 515 98 0 516 96 0 517 99 0 518 99 0 519 96 0 520 97 0 521 93 3 522 98 3 523 95 3 524 95 3 525 98 3 526 99 3 527 99 4 528 97 4 529 95 4 530 95 4 531 97 4 532 94 4 533 93 5 534 92 5 535 98 5 536 98 5 537 92 5 538 96 5 539 100 3 540 101 3 541 102 3 542 102 3 543 101 3 544 103 3 545 104 2 546 100 2 547 105 2 548 105 2 549 100 2 550 102 2 551 106 1 552 104 1 553 107 1 554 107 1 555 104 1 556 105 1 557 108 2 558 106 2 559 109 2 560 109 2 561 106 2 562 107 2 563 110 31 564 108 32 565 111 33 566 111 33 567 108 32 568 109 34 569 112 35 570 110 36 571 113 37 572 113 37 573 110 36 574 111 38 575 101 2 576 112 2 577 103 2 578 103 2 579 112 2 580 113 2 581 113 4 582 111 4 583 103 4 584 103 4 585 111 4 586 107 4 587 103 4 588 107 4 589 102 4 590 102 4 591 107 4 592 105 4 593 111 4 594 109 4 595 107 4 596 112 5 597 101 5 598 110 5 599 110 5 600 101 5 601 106 5 602 110 5 603 106 5 604 108 5 605 100 5 606 104 5 607 101 5 608 101 5 609 104 5 610 106 5 611 130 1 708 131 1 709 132 1 710 132 1 711 131 1 712 133 1 713 134 0 714 130 0 715 135 0 716 135 0 717 130 0 718 132 0 719 136 3 720 134 3 721 137 3 722 137 3 723 134 3 724 135 3 725 131 2 726 136 2 727 133 2 728 133 2 729 136 2 730 137 2 731 137 4 732 135 4 733 133 4 734 131 5 738 130 5 739 136 5 740 136 5 741 130 5 742 134 5 743 138 2 744 139 2 745 140 2 746 140 2 747 139 2 748 141 2 749 142 1 750 138 1 751 143 1 752 143 1 753 138 1 754 140 1 755 144 0 756 142 0 757 145 0 758 145 0 759 142 0 760 143 0 761 146 1 762 144 1 763 147 1 764 147 1 765 144 1 766 145 1 767 148 42 768 146 43 769 149 44 770 149 44 771 146 43 772 147 45 773 150 46 774 148 47 775 151 48 776 151 48 777 148 47 778 149 49 779 139 1 780 150 1 781 141 1 782 141 1 783 150 1 784 151 1 785 151 4 786 149 4 787 141 4 788 141 4 789 149 4 790 145 4 791 141 4 792 145 4 793 140 4 794 140 4 795 145 4 796 143 4 797 149 4 798 147 4 799 145 4 800 150 5 801 139 5 802 148 5 803 148 5 804 139 5 805 144 5 806 148 5 807 144 5 808 146 5 809 138 5 810 142 5 811 139 5 812 139 5 813 142 5 814 144 5 815 188 3 1020 189 3 1021 190 3 1022 190 3 1023 189 3 1024 191 3 1025 192 0 1026 188 0 1027 193 0 1028 193 0 1029 188 0 1030 190 0 1031 194 1 1032 192 1 1033 195 1 1034 195 1 1035 192 1 1036 193 1 1037 189 2 1038 194 2 1039 191 2 1040 191 2 1041 194 2 1042 195 2 1043 196 3 1044 197 3 1045 198 3 1046 198 3 1047 197 3 1048 199 3 1049 200 2 1050 196 2 1051 201 2 1052 201 2 1053 196 2 1054 198 2 1055 202 1 1056 200 1 1057 203 1 1058 203 1 1059 200 1 1060 201 1 1061 197 0 1062 202 0 1063 199 0 1064 199 0 1065 202 0 1066 203 0 1067 195 4 1068 203 4 1069 191 4 1070 191 4 1071 203 4 1072 201 4 1073 191 4 1074 201 4 1075 190 4 1076 190 4 1077 201 4 1078 193 4 1079 193 4 1080 201 4 1081 198 4 1082 193 4 1083 198 4 1084 199 4 1085 203 4 1086 195 4 1087 199 4 1088 199 4 1089 195 4 1090 193 4 1091 189 5 1092 202 5 1093 194 5 1094 194 5 1095 202 5 1096 197 5 1097 194 5 1098 197 5 1099 196 5 1100 189 5 1101 188 5 1102 202 5 1103 202 5 1104 188 5 1105 200 5 1106 200 5 1107 188 5 1108 192 5 1109 200 5 1110 192 5 1111 196 5 1112 196 5 1113 192 5 1114 194 5 1115 220 2 1212 221 2 1213 222 2 1214 222 2 1215 221 2 1216 223 2 1217 224 1 1218 220 1 1219 225 1 1220 225 1 1221 220 1 1222 222 1 1223 226 0 1224 224 0 1225 227 0 1226 227 0 1227 224 0 1228 225 0 1229 221 3 1230 226 3 1231 223 3 1232 223 3 1233 226 3 1234 227 3 1235 227 4 1236 225 4 1237 223 4 1238 223 4 1239 225 4 1240 222 4 1241 221 5 1242 220 5 1243 226 5 1244 226 5 1245 220 5 1246 224 5 1247 228 3 1248 229 3 1249 230 3 1250 230 3 1251 229 3 1252 231 3 1253 232 2 1254 228 2 1255 233 2 1256 233 2 1257 228 2 1258 230 2 1259 234 1 1260 232 1 1261 235 1 1262 235 1 1263 232 1 1264 233 1 1265 236 2 1266 234 2 1267 237 2 1268 237 2 1269 234 2 1270 235 2 1271 238 92 1272 236 93 1273 239 93 1274 239 93 1275 236 93 1276 237 92 1277 240 94 1278 238 95 1279 241 95 1280 241 95 1281 238 95 1282 239 94 1283 229 2 1284 240 2 1285 231 2 1286 231 2 1287 240 2 1288 241 2 1289 241 4 1290 239 4 1291 231 4 1292 231 4 1293 239 4 1294 235 4 1295 231 4 1296 235 4 1297 230 4 1298 230 4 1299 235 4 1300 233 4 1301 239 4 1302 237 4 1303 235 4 1304 240 5 1305 229 5 1306 238 5 1307 238 5 1308 229 5 1309 234 5 1310 238 5 1311 234 5 1312 236 5 1313 228 5 1314 232 5 1315 229 5 1316 229 5 1317 232 5 1318 234 5 1319</p>
        </triangles>
        <triangles material="Paint_-_Enamel_Glossy__Yellow_-material" count="19">
          <input semantic="VERTEX" source="#factory-mesh-vertices" offset="0"/>
          <input semantic="NORMAL" source="#factory-mesh-normals" offset="1"/>
          <input semantic="TEXCOORD" source="#factory-mesh-map-0" offset="2" set="0"/>
          <p>152 1 816 153 1 817 154 1 818 154 1 819 153 1 820 155 1 821 156 50 822 152 50 823 157 50 824 157 50 825 152 50 826 154 50 827 158 3 828 156 3 829 159 3 830 159 3 831 156 3 832 157 3 833 160 51 834 158 52 835 161 52 836 161 52 837 158 52 838 159 51 839 162 3 840 160 3 841 163 3 842 163 3 843 160 3 844 161 3 845 164 53 846 162 54 847 165 55 848 165 55 849 162 54 850 163 56 851 153 57 852 164 58 853 155 59 854 155 59 855 164 58 856 165 58 857 164 60 873 153 61 874 162 62 875 162 62 876 153 61 877 160 63 878 160 63 879 153 61 880 152 64 881 160 63 882 152 64 883 156 65 884 156 65 885 158 5 886 160 63 887</p>
        </triangles>
        <triangles material="Material-material" count="232">
          <input semantic="VERTEX" source="#factory-mesh-vertices" offset="0"/>
          <input semantic="NORMAL" source="#factory-mesh-normals" offset="1"/>
          <input semantic="TEXCOORD" source="#factory-mesh-map-0" offset="2" set="0"/>
          <p>242 5 1320 243 5 1321 244 5 1322 244 5 1323 243 5 1324 245 5 1325 245 3 1326 243 3 1327 246 3 1328 246 3 1329 243 3 1330 247 3 1331 243 0 1332 242 0 1333 247 0 1334 247 0 1335 242 0 1336 248 0 1337 242 1 1338 244 1 1339 248 1 1340 248 1 1341 244 1 1342 249 1 1343 244 2 1344 245 2 1345 249 2 1346 249 2 1347 245 2 1348 246 2 1349 247 4 1350 248 4 1351 246 4 1352 246 4 1353 248 4 1354 249 4 1355 250 5 1356 251 5 1357 252 5 1358 252 5 1359 251 5 1360 253 5 1361 252 5 1362 253 5 1363 254 5 1364 254 5 1365 253 5 1366 255 5 1367 254 5 1368 255 5 1369 256 5 1370 256 5 1371 257 5 1372 254 5 1373 257 3 1374 256 3 1375 258 3 1376 258 3 1377 256 3 1378 259 3 1379 256 0 1380 255 0 1381 259 0 1382 259 0 1383 255 0 1384 260 0 1385 255 1 1386 253 1 1387 260 1 1388 260 1 1389 253 1 1390 261 1 1391 253 2 1392 251 2 1393 261 2 1394 261 2 1395 251 2 1396 262 2 1397 251 3 1398 250 3 1399 262 3 1400 262 3 1401 250 3 1402 263 3 1403 254 2 1404 257 2 1405 264 2 1406 264 2 1407 257 2 1408 258 2 1409 252 3 1410 254 3 1411 265 3 1412 265 3 1413 254 3 1414 264 3 1415 250 0 1416 252 0 1417 263 0 1418 263 0 1419 252 0 1420 265 0 1421 263 4 1422 265 96 1423 262 97 1424 262 97 1425 265 96 1426 261 98 1427 261 98 1428 265 96 1429 264 99 1430 261 98 1431 264 99 1432 260 100 1433 260 100 1434 264 99 1435 259 101 1436 259 101 1437 264 99 1438 258 4 1439 570 5 3072 571 5 3073 572 5 3074 572 5 3075 571 5 3076 573 5 3077 571 3 3078 570 3 3079 574 3 3080 574 3 3081 570 3 3082 575 3 3083 570 0 3084 572 0 3085 575 0 3086 575 0 3087 572 0 3088 576 0 3089 572 1 3090 573 1 3091 576 1 3092 576 1 3093 573 1 3094 577 1 3095 573 2 3096 571 2 3097 577 2 3098 577 2 3099 571 2 3100 574 2 3101 576 4 3102 577 4 3103 575 4 3104 575 4 3105 577 4 3106 574 4 3107 578 2 3108 579 2 3109 580 2 3110 580 2 3111 579 2 3112 581 2 3113 582 1 3114 583 1 3115 584 1 3116 584 1 3117 583 1 3118 585 1 3119 580 3 3120 586 3 3121 578 3 3122 578 3 3123 586 3 3124 587 3 3125 578 4 3126 587 223 3127 579 4 3128 579 4 3129 587 223 3130 588 224 3131 588 224 3132 587 223 3133 589 225 3134 588 224 3135 589 225 3136 590 226 3137 590 226 3138 589 225 3139 591 4 3140 590 226 3141 591 4 3142 592 4 3143 592 4 3144 591 4 3145 585 4 3146 585 4 3147 591 4 3148 584 4 3149 593 0 3150 582 0 3151 591 0 3152 591 0 3153 582 0 3154 584 0 3155 594 1 3156 593 1 3157 589 1 3158 589 1 3159 593 1 3160 591 1 3161 586 2 3162 594 2 3163 587 2 3164 587 2 3165 594 2 3166 589 2 3167 595 3 3168 596 3 3169 592 3 3170 592 3 3171 596 3 3172 590 3 3173 583 2 3174 595 2 3175 585 2 3176 585 2 3177 595 2 3178 592 2 3179 579 1 3180 588 1 3181 581 1 3182 581 1 3183 588 1 3184 597 1 3185 596 0 3186 597 0 3187 590 0 3188 590 0 3189 597 0 3190 588 0 3191 580 5 3192 581 5 3193 586 5 3194 586 5 3195 581 5 3196 597 5 3197 586 5 3198 597 5 3199 594 5 3200 594 5 3201 597 5 3202 596 5 3203 594 5 3204 596 5 3205 595 5 3206 594 5 3207 595 5 3208 593 5 3209 593 5 3210 595 5 3211 583 5 3212 593 5 3213 583 5 3214 582 5 3215 598 3 3216 599 3 3217 600 3 3218 600 3 3219 599 3 3220 601 3 3221 602 2 3222 598 2 3223 603 2 3224 603 2 3225 598 2 3226 600 2 3227 604 1 3228 602 1 3229 605 1 3230 605 1 3231 602 1 3232 603 1 3233 599 0 3234 604 0 3235 601 0 3236 601 0 3237 604 0 3238 605 0 3239 605 4 3240 603 4 3241 601 4 3242 601 4 3243 603 4 3244 600 4 3245 599 5 3246 598 5 3247 604 5 3248 604 5 3249 598 5 3250 602 5 3251 606 3 3252 607 3 3253 608 3 3254 608 3 3255 607 3 3256 609 3 3257 610 2 3258 606 2 3259 611 2 3260 611 2 3261 606 2 3262 608 2 3263 612 1 3264 610 1 3265 613 1 3266 613 1 3267 610 1 3268 611 1 3269 607 0 3270 612 0 3271 609 0 3272 609 0 3273 612 0 3274 613 0 3275 613 4 3276 611 4 3277 609 4 3278 609 4 3279 611 4 3280 608 4 3281 607 5 3282 606 5 3283 612 5 3284 612 5 3285 606 5 3286 610 5 3287 614 2 3288 615 2 3289 616 2 3290 616 2 3291 615 2 3292 617 2 3293 618 1 3294 614 1 3295 619 1 3296 619 1 3297 614 1 3298 616 1 3299 620 0 3300 618 0 3301 621 0 3302 621 0 3303 618 0 3304 619 0 3305 622 1 3306 620 1 3307 623 1 3308 623 1 3309 620 1 3310 621 1 3311 624 2 3312 622 2 3313 625 2 3314 625 2 3315 622 2 3316 623 2 3317 626 1 3318 624 1 3319 627 1 3320 627 1 3321 624 1 3322 625 1 3323 628 0 3324 626 0 3325 629 0 3326 629 0 3327 626 0 3328 627 0 3329 630 1 3330 628 1 3331 631 1 3332 631 1 3333 628 1 3334 629 1 3335 632 2 3336 630 2 3337 633 2 3338 633 2 3339 630 2 3340 631 2 3341 634 1 3342 632 1 3343 635 1 3344 635 1 3345 632 1 3346 633 1 3347 636 2 3348 634 2 3349 637 2 3350 637 2 3351 634 2 3352 635 2 3353 638 3 3354 636 3 3355 639 3 3356 639 3 3357 636 3 3358 637 3 3359 640 2 3360 638 2 3361 641 2 3362 641 2 3363 638 2 3364 639 2 3365 642 3 3366 640 3 3367 643 3 3368 643 3 3369 640 3 3370 641 3 3371 644 0 3372 642 0 3373 645 0 3374 645 0 3375 642 0 3376 643 0 3377 646 3 3378 644 3 3379 647 3 3380 647 3 3381 644 3 3382 645 3 3383 648 2 3384 646 2 3385 649 2 3386 649 2 3387 646 2 3388 647 2 3389 650 3 3390 648 3 3391 651 3 3392 651 3 3393 648 3 3394 649 3 3395 652 2 3396 650 2 3397 653 2 3398 653 2 3399 650 2 3400 651 2 3401 654 1 3402 652 1 3403 655 1 3404 655 1 3405 652 1 3406 653 1 3407 656 2 3408 654 2 3409 657 2 3410 657 2 3411 654 2 3412 655 2 3413 658 1 3414 656 1 3415 659 1 3416 659 1 3417 656 1 3418 657 1 3419 660 0 3420 658 0 3421 661 0 3422 661 0 3423 658 0 3424 659 0 3425 662 3 3426 660 3 3427 663 3 3428 663 3 3429 660 3 3430 661 3 3431 664 0 3432 662 0 3433 665 0 3434 665 0 3435 662 0 3436 663 0 3437 666 3 3438 664 3 3439 667 3 3440 667 3 3441 664 3 3442 665 3 3443 668 2 3444 666 2 3445 669 2 3446 669 2 3447 666 2 3448 667 2 3449 615 1 3450 668 1 3451 617 1 3452 617 1 3453 668 1 3454 669 1 3455 669 4 3456 667 4 3457 617 4 3458 617 4 3459 667 4 3460 621 4 3461 617 4 3462 621 4 3463 616 4 3464 616 4 3465 621 4 3466 619 4 3467 621 4 3468 667 4 3469 623 4 3470 623 4 3471 667 4 3472 665 4 3473 623 4 3474 665 4 3475 629 4 3476 629 4 3477 665 4 3478 631 4 3479 631 4 3480 665 4 3481 635 4 3482 631 4 3483 635 4 3484 633 4 3485 665 4 3486 663 227 3487 635 4 3488 635 4 3489 663 227 3490 637 4 3491 637 4 3492 663 227 3493 655 228 3494 637 4 3495 655 228 3496 641 4 3497 641 4 3498 655 228 3499 643 4 3500 643 4 3501 655 228 3502 653 4 3503 643 4 3504 653 4 3505 649 4 3506 649 4 3507 653 4 3508 651 4 3509 661 4 3510 659 229 3511 663 227 3512 663 227 3513 659 229 3514 655 228 3515 659 229 3516 657 4 3517 655 228 3518 647 4 3519 645 4 3520 649 4 3521 649 4 3522 645 4 3523 643 4 3524 641 4 3525 639 4 3526 637 4 3527 627 4 3528 625 4 3529 629 4 3530 629 4 3531 625 4 3532 623 4 3533 668 5 3534 615 5 3535 666 5 3536 666 5 3537 615 5 3538 620 5 3539 666 5 3540 620 5 3541 622 5 3542 614 5 3543 618 5 3544 615 5 3545 615 5 3546 618 5 3547 620 5 3548 624 5 3549 626 5 3550 622 5 3551 622 5 3552 626 5 3553 628 5 3554 622 5 3555 628 5 3556 664 5 3557 664 5 3558 628 5 3559 630 5 3560 664 5 3561 630 5 3562 634 5 3563 634 5 3564 630 5 3565 632 5 3566 664 5 3567 634 5 3568 662 5 3569 662 5 3570 634 5 3571 636 5 3572 662 5 3573 636 5 3574 654 5 3575 654 5 3576 636 5 3577 640 5 3578 654 5 3579 640 5 3580 642 5 3581 636 5 3582 638 5 3583 640 5 3584 644 5 3585 646 5 3586 642 5 3587 642 5 3588 646 5 3589 648 5 3590 642 5 3591 648 5 3592 652 5 3593 652 5 3594 648 5 3595 650 5 3596 652 5 3597 654 5 3598 642 5 3599 656 5 3600 658 5 3601 654 5 3602 654 5 3603 658 5 3604 662 5 3605 658 5 3606 660 5 3607 662 5 3608 664 5 3609 666 5 3610 622 5 3611 670 230 3612 671 230 3613 672 230 3614 672 230 3615 671 230 3616 673 230 3617 674 221 3618 670 221 3619 675 221 3620 675 221 3621 670 221 3622 672 221 3623 676 231 3624 674 231 3625 677 231 3626 677 231 3627 674 231 3628 675 231 3629 671 232 3630 676 232 3631 673 232 3632 673 232 3633 676 232 3634 677 232 3635 677 4 3636 675 4 3637 673 4 3638 673 4 3639 675 4 3640 672 4 3641 676 5 3642 671 5 3643 674 5 3644 674 5 3645 671 5 3646 670 5 3647</p>
        </triangles>
        <triangles material="Paint_-_Enamel_Glossy__Green_-material" count="300">
          <input semantic="VERTEX" source="#factory-mesh-vertices" offset="0"/>
          <input semantic="NORMAL" source="#factory-mesh-normals" offset="1"/>
          <input semantic="TEXCOORD" source="#factory-mesh-map-0" offset="2" set="0"/>
          <p>166 66 888 167 67 889 168 68 890 168 68 891 167 67 892 169 69 893 170 1 894 166 1 895 171 1 896 171 1 897 166 1 898 168 1 899 172 70 900 170 71 901 173 71 902 173 71 903 170 71 904 171 70 905 174 1 906 172 1 907 175 1 908 175 1 909 172 1 910 173 1 911 176 72 912 174 72 913 177 72 914 177 72 915 174 72 916 175 72 917 178 3 918 176 3 919 179 3 920 179 3 921 176 3 922 177 3 923 167 73 924 178 74 925 169 73 926 169 73 927 178 74 928 179 75 929 180 3 930 181 3 931 182 3 932 182 3 933 181 3 934 183 3 935 184 2 936 180 2 937 185 2 938 185 2 939 180 2 940 182 2 941 186 1 942 184 1 943 187 1 944 187 1 945 184 1 946 185 1 947 181 0 948 186 0 949 183 0 950 183 0 951 186 0 952 187 0 953 179 4 954 177 4 955 169 4 956 169 4 957 177 4 958 187 4 959 169 4 960 187 4 961 185 4 962 187 4 963 177 4 964 183 4 965 183 4 966 177 4 967 175 4 968 183 4 969 175 4 970 173 4 971 171 4 972 168 4 973 173 4 974 173 4 975 168 4 976 182 4 977 173 4 978 182 4 979 183 4 980 182 4 981 168 4 982 185 4 983 185 4 984 168 4 985 169 4 986 178 5 987 167 76 988 176 77 989 176 77 990 167 76 991 186 78 992 176 77 993 186 78 994 181 79 995 186 78 996 167 76 997 184 80 998 184 80 999 167 76 1000 166 81 1001 184 80 1002 166 81 1003 180 82 1004 180 82 1005 166 81 1006 172 83 1007 180 82 1008 172 83 1009 174 84 1010 166 81 1011 170 5 1012 172 83 1013 180 82 1014 174 84 1015 181 79 1016 181 79 1017 174 84 1018 176 77 1019 266 0 1440 267 0 1441 268 0 1442 268 0 1443 267 0 1444 269 0 1445 270 1 1446 266 1 1447 271 1 1448 271 1 1449 266 1 1450 268 1 1451 272 2 1452 270 2 1453 273 2 1454 273 2 1455 270 2 1456 271 2 1457 267 3 1458 272 3 1459 269 3 1460 269 3 1461 272 3 1462 273 3 1463 274 0 1464 275 0 1465 276 0 1466 276 0 1467 275 0 1468 277 0 1469 278 3 1470 274 3 1471 279 3 1472 279 3 1473 274 3 1474 276 3 1475 280 2 1476 278 2 1477 281 2 1478 281 2 1479 278 2 1480 279 2 1481 275 1 1482 280 1 1483 277 1 1484 277 1 1485 280 1 1486 281 1 1487 273 4 1488 281 4 1489 269 4 1490 269 4 1491 281 4 1492 279 4 1493 269 4 1494 279 4 1495 268 4 1496 268 4 1497 279 4 1498 271 4 1499 271 4 1500 279 4 1501 276 4 1502 271 4 1503 276 4 1504 277 4 1505 281 4 1506 273 4 1507 277 4 1508 277 4 1509 273 4 1510 271 4 1511 267 5 1512 280 102 1513 272 5 1514 272 5 1515 280 102 1516 275 5 1517 272 5 1518 275 5 1519 274 5 1520 267 5 1521 266 103 1522 280 102 1523 280 102 1524 266 103 1525 278 104 1526 278 104 1527 266 103 1528 270 5 1529 278 104 1530 270 5 1531 274 5 1532 274 5 1533 270 5 1534 272 5 1535 304 111 1644 305 112 1645 306 113 1646 306 113 1647 305 112 1648 307 112 1649 308 114 1650 304 115 1651 309 114 1652 309 114 1653 304 115 1654 306 115 1655 310 116 1656 308 117 1657 311 116 1658 311 116 1659 308 117 1660 309 118 1661 305 119 1662 310 119 1663 307 119 1664 307 119 1665 310 119 1666 311 119 1667 312 31 1668 313 120 1669 314 31 1670 314 31 1671 313 120 1672 315 120 1673 316 121 1674 312 122 1675 317 121 1676 317 121 1677 312 122 1678 314 123 1679 318 124 1680 316 49 1681 319 49 1682 319 49 1683 316 49 1684 317 124 1685 313 125 1686 318 126 1687 315 125 1688 315 125 1689 318 126 1690 319 126 1691 311 4 1692 319 4 1693 307 4 1694 307 4 1695 319 4 1696 317 4 1697 307 4 1698 317 4 1699 306 4 1700 306 4 1701 317 4 1702 309 4 1703 309 4 1704 317 4 1705 314 4 1706 309 4 1707 314 4 1708 315 4 1709 319 4 1710 311 4 1711 315 4 1712 315 4 1713 311 4 1714 309 4 1715 305 5 1716 318 127 1717 310 128 1718 310 128 1719 318 127 1720 313 129 1721 310 128 1722 313 129 1723 312 130 1724 305 5 1725 304 131 1726 318 127 1727 318 127 1728 304 131 1729 316 132 1730 316 132 1731 304 131 1732 308 133 1733 316 132 1734 308 133 1735 312 130 1736 312 130 1737 308 133 1738 310 128 1739 342 1 1848 343 1 1849 344 1 1850 344 1 1851 343 1 1852 345 1 1853 346 2 1854 342 2 1855 347 2 1856 347 2 1857 342 2 1858 344 2 1859 348 3 1860 346 3 1861 349 3 1862 349 3 1863 346 3 1864 347 3 1865 343 0 1866 348 0 1867 345 0 1868 345 0 1869 348 0 1870 349 0 1871 350 1 1872 351 1 1873 352 1 1874 352 1 1875 351 1 1876 353 1 1877 354 0 1878 350 0 1879 355 0 1880 355 0 1881 350 0 1882 352 0 1883 356 3 1884 354 3 1885 357 3 1886 357 3 1887 354 3 1888 355 3 1889 351 2 1890 356 2 1891 353 2 1892 353 2 1893 356 2 1894 357 2 1895 349 4 1896 357 4 1897 345 4 1898 345 4 1899 357 4 1900 355 4 1901 345 4 1902 355 4 1903 344 4 1904 344 4 1905 355 4 1906 347 4 1907 347 4 1908 355 4 1909 352 4 1910 347 4 1911 352 4 1912 353 4 1913 357 4 1914 349 4 1915 353 4 1916 353 4 1917 349 4 1918 347 4 1919 343 5 1920 356 162 1921 348 163 1922 348 163 1923 356 162 1924 351 164 1925 348 163 1926 351 164 1927 350 165 1928 343 5 1929 342 5 1930 356 162 1931 356 162 1932 342 5 1933 354 166 1934 354 166 1935 342 5 1936 346 167 1937 354 166 1938 346 167 1939 350 165 1940 350 165 1941 346 167 1942 348 163 1943 380 1 2052 381 1 2053 382 1 2054 382 1 2055 381 1 2056 383 1 2057 384 2 2058 380 2 2059 385 2 2060 385 2 2061 380 2 2062 382 2 2063 386 3 2064 384 3 2065 387 3 2066 387 3 2067 384 3 2068 385 3 2069 381 0 2070 386 0 2071 383 0 2072 383 0 2073 386 0 2074 387 0 2075 388 1 2076 389 1 2077 390 1 2078 390 1 2079 389 1 2080 391 1 2081 392 0 2082 388 0 2083 393 0 2084 393 0 2085 388 0 2086 390 0 2087 394 3 2088 392 3 2089 395 3 2090 395 3 2091 392 3 2092 393 3 2093 389 2 2094 394 2 2095 391 2 2096 391 2 2097 394 2 2098 395 2 2099 387 4 2100 395 4 2101 383 4 2102 383 4 2103 395 4 2104 393 4 2105 383 4 2106 393 4 2107 382 4 2108 382 4 2109 393 4 2110 385 4 2111 385 4 2112 393 4 2113 390 4 2114 385 4 2115 390 4 2116 391 4 2117 395 4 2118 387 4 2119 391 4 2120 391 4 2121 387 4 2122 385 4 2123 381 5 2124 394 162 2125 386 163 2126 386 163 2127 394 162 2128 389 164 2129 386 163 2130 389 164 2131 388 165 2132 381 5 2133 380 5 2134 394 162 2135 394 162 2136 380 5 2137 392 166 2138 392 166 2139 380 5 2140 384 167 2141 392 166 2142 384 167 2143 388 165 2144 388 165 2145 384 167 2146 386 163 2147 418 2 2256 419 2 2257 420 2 2258 420 2 2259 419 2 2260 421 2 2261 422 3 2262 418 3 2263 423 3 2264 423 3 2265 418 3 2266 420 3 2267 424 0 2268 422 0 2269 425 0 2270 425 0 2271 422 0 2272 423 0 2273 419 1 2274 424 1 2275 421 1 2276 421 1 2277 424 1 2278 425 1 2279 426 2 2280 427 2 2281 428 2 2282 428 2 2283 427 2 2284 429 2 2285 430 1 2286 426 1 2287 431 1 2288 431 1 2289 426 1 2290 428 1 2291 432 0 2292 430 0 2293 433 0 2294 433 0 2295 430 0 2296 431 0 2297 427 3 2298 432 3 2299 429 3 2300 429 3 2301 432 3 2302 433 3 2303 425 4 2304 433 4 2305 421 4 2306 421 4 2307 433 4 2308 431 4 2309 421 4 2310 431 4 2311 420 4 2312 420 4 2313 431 4 2314 423 4 2315 423 4 2316 431 4 2317 428 4 2318 423 4 2319 428 4 2320 429 4 2321 433 4 2322 425 4 2323 429 4 2324 429 4 2325 425 4 2326 423 4 2327 419 5 2328 432 178 2329 424 87 2330 424 87 2331 432 178 2332 427 5 2333 424 87 2334 427 5 2335 426 179 2336 419 5 2337 418 180 2338 432 178 2339 432 178 2340 418 180 2341 430 181 2342 430 181 2343 418 180 2344 422 182 2345 430 181 2346 422 182 2347 426 179 2348 426 179 2349 422 182 2350 424 87 2351 456 2 2460 457 2 2461 458 2 2462 458 2 2463 457 2 2464 459 2 2465 460 3 2466 456 3 2467 461 3 2468 461 3 2469 456 3 2470 458 3 2471 462 0 2472 460 0 2473 463 0 2474 463 0 2475 460 0 2476 461 0 2477 457 1 2478 462 1 2479 459 1 2480 459 1 2481 462 1 2482 463 1 2483 464 2 2484 465 2 2485 466 2 2486 466 2 2487 465 2 2488 467 2 2489 468 1 2490 464 1 2491 469 1 2492 469 1 2493 464 1 2494 466 1 2495 470 0 2496 468 0 2497 471 0 2498 471 0 2499 468 0 2500 469 0 2501 465 3 2502 470 3 2503 467 3 2504 467 3 2505 470 3 2506 471 3 2507 463 4 2508 471 4 2509 459 4 2510 459 4 2511 471 4 2512 469 4 2513 459 4 2514 469 4 2515 458 4 2516 458 4 2517 469 4 2518 461 4 2519 461 4 2520 469 4 2521 466 4 2522 461 4 2523 466 4 2524 467 4 2525 471 4 2526 463 4 2527 467 4 2528 467 4 2529 463 4 2530 461 4 2531 457 5 2532 470 192 2533 462 193 2534 462 193 2535 470 192 2536 465 5 2537 462 193 2538 465 5 2539 464 194 2540 457 5 2541 456 195 2542 470 192 2543 470 192 2544 456 195 2545 468 196 2546 468 196 2547 456 195 2548 460 197 2549 468 196 2550 460 197 2551 464 194 2552 464 194 2553 460 197 2554 462 193 2555 494 0 2664 495 0 2665 496 0 2666 496 0 2667 495 0 2668 497 0 2669 498 1 2670 494 1 2671 499 1 2672 499 1 2673 494 1 2674 496 1 2675 500 2 2676 498 2 2677 501 2 2678 501 2 2679 498 2 2680 499 2 2681 495 3 2682 500 3 2683 497 3 2684 497 3 2685 500 3 2686 501 3 2687 502 0 2688 503 0 2689 504 0 2690 504 0 2691 503 0 2692 505 0 2693 506 3 2694 502 3 2695 507 3 2696 507 3 2697 502 3 2698 504 3 2699 508 2 2700 506 2 2701 509 2 2702 509 2 2703 506 2 2704 507 2 2705 503 1 2706 508 1 2707 505 1 2708 505 1 2709 508 1 2710 509 1 2711 501 4 2712 509 4 2713 497 4 2714 497 4 2715 509 4 2716 507 4 2717 497 4 2718 507 4 2719 496 4 2720 496 4 2721 507 4 2722 499 4 2723 499 4 2724 507 4 2725 504 4 2726 499 4 2727 504 4 2728 505 4 2729 509 4 2730 501 4 2731 505 4 2732 505 4 2733 501 4 2734 499 4 2735 495 5 2736 508 206 2737 500 5 2738 500 5 2739 508 206 2740 503 5 2741 500 5 2742 503 5 2743 502 5 2744 495 5 2745 494 207 2746 508 206 2747 508 206 2748 494 207 2749 506 208 2750 506 208 2751 494 207 2752 498 5 2753 506 208 2754 498 5 2755 502 5 2756 502 5 2757 498 5 2758 500 5 2759 532 1 2868 533 1 2869 534 1 2870 534 1 2871 533 1 2872 535 1 2873 536 2 2874 532 2 2875 537 2 2876 537 2 2877 532 2 2878 534 2 2879 538 3 2880 536 3 2881 539 3 2882 539 3 2883 536 3 2884 537 3 2885 533 0 2886 538 0 2887 535 0 2888 535 0 2889 538 0 2890 539 0 2891 540 1 2892 541 1 2893 542 1 2894 542 1 2895 541 1 2896 543 1 2897 544 0 2898 540 0 2899 545 0 2900 545 0 2901 540 0 2902 542 0 2903 546 3 2904 544 3 2905 547 3 2906 547 3 2907 544 3 2908 545 3 2909 541 2 2910 546 2 2911 543 2 2912 543 2 2913 546 2 2914 547 2 2915 539 4 2916 547 4 2917 535 4 2918 535 4 2919 547 4 2920 545 4 2921 535 4 2922 545 4 2923 534 4 2924 534 4 2925 545 4 2926 537 4 2927 537 4 2928 545 4 2929 542 4 2930 537 4 2931 542 4 2932 543 4 2933 547 4 2934 539 4 2935 543 4 2936 543 4 2937 539 4 2938 537 4 2939 533 5 2940 546 216 2941 538 163 2942 538 163 2943 546 216 2944 541 164 2945 538 163 2946 541 164 2947 540 217 2948 533 5 2949 532 5 2950 546 216 2951 546 216 2952 532 5 2953 544 218 2954 544 218 2955 532 5 2956 536 219 2957 544 218 2958 536 219 2959 540 217 2960 540 217 2961 536 219 2962 538 163 2963</p>
        </triangles>
        <triangles material="Material_001-material" count="22">
          <input semantic="VERTEX" source="#factory-mesh-vertices" offset="0"/>
          <input semantic="NORMAL" source="#factory-mesh-normals" offset="1"/>
          <input semantic="TEXCOORD" source="#factory-mesh-map-0" offset="2" set="0"/>
          <p>133 4 735 135 4 736 132 4 737 165 4 858 163 4 859 155 4 860 155 4 861 163 4 862 161 4 863 155 4 864 161 4 865 154 4 866 154 4 867 161 4 868 157 4 869 157 4 870 161 4 871 159 4 872 289 4 1560 287 4 1561 285 4 1562 285 4 1563 287 4 1564 284 4 1565 327 4 1764 325 4 1765 323 4 1766 323 4 1767 325 4 1768 322 4 1769 365 4 1968 363 4 1969 361 4 1970 361 4 1971 363 4 1972 360 4 1973 403 4 2172 401 4 2173 399 4 2174 399 4 2175 401 4 2176 398 4 2177 441 4 2376 439 4 2377 437 4 2378 437 4 2379 439 4 2380 436 4 2381 479 4 2580 477 4 2581 475 4 2582 475 4 2583 477 4 2584 474 4 2585 517 4 2784 515 4 2785 513 4 2786 513 4 2787 515 4 2788 512 4 2789 555 4 2988 553 4 2989 551 4 2990 551 4 2991 553 4 2992 550 4 2993</p>
        </triangles>
      </mesh>
    </geometry>
  </library_geometries>
  <library_visual_scenes>
    <visual_scene id="Scene" name="Scene">
      <node id="factory" name="factory" type="NODE">
        <matrix sid="transform">1 0 0 0 0 1 0 0 0 0 1 0 0 0 0 1</matrix>
        <instance_geometry url="#factory-mesh" name="factory">
          <bind_material>
            <technique_common>
              <instance_material symbol="Paint_-_Enamel_Glossy__Red_-material" target="#Paint_-_Enamel_Glossy__Red_-material">
                <bind_vertex_input semantic="UVMap" input_semantic="TEXCOORD" input_set="0"/>
              </instance_material>
              <instance_material symbol="Paint_-_Enamel_Glossy__Blue_-material" target="#Paint_-_Enamel_Glossy__Blue_-material">
                <bind_vertex_input semantic="UVMap" input_semantic="TEXCOORD" input_set="0"/>
              </instance_material>
              <instance_material symbol="Paint_-_Enamel_Glossy__Yellow_-material" target="#Paint_-_Enamel_Glossy__Yellow_-material">
                <bind_vertex_input semantic="UVMap" input_semantic="TEXCOORD" input_set="0"/>
              </instance_material>
              <instance_material symbol="Material-material" target="#Material-material">
                <bind_vertex_input semantic="UVMap" input_semantic="TEXCOORD" input_set="0"/>
              </instance_material>
              <instance_material symbol="Paint_-_Enamel_Glossy__Green_-material" target="#Paint_-_Enamel_Glossy__Green_-material">
                <bind_vertex_input semantic="UVMap" input_semantic="TEXCOORD" input_set="0"/>
              </instance_material>
              <instance_material symbol="Material_001-material" target="#Material_001-material">
                <bind_vertex_input semantic="UVMap" input_semantic="TEXCOORD" input_set="0"/>
              </instance_material>
            </technique_common>
          </bind_material>
        </instance_geometry>
      </node>
      <node id="Camera" name="Camera" type="NODE">
        <matrix sid="transform">0.6859207 -0.3240135 0.6515582 7.358891 0.7276763 0.3054208 -0.6141704 -6.925791 0 0.8953956 0.4452714 4.958309 0 0 0 1</matrix>
        <instance_camera url="#Camera-camera"/>
      </node>
      <node id="Light" name="Light" type="NODE">
        <matrix sid="transform">-0.2908646 -0.7711008 0.5663932 4.076245 0.9551712 -0.1998834 0.2183912 1.005454 -0.05518906 0.6045247 0.7946723 5.903862 0 0 0 1</matrix>
        <instance_light url="#Light-light"/>
      </node>
    </visual_scene>
  </library_visual_scenes>
  <scene>
    <instance_visual_scene url="#Scene"/>
  </scene>
</COLLADA>