<?xml version="1.0" encoding="utf-8"?>
<COLLADA xmlns="http://www.collada.org/2005/11/COLLADASchema" version="1.4.1" xmlns:xsi="http://www.w3.org/2001/XMLSchema-instance">
  <asset>
    <contributor>
      <author>Blender User</author>
      <authoring_tool>Blender 2.83.5 commit date:2020-08-19, commit time:06:07, hash:c2b144df395f</authoring_tool>
    </contributor>
    <created>2021-06-03T17:01:08</created>
    <modified>2021-06-03T17:01:08</modified>
    <unit name="meter" meter="1"/>
    <up_axis>Z_UP</up_axis>
  </asset>
  <library_cameras>
    <camera id="Camera-camera" name="Camera">
      <optics>
        <technique_common>
          <perspective>
            <xfov sid="xfov">39.59775</xfov>
            <aspect_ratio>1.777778</aspect_ratio>
            <znear sid="znear">0.1</znear>
            <zfar sid="zfar">100</zfar>
          </perspective>
        </technique_common>
      </optics>
      <extra>
        <technique profile="blender">
          <shiftx sid="shiftx" type="float">0</shiftx>
          <shifty sid="shifty" type="float">0</shifty>
          <dof_distance sid="dof_distance" type="float">10</dof_distance>
        </technique>
      </extra>
    </camera>
  </library_cameras>
  <library_lights>
    <light id="Light-light" name="Light">
      <technique_common>
        <point>
          <color sid="color">1000 1000 1000</color>
          <constant_attenuation>1</constant_attenuation>
          <linear_attenuation>0</linear_attenuation>
          <quadratic_attenuation>0.00111109</quadratic_attenuation>
        </point>
      </technique_common>
      <extra>
        <technique profile="blender">
          <type sid="type" type="int">0</type>
          <flag sid="flag" type="int">0</flag>
          <mode sid="mode" type="int">1</mode>
          <gamma sid="blender_gamma" type="float">1</gamma>
          <red sid="red" type="float">1</red>
          <green sid="green" type="float">1</green>
          <blue sid="blue" type="float">1</blue>
          <shadow_r sid="blender_shadow_r" type="float">0</shadow_r>
          <shadow_g sid="blender_shadow_g" type="float">0</shadow_g>
          <shadow_b sid="blender_shadow_b" type="float">0</shadow_b>
          <energy sid="blender_energy" type="float">1000</energy>
          <dist sid="blender_dist" type="float">29.99998</dist>
          <spotsize sid="spotsize" type="float">75</spotsize>
          <spotblend sid="spotblend" type="float">0.15</spotblend>
          <att1 sid="att1" type="float">0</att1>
          <att2 sid="att2" type="float">1</att2>
          <falloff_type sid="falloff_type" type="int">2</falloff_type>
          <clipsta sid="clipsta" type="float">0.04999995</clipsta>
          <clipend sid="clipend" type="float">30.002</clipend>
          <bias sid="bias" type="float">1</bias>
          <soft sid="soft" type="float">3</soft>
          <bufsize sid="bufsize" type="int">2880</bufsize>
          <samp sid="samp" type="int">3</samp>
          <buffers sid="buffers" type="int">1</buffers>
          <area_shape sid="area_shape" type="int">1</area_shape>
          <area_size sid="area_size" type="float">0.1</area_size>
          <area_sizey sid="area_sizey" type="float">0.1</area_sizey>
          <area_sizez sid="area_sizez" type="float">1</area_sizez>
        </technique>
      </extra>
    </light>
  </library_lights>
  <library_effects>
    <effect id="Material_001-effect">
      <profile_COMMON>
        <newparam sid="qr_png-surface">
          <surface type="2D">
            <init_from>qr_png</init_from>
          </surface>
        </newparam>
        <newparam sid="qr_png-sampler">
          <sampler2D>
            <source>qr_png-surface</source>
          </sampler2D>
        </newparam>
        <technique sid="common">
          <lambert>
            <emission>
              <color sid="emission">0 0 0 1</color>
            </emission>
            <diffuse>
              <texture texture="qr_png-sampler" texcoord="UVMap"/>
            </diffuse>
            <index_of_refraction>
              <float sid="ior">1.45</float>
            </index_of_refraction>
          </lambert>
        </technique>
      </profile_COMMON>
    </effect>
    <effect id="Material_002-effect">
      <profile_COMMON>
        <technique sid="common">
          <lambert>
            <emission>
              <color sid="emission">0 0 0 1</color>
            </emission>
            <diffuse>
              <color sid="diffuse">0.01170721 0.8000001 0 1</color>
            </diffuse>
            <reflectivity>
              <float sid="specular">0.5</float>
            </reflectivity>
          </lambert>
        </technique>
      </profile_COMMON>
    </effect>
    <effect id="Material_003-effect">
      <profile_COMMON>
        <technique sid="common">
          <lambert>
            <emission>
              <color sid="emission">0 0 0 1</color>
            </emission>
            <diffuse>
              <color sid="diffuse">0.7982973 0.8000001 0 1</color>
            </diffuse>
            <reflectivity>
              <float sid="specular">0.5</float>
            </reflectivity>
          </lambert>
        </technique>
      </profile_COMMON>
    </effect>
    <effect id="Material_004-effect">
      <profile_COMMON>
        <technique sid="common">
          <lambert>
            <emission>
              <color sid="emission">0 0 0 1</color>
            </emission>
            <diffuse>
              <color sid="diffuse">0.8000001 0 7.52623e-4 1</color>
            </diffuse>
            <reflectivity>
              <float sid="specular">0.5</float>
            </reflectivity>
          </lambert>
        </technique>
      </profile_COMMON>
    </effect>
    <effect id="Material_005-effect">
      <profile_COMMON>
        <technique sid="common">
          <lambert>
            <emission>
              <color sid="emission">0 0 0 1</color>
            </emission>
            <diffuse>
              <color sid="diffuse">0 0.01202512 0.8000001 1</color>
            </diffuse>
            <reflectivity>
              <float sid="specular">0.5</float>
            </reflectivity>
          </lambert>
        </technique>
      </profile_COMMON>
    </effect>
  </library_effects>
  <library_images/>
  <library_materials>
    <material id="Material_001-material" name="Material.001">
      <instance_effect url="#Material_001-effect"/>
    </material>
    <material id="Material_002-material" name="Material.002">
      <instance_effect url="#Material_002-effect"/>
    </material>
    <material id="Material_003-material" name="Material.003">
      <instance_effect url="#Material_003-effect"/>
    </material>
    <material id="Material_004-material" name="Material.004">
      <instance_effect url="#Material_004-effect"/>
    </material>
    <material id="Material_005-material" name="Material.005">
      <instance_effect url="#Material_005-effect"/>
    </material>
  </library_materials>
  <library_geometries>
    <geometry id="Sarjdeneme-mesh" name="Sarjdeneme">
      <mesh>
        <source id="Sarjdeneme-mesh-positions">
          <float_array id="Sarjdeneme-mesh-positions-array" count="165">0.315 0.365 0 0.31 0.365 0 0.315 0.415 0 0.31 0.415 0 0.31 0.365 0.000999987 0.315 0.365 0.000999987 0.31 0.415 0.000999987 0.315 0.415 0.000999987 0.285 0.415 0 0.29 0.415 0 0.285 0.365 0 0.29 0.365 0 0.29 0.415 0.000999987 0.285 0.415 0.000999987 0.29 0.365 0.000999987 0.285 0.365 0.000999987 0.3425 0.4913 0.2375 0.299 0.499 0.2375 0.6 0.6 -0.00999999 0 0.49 0 0.6 0.49 -0.00999999 0.6 0.49 0 0 -1.01 0 0 -1.01 -0.00999999 -0.1 0.49 0 -0.1 0.49 -0.00999999 -0.1 -1.11 0 -0.1 -1.11 -0.00999999 0.7 -1.11 0 0.7 -1.11 -0.00999999 0.7 0.49 0 0.7 0.49 -0.00999999 0.6 -1.01 0 0.6 -1.01 -0.00999999 0.18 0 0 0.1299999 -0.4 0 0.18 0 -0.00999999 0.1299999 -0.4 -0.00999999 0.38 0 0 0.38 0 -0.00999999 0.28 -0.3 0 0.28 -0.3 -0.00999999 0.48 -0.3 0 0.48 -0.3 -0.00999999 0.28 -0.7738652 0 0.28 -0.7738652 -0.00999999 0.28 -0.4 0 0.28 -0.4 -0.00999999 0.6 0.51 0.331 0.301 0.5 0.331 0.299 0.5 0.331 0 0.51 0.331 0.6 0.6 0.331 0 0.6 0.331 0.6 0.6 -0.00999999</float_array>
          <technique_common>
            <accessor source="#Sarjdeneme-mesh-positions-array" count="55" stride="3">
              <param name="X" type="float"/>
              <param name="Y" type="float"/>
              <param name="Z" type="float"/>
            </accessor>
          </technique_common>
        </source>
        <source id="Sarjdeneme-mesh-normals">
          <float_array id="Sarjdeneme-mesh-normals-array" count="63">0 0 -1 0 0 1 1 0 0 0 -1 0 0 1 0 -1 0 0 0 0 -1 0 0 -1 0.9922779 -0.1240348 0 0.9922779 -0.1240347 0 -0.9486834 0.3162277 0 -0.9486834 0.3162278 0 -0.9213029 0.3888459 0 0 0 -1 0 0 -1 0.9213029 -0.3888459 0 0.9486834 -0.3162278 0 0.9486834 -0.3162277 0 -0.9922779 0.1240347 0 -0.9922779 0.1240348 0 0 0 -1</float_array>
          <technique_common>
            <accessor source="#Sarjdeneme-mesh-normals-array" count="21" stride="3">
              <param name="X" type="float"/>
              <param name="Y" type="float"/>
              <param name="Z" type="float"/>
            </accessor>
          </technique_common>
        </source>
        <source id="Sarjdeneme-mesh-map-0">
          <float_array id="Sarjdeneme-mesh-map-0-array" count="660">0 0 0 0 0 0 0 0 0 0 0 0 0 0 0 0 0 0 0 0 0 0 0 0 0 0 0 0 0 0 0 0 0 0 0 0 0 0 0 0 0 0 0 0 0 0 0 0 0 0 0 0 0 0 0 0 0 0 0 0 0 0 0 0 0 0 0 0 0 0 0 0 0 0 0 0 0 0 0 0 0 0 0 0 0 0 0 0 0 0 0 0 0 0 0 0 0 0 0 0 0 0 0 0 0 0 0 0 0 0 0 0 0 0 0 0 0 0 0 0 0 0 0 0 0 0 0 0 0 0 0 0 0 0 0 0 0 0 0 0 0 0 0 0 0 0 0 0 0 0 0 0 0 0 0 0 0 0 0 0 0 0 0 0 0 0 0 0 0 0 0 0 0 0 0 0 0 0 0 0 0 0 0 0 0 0 0 0 0 0 0 0 0 0 0 0 0 0 0 0 0 0 0 0 0 0 0 0 0 0 0 0 0 0 0 0 0 0 0 0 0 0 0 0 0 0 0 0 0 0 0 0 0 0 0 0 0 0 0 0 0 0 0 0 0 0 0 0 0 0 0 0 0 0 0 0 0 0 0 0 0 0 0 0 0 0 0 0 0 0 0 0 0 0 0 0 0 0 0 0 0 0 0 0 0 0 0 0 0 0 0 0 0 0 0 0 0 0 0 0 0 0 0 0 0 0 0 0 0 0 0 0 0 0 0 0 0 0 0 0 0 0 0 0 0 0 0 0 0 0 0 0 0 0 0 0 0 0 0 0 0 0 0 0 0 0 0 0 0 0 0 0 0 0 0 0 0 0 0 0 0 0 0 0 0 0 0 0 0 0 0 0 0 0 0 0 0 0 0 0 0 0 0 0 0 0 0 0 0 0 0 0 0 0 0 0 0 0 0 0 0 0 0 0 0 0 0 0 0 0 0 0 0 0 0 0 0 0 0 0 0 0 0 0 0 0 0 0 0 0 0 0 0 0 0 0 0 0 0 0 0 0 0 0 0 0 0 0 0 0 0 0 0 0 0 0 0 0 0 0 0 0 0 0 0 0 0 0 0 0 0 0 0 0 0 0 0 0 0 0 0 0 0 0 0 0 0 0 0 0 0 0 0 0 0 0 0 0 0 0 0 0 0 0 0 0 0 0 0 0 0 0 0 0 0 0 0 0 0 0 0 0 0 0 0 0 0 0 0 0 0 0 0 0 0 0 0 0 0 0 0 0 0 0 0 0 0 0 0 0 0 0 0 0 0 0 0 0 0 0 0 0 0 0 0 0 0 0 0 0 0 0 0 0 0 0 0 0 0 0 0 0 0 0 0 0 0 0 0 0 0 0 0 0 0 0 0 0 0 0 0 0 0 0 0 0 0 0 0 0 0 0 0 0 0 0 0 0 0 0 0 0 0 0 0 0 0 0 0 0 0 0 0 0 0 0 0 0 0 0 0 0 0 0 0 0 0 0 0 0 0 0 0 0 0 0 0 0 0 0</float_array>
          <technique_common>
            <accessor source="#Sarjdeneme-mesh-map-0-array" count="330" stride="2">
              <param name="S" type="float"/>
              <param name="T" type="float"/>
            </accessor>
          </technique_common>
        </source>
        <vertices id="Sarjdeneme-mesh-vertices">
          <input semantic="POSITION" source="#Sarjdeneme-mesh-positions"/>
        </vertices>
        <lines count="2">
          <input semantic="VERTEX" source="#Sarjdeneme-mesh-vertices" offset="0"/>
          <p>50 49 54 18</p>
        </lines>
        <triangles material="Material_001-material" count="88">
          <input semantic="VERTEX" source="#Sarjdeneme-mesh-vertices" offset="0"/>
          <input semantic="NORMAL" source="#Sarjdeneme-mesh-normals" offset="1"/>
          <input semantic="TEXCOORD" source="#Sarjdeneme-mesh-map-0" offset="2" set="0"/>
          <p>0 0 0 1 0 1 2 0 2 2 0 3 1 0 4 3 0 5 4 1 6 5 1 7 6 1 8 6 1 9 5 1 10 7 1 11 7 2 12 5 2 13 2 2 14 2 2 15 5 2 16 0 2 17 5 3 18 4 3 19 0 3 20 0 3 21 4 3 22 1 3 23 6 4 24 7 4 25 3 4 26 3 4 27 7 4 28 2 4 29 4 5 30 6 5 31 1 5 32 1 5 33 6 5 34 3 5 35 8 0 36 9 0 37 10 0 38 10 0 39 9 0 40 11 0 41 12 1 42 13 1 43 14 1 44 14 1 45 13 1 46 15 1 47 13 4 48 12 4 49 8 4 50 8 4 51 12 4 52 9 4 53 12 2 54 14 2 55 9 2 56 9 2 57 14 2 58 11 2 59 15 5 60 13 5 61 10 5 62 10 5 63 13 5 64 8 5 65 14 3 66 15 3 67 11 3 68 11 3 69 15 3 70 10 3 71 21 3 72 19 3 73 20 3 74 24 4 75 19 4 76 25 4 77 26 5 78 24 5 79 27 5 80 27 5 81 24 5 82 25 5 83 28 3 84 26 3 85 29 3 86 29 3 87 26 3 88 27 3 89 30 2 90 28 2 91 31 2 92 31 2 93 28 2 94 29 2 95 21 4 96 30 4 97 20 4 98 20 4 99 30 4 100 31 4 101 32 5 102 21 5 103 33 5 104 33 5 105 21 5 106 20 5 107 22 4 108 32 4 109 23 4 110 23 4 111 32 4 112 33 4 113 33 0 132 27 0 133 23 0 134 23 6 135 27 6 136 25 6 137 20 0 138 31 0 139 33 0 140 33 7 141 31 7 142 29 7 143 33 0 144 29 0 145 27 0 146 34 8 147 35 8 148 36 8 149 36 9 150 35 9 151 37 9 152 38 3 153 34 3 154 39 3 155 39 3 156 34 3 157 36 3 158 40 10 159 38 10 160 41 10 161 41 11 162 38 11 163 39 11 164 42 3 165 40 3 166 43 3 167 43 3 168 40 3 169 41 3 170 44 12 171 42 12 172 45 12 173 45 12 174 42 12 175 43 12 176 46 2 177 44 2 178 47 2 179 47 2 180 44 2 181 45 2 182 35 4 183 46 4 184 37 4 185 37 4 186 46 4 187 47 4 188 22 5 189 19 5 190 23 5 191 32 3 192 22 3 193 33 3 194 33 3 195 22 3 196 23 3 197 21 2 198 32 2 199 20 2 200 20 2 201 32 2 202 33 2 203 47 0 237 45 0 238 37 0 239 37 13 240 45 13 241 23 13 242 23 0 243 45 0 244 33 0 245 33 0 246 45 0 247 43 0 248 33 0 249 43 0 250 20 0 251 20 14 252 43 14 253 39 14 254 43 0 255 41 0 256 39 0 257 44 5 258 46 5 259 45 5 260 45 5 261 46 5 262 47 5 263 42 15 264 44 15 265 43 15 266 43 15 267 44 15 268 45 15 269 40 4 270 42 4 271 41 4 272 41 4 273 42 4 274 43 4 275 38 16 276 40 16 277 39 16 278 39 17 279 40 17 280 41 17 281 34 4 282 38 4 283 36 4 284 36 4 285 38 4 286 39 4 287 35 18 288 34 18 289 37 18 290 37 19 291 34 19 292 36 19 293 46 3 294 35 3 295 47 3 296 47 3 297 35 3 298 37 3 299 37 0 315 41 0 316 47 0 317 47 0 318 41 0 319 43 0 320 47 0 321 43 0 322 45 0 323 37 20 324 36 20 325 41 20 326 41 0 327 36 0 328 39 0 329</p>
        </triangles>
        <triangles material="Material_002-material" count="11">
          <input semantic="VERTEX" source="#Sarjdeneme-mesh-vertices" offset="0"/>
          <input semantic="NORMAL" source="#Sarjdeneme-mesh-normals" offset="1"/>
          <input semantic="TEXCOORD" source="#Sarjdeneme-mesh-map-0" offset="2" set="0"/>
          <p>46 1 204 35 1 205 44 1 206 44 1 207 35 1 208 22 1 209 44 1 210 22 1 211 32 1 212 22 1 213 35 1 214 19 1 215 19 1 216 35 1 217 34 1 218 19 1 219 34 1 220 38 1 221 40 1 222 42 1 223 38 1 224 38 1 225 42 1 226 21 1 227 38 1 228 21 1 229 19 1 230 21 1 231 42 1 232 32 1 233 32 1 234 42 1 235 44 1 236</p>
        </triangles>
        <triangles material="Material_003-material" count="5">
          <input semantic="VERTEX" source="#Sarjdeneme-mesh-vertices" offset="0"/>
          <input semantic="NORMAL" source="#Sarjdeneme-mesh-normals" offset="1"/>
          <input semantic="TEXCOORD" source="#Sarjdeneme-mesh-map-0" offset="2" set="0"/>
          <p>34 1 300 35 1 301 40 1 302 40 1 303 35 1 304 46 1 305 40 1 306 46 1 307 42 1 308 42 1 309 46 1 310 44 1 311 40 1 312 38 1 313 34 1 314</p>
        </triangles>
        <triangles material="Material_005-material" count="6">
          <input semantic="VERTEX" source="#Sarjdeneme-mesh-vertices" offset="0"/>
          <input semantic="NORMAL" source="#Sarjdeneme-mesh-normals" offset="1"/>
          <input semantic="TEXCOORD" source="#Sarjdeneme-mesh-map-0" offset="2" set="0"/>
          <p>22 1 114 28 1 115 32 1 116 32 1 117 28 1 118 30 1 119 32 1 120 30 1 121 21 1 122 19 1 123 24 1 124 22 1 125 22 1 126 24 1 127 26 1 128 22 1 129 26 1 130 28 1 131</p>
        </triangles>
      </mesh>
    </geometry>
  </library_geometries>
  <library_visual_scenes>
    <visual_scene id="Scene" name="Scene">
      <node id="Sarjdeneme" name="Sarjdeneme" type="NODE">
        <matrix sid="transform">1 0 0 0.09999999 0 1 0 -0.5999997 0 0 1 0 0 0 0 1</matrix>
        <instance_geometry url="#Sarjdeneme-mesh" name="Sarjdeneme">
          <bind_material>
            <technique_common>
              <instance_material symbol="Material_001-material" target="#Material_001-material">
                <bind_vertex_input semantic="UVMap" input_semantic="TEXCOORD" input_set="0"/>
              </instance_material>
              <instance_material symbol="Material_002-material" target="#Material_002-material">
                <bind_vertex_input semantic="UVMap" input_semantic="TEXCOORD" input_set="0"/>
              </instance_material>
              <instance_material symbol="Material_003-material" target="#Material_003-material">
                <bind_vertex_input semantic="UVMap" input_semantic="TEXCOORD" input_set="0"/>
              </instance_material>
              <instance_material symbol="Material_004-material" target="#Material_004-material">
                <bind_vertex_input semantic="UVMap" input_semantic="TEXCOORD" input_set="0"/>
              </instance_material>
              <instance_material symbol="Material_005-material" target="#Material_005-material">
                <bind_vertex_input semantic="UVMap" input_semantic="TEXCOORD" input_set="0"/>
              </instance_material>
            </technique_common>
          </bind_material>
        </instance_geometry>
      </node>
      <node id="Camera" name="Camera" type="NODE">
        <matrix sid="transform">0.6859207 -0.3240135 0.6515582 7.358891 0.7276763 0.3054208 -0.6141704 -6.925791 0 0.8953956 0.4452714 4.958309 0 0 0 1</matrix>
        <instance_camera url="#Camera-camera"/>
      </node>
      <node id="Light" name="Light" type="NODE">
        <matrix sid="transform">-0.2908646 -0.7711008 0.5663932 4.076245 0.9551712 -0.1998834 0.2183912 1.005454 -0.05518906 0.6045247 0.7946723 5.903862 0 0 0 1</matrix>
        <instance_light url="#Light-light"/>
      </node>
    </visual_scene>
  </library_visual_scenes>
  <scene>
    <instance_visual_scene url="#Scene"/>
  </scene>
</COLLADA>