<?xml version="1.0" encoding="utf-8"?>
<COLLADA xmlns="http://www.collada.org/2005/11/COLLADASchema" version="1.4.1" xmlns:xsi="http://www.w3.org/2001/XMLSchema-instance">
  <asset>
    <contributor>
      <author>Blender User</author>
      <authoring_tool>Blender 2.83.5 commit date:2020-08-19, commit time:06:07, hash:c2b144df395f</authoring_tool>
    </contributor>
    <created>2020-10-15T13:40:56</created>
    <modified>2020-10-15T13:40:56</modified>
    <unit name="meter" meter="1"/>
    <up_axis>Z_UP</up_axis>
  </asset>
  <library_cameras>
    <camera id="Camera-camera" name="Camera">
      <optics>
        <technique_common>
          <perspective>
            <xfov sid="xfov">39.59775</xfov>
            <aspect_ratio>1.777778</aspect_ratio>
            <znear sid="znear">0.1</znear>
            <zfar sid="zfar">100</zfar>
          </perspective>
        </technique_common>
      </optics>
      <extra>
        <technique profile="blender">
          <shiftx sid="shiftx" type="float">0</shiftx>
          <shifty sid="shifty" type="float">0</shifty>
          <dof_distance sid="dof_distance" type="float">10</dof_distance>
        </technique>
      </extra>
    </camera>
  </library_cameras>
  <library_lights>
    <light id="Light-light" name="Light">
      <technique_common>
        <point>
          <color sid="color">1000 1000 1000</color>
          <constant_attenuation>1</constant_attenuation>
          <linear_attenuation>0</linear_attenuation>
          <quadratic_attenuation>0.00111109</quadratic_attenuation>
        </point>
      </technique_common>
      <extra>
        <technique profile="blender">
          <type sid="type" type="int">0</type>
          <flag sid="flag" type="int">0</flag>
          <mode sid="mode" type="int">1</mode>
          <gamma sid="blender_gamma" type="float">1</gamma>
          <red sid="red" type="float">1</red>
          <green sid="green" type="float">1</green>
          <blue sid="blue" type="float">1</blue>
          <shadow_r sid="blender_shadow_r" type="float">0</shadow_r>
          <shadow_g sid="blender_shadow_g" type="float">0</shadow_g>
          <shadow_b sid="blender_shadow_b" type="float">0</shadow_b>
          <energy sid="blender_energy" type="float">1000</energy>
          <dist sid="blender_dist" type="float">29.99998</dist>
          <spotsize sid="spotsize" type="float">75</spotsize>
          <spotblend sid="spotblend" type="float">0.15</spotblend>
          <att1 sid="att1" type="float">0</att1>
          <att2 sid="att2" type="float">1</att2>
          <falloff_type sid="falloff_type" type="int">2</falloff_type>
          <clipsta sid="clipsta" type="float">0.04999995</clipsta>
          <clipend sid="clipend" type="float">30.002</clipend>
          <bias sid="bias" type="float">1</bias>
          <soft sid="soft" type="float">3</soft>
          <bufsize sid="bufsize" type="int">2880</bufsize>
          <samp sid="samp" type="int">3</samp>
          <buffers sid="buffers" type="int">1</buffers>
          <area_shape sid="area_shape" type="int">1</area_shape>
          <area_size sid="area_size" type="float">0.1</area_size>
          <area_sizey sid="area_sizey" type="float">0.1</area_sizey>
          <area_sizez sid="area_sizez" type="float">1</area_sizez>
        </technique>
      </extra>
    </light>
  </library_lights>
  <library_effects>
    <effect id="Material_001-effect">
      <profile_COMMON>
        <technique sid="common">
          <lambert>
            <emission>
              <color sid="emission">0 0 0 1</color>
            </emission>
            <diffuse>
              <color sid="diffuse">1 1 1 1</color>
            </diffuse>
            <reflectivity>
              <float sid="specular">0.5</float>
            </reflectivity>
          </lambert>
        </technique>
      </profile_COMMON>
    </effect>
    <effect id="Material_002-effect">
      <profile_COMMON>
        <technique sid="common">
          <lambert>
            <emission>
              <color sid="emission">0 0 0 1</color>
            </emission>
            <diffuse>
              <color sid="diffuse">0 0.02268327 1 1</color>
            </diffuse>
            <reflectivity>
              <float sid="specular">0.5</float>
            </reflectivity>
          </lambert>
        </technique>
      </profile_COMMON>
    </effect>
    <effect id="Material_003-effect">
      <profile_COMMON>
        <technique sid="common">
          <lambert>
            <emission>
              <color sid="emission">0 0 0 1</color>
            </emission>
            <diffuse>
              <color sid="diffuse">0.8000001 6.90581e-4 0 1</color>
            </diffuse>
            <reflectivity>
              <float sid="specular">0.5</float>
            </reflectivity>
          </lambert>
        </technique>
      </profile_COMMON>
    </effect>
    <effect id="Material_004-effect">
      <profile_COMMON>
        <technique sid="common">
          <lambert>
            <emission>
              <color sid="emission">0 0 0 1</color>
            </emission>
            <diffuse>
              <color sid="diffuse">0 0.8000001 0.7915939 1</color>
            </diffuse>
            <reflectivity>
              <float sid="specular">0.5</float>
            </reflectivity>
          </lambert>
        </technique>
      </profile_COMMON>
    </effect>
    <effect id="Material_005-effect">
      <profile_COMMON>
        <technique sid="common">
          <lambert>
            <emission>
              <color sid="emission">0 0 0 1</color>
            </emission>
            <diffuse>
              <color sid="diffuse">0.3972214 0.09938998 0.08227843 1</color>
            </diffuse>
            <reflectivity>
              <float sid="specular">0.5</float>
            </reflectivity>
          </lambert>
        </technique>
      </profile_COMMON>
    </effect>
  </library_effects>
  <library_images/>
  <library_materials>
    <material id="Material_001-material" name="Material.001">
      <instance_effect url="#Material_001-effect"/>
    </material>
    <material id="Material_002-material" name="Material.002">
      <instance_effect url="#Material_002-effect"/>
    </material>
    <material id="Material_003-material" name="Material.003">
      <instance_effect url="#Material_003-effect"/>
    </material>
    <material id="Material_004-material" name="Material.004">
      <instance_effect url="#Material_004-effect"/>
    </material>
    <material id="Material_005-material" name="Material.005">
      <instance_effect url="#Material_005-effect"/>
    </material>
  </library_materials>
  <library_geometries>
    <geometry id="Atolyegercek-mesh" name="Atolyegercek">
      <mesh>
        <source id="Atolyegercek-mesh-positions">
          <float_array id="Atolyegercek-mesh-positions-array" count="2367">7.34 0.01999998 0.85 7.34 0.01999998 0 9.100001 0.01999998 0.85 9.100001 0.01999998 0 7.3 0.01999998 0 7.3 0.01999998 0.85 5.54 0.01999998 0 5.54 0.01999998 0.85 3.7 0.01999998 0 3.7 0.01999998 0.85 1.94 0.01999998 0 1.94 0.01999998 0.85 0.03999996 0.01999998 0.85 0.03999996 0.01999998 0 1.9 0.01999998 0.85 1.9 0.01999998 0 7.34 0.03999996 0.85 9.100001 0.03999996 0.85 7.3 0.03999996 0.85 5.54 0.03999996 0.85 3.7 0.03999996 0.85 1.94 0.03999996 0.85 0.03999996 0.03999996 0.85 1.9 0.03999996 0.85 3.74 0.01999998 0.85 5.5 0.01999998 0.85 3.74 0.03999996 0.85 5.5 0.03999996 0.85 3.74 0.01999998 0 5.5 0.01999998 0 3.74 0 0 3.74 0 1.17 3.74 0.03999996 1.17 0.03999996 0 0 0.03999996 0 1.17 0.03999996 0.03999996 1.17 1.94 0 0 1.94 0 1.17 1.94 0.03999996 1.17 9.100001 5.64 0.85 9.100001 7.4 0.85 9.100001 7.44 0 9.100001 7.4 1.17 9.100001 7.4 1.25 9.100001 5.64 1.17 9.100001 5.64 1.25 9.100001 5.6 1.17 9.100001 5.6 1.25 9.100001 3.84 1.17 9.100001 3.84 1.25 9.100001 3.8 1.17 9.100001 3.8 1.25 9.100001 2.04 1.17 9.100001 2.04 1.25 9.100001 2 1.17 9.100001 2 1.25 9.100001 0.03999996 1.17 9.100001 0.03999996 1.25 9.100001 5.6 0.85 9.100001 5.64 2.4 9.100001 5.6 2.4 9.100001 7.44 2.48 9.100001 3.84 2.4 9.100001 3.8 2.4 9.100001 7.4 2.4 9.100001 0.03999996 2.48 9.100001 2.04 2.4 9.100001 2 2.4 9.100001 3.84 0.85 9.100001 3.8 0.85 9.100001 2 0.85 9.100001 2.04 0.85 9.100001 0.03999996 0 9.100001 0.03999996 2.4 7.34 0 0 7.34 0 1.17 7.34 0.03999996 1.17 0 0.03999996 0 5.54 0.03999996 1.17 5.5 0.03999996 1.17 5.54 0.03999996 1.25 5.5 0.03999996 1.25 5.54 0.03999996 2.4 5.5 0.03999996 2.4 3.74 0.03999996 2.4 0 0.03999996 2.48 3.7 0.03999996 2.4 1.94 0.03999996 2.4 0.03999996 0.03999996 1.25 7.34 0.03999996 2.4 7.3 0.03999996 2.4 7.3 0.03999996 1.25 7.34 0.03999996 1.25 7.3 0.03999996 1.17 3.7 0.03999996 1.17 3.7 0.03999996 1.25 3.74 0.03999996 1.25 1.9 0.03999996 1.17 1.94 0.03999996 1.25 1.9 0.03999996 1.25 1.9 0.03999996 2.4 0.03999996 0.03999996 2.4 5.54 0 0 5.54 0 1.17 9.12 3.8 0 9.12 3.8 0.85 9.12 2.04 0 9.12 2.04 0.85 9.12 2 0 9.12 2 0.85 9.12 0.03999996 0 9.12 0.03999996 0.85 9.12 3.84 0.85 9.12 3.84 0 9.12 5.6 0.85 9.12 5.6 0 9.12 7.4 0.85 9.12 5.64 0.85 9.12 7.4 0 9.12 5.64 0 9.640001 7.44 1.25 9.140001 7.44 1.17 9.140001 7.44 1.25 9.640001 7.44 2.4 9.680001 7.44 2.48 9.680001 7.44 0 9.640001 7.44 1.17 9.640001 7.44 0 9.140001 7.44 2.4 9.140001 7.44 0 9.140001 3.84 0 9.140001 3.84 1.17 9.140001 2.04 0 9.140001 2.04 1.17 9.140001 5.64 0 9.140001 5.64 1.17 5.5 -0.54 1.25 5.5 -0.5 1.25 3.74 -0.54 1.25 3.74 -0.5 1.25 5.5 0 1.25 3.74 0 1.25 5.54 0 1.25 5.54 -0.5 1.25 7.3 0 1.25 7.3 -0.5 1.25 7.34 0 1.25 7.34 -0.5 1.25 9.100001 0 1.25 9.100001 -0.5 1.25 9.140001 0 1.25 9.140001 -0.5 1.25 9.640001 0 1.25 9.640001 -0.5 1.25 9.680001 0 1.25 9.680001 -0.5 1.25 5.54 -0.54 1.25 7.3 -0.54 1.25 7.34 -0.54 1.25 9.100001 -0.54 1.25 9.140001 -0.54 1.25 9.640001 -0.54 1.25 9.640001 0.03999996 1.25 9.140001 0.03999996 1.25 9.640001 2 1.25 9.140001 2 1.25 9.640001 2.04 1.25 9.140001 2.04 1.25 9.640001 3.8 1.25 9.140001 3.8 1.25 9.640001 3.84 1.25 9.140001 3.84 1.25 9.640001 5.6 1.25 9.140001 5.6 1.25 9.640001 5.64 1.25 9.140001 5.64 1.25 9.640001 7.4 1.25 9.140001 7.4 1.25 9.680001 0.03999996 1.25 9.680001 2 1.25 9.680001 2.04 1.25 9.680001 3.8 1.25 9.680001 3.84 1.25 9.680001 5.6 1.25 9.680001 5.64 1.25 9.680001 7.4 1.25 3.7 -0.5 1.25 3.7 0 1.25 1.94 -0.5 1.25 1.94 0 1.25 1.9 -0.5 1.25 1.9 0 1.25 0.03999996 -0.5 1.25 0.03999996 0 1.25 0 -0.5 1.25 0 0 1.25 0.03999996 -0.54 1.25 1.9 -0.54 1.25 1.94 -0.54 1.25 3.7 -0.54 1.25 5.5 -0.54 1.17 3.74 -0.5 1.17 5.5 -0.5 1.17 5.5 0 1.17 3.74 -0.54 1.17 3.7 0 1.17 3.7 -0.5 1.17 1.94 -0.5 1.17 1.9 0 1.17 1.9 -0.5 1.17 0.03999996 -0.5 1.17 0 0 1.17 0 -0.5 1.17 3.7 -0.54 1.17 1.94 -0.54 1.17 1.9 -0.54 1.17 0.03999996 -0.54 1.17 5.54 -0.5 1.17 7.3 -0.5 1.17 7.3 0 1.17 7.34 -0.5 1.17 9.100001 -0.5 1.17 9.100001 0 1.17 9.140001 -0.5 1.17 9.140001 0 1.17 9.640001 -0.5 1.17 9.640001 0 1.17 9.680001 -0.5 1.17 9.680001 0 1.17 9.140001 0.03999996 1.17 9.640001 0.03999996 1.17 9.140001 2 1.17 9.640001 2 1.17 9.640001 2.04 1.17 9.140001 3.8 1.17 9.640001 3.8 1.17 9.640001 3.84 1.17 9.140001 5.6 1.17 9.640001 5.6 1.17 9.640001 5.64 1.17 9.140001 7.4 1.17 9.640001 7.4 1.17 9.680001 7.4 1.17 9.680001 5.64 1.17 9.680001 5.6 1.17 9.680001 3.84 1.17 9.680001 3.8 1.17 9.680001 2.04 1.17 9.680001 2 1.17 9.680001 0.03999996 1.17 9.640001 -0.54 1.17 9.140001 -0.54 1.17 9.100001 -0.54 1.17 7.34 -0.54 1.17 7.3 -0.54 1.17 5.54 -0.54 1.17 5.54 -0.5 0 5.5 -0.5 0 5.5 -0.54 0 5.5 -0.54 2.4 5.5 -0.5 2.4 5.54 -0.54 0 7.34 -0.5 0 7.3 -0.5 0 7.3 -0.54 0 7.3 -0.54 2.4 7.3 -0.5 2.4 7.34 -0.5 2.4 7.34 -0.54 2.4 7.34 -0.54 0 1.94 -0.5 0 1.9 -0.5 0 1.9 -0.5 2.4 1.94 -0.5 2.4 1.94 -0.54 0 1.9 -0.54 2.4 3.74 -0.5 0 3.7 -0.5 0 3.7 -0.54 0 3.7 -0.54 2.4 3.7 -0.5 2.4 3.74 -0.5 2.4 3.74 -0.54 2.4 3.74 -0.54 0 0.03999996 -0.54 0 0.03999996 -0.5 0 0.03999996 -0.5 2.4 0.03999996 -0.54 2.4 0 -0.5 2.4 3.7 0 0 3.74 0 2.4 0 0 0 0.03999996 0 2.4 0 0 2.4 0 -0.54 0 0 -0.54 2.48 0 -0.5 0 1.9 0 0 1.94 0 2.4 9.100001 0 0 9.140001 0 0 9.140001 0.03999996 0 9.140001 0.03999996 2.4 9.140001 0 2.4 9.100001 0 2.4 9.140001 3.8 0 9.140001 3.84 2.4 9.140001 3.8 2.4 9.140001 7.4 2.4 9.640001 3.84 0 9.640001 3.8 0 9.680001 3.8 0 9.680001 3.8 2.4 9.640001 3.8 2.4 9.640001 3.84 2.4 9.680001 3.84 2.4 9.680001 3.84 0 9.640001 -0.54 2.4 9.640001 -0.5 2.4 9.640001 -0.5 0 9.640001 -0.54 0 9.680001 -0.5 0 9.640001 7.4 0 9.640001 7.4 2.4 9.680001 7.4 2.4 9.680001 2.04 0 9.640001 2.04 0 9.640001 2 0 9.680001 2 0 9.680001 2 2.4 9.640001 2 2.4 9.640001 2.04 2.4 9.680001 5.64 0 9.640001 5.64 0 9.640001 5.6 0 9.680001 5.6 0 9.680001 5.6 2.4 9.640001 5.6 2.4 9.640001 5.64 2.4 9.140001 2 0 9.140001 2.04 2.4 9.140001 2 2.4 7.3 0 0 7.34 0 2.4 7.3 0 2.4 9.680001 5.64 2.4 9.680001 7.4 0 9.680001 -0.54 2.48 9.680001 2.04 2.4 9.680001 -0.54 0 9.680001 -0.5 2.4 9.680001 0 2.4 9.680001 0 0 9.680001 0.03999996 0 9.680001 0.03999996 2.4 9.640001 0.03999996 0 9.640001 0 0 9.640001 0 2.4 9.640001 0.03999996 2.4 9.140001 -0.54 0 9.140001 -0.5 0 9.100001 -0.5 0 9.100001 -0.54 0 9.100001 -0.54 2.4 9.100001 -0.5 2.4 9.140001 -0.5 2.4 5.5 0 0 5.54 0 2.4 5.5 0 2.4 9.140001 5.6 0 9.140001 5.64 2.4 9.140001 5.6 2.4 5.54 -0.5 2.4 5.54 -0.54 2.4 1.9 -0.54 0 9.140001 -0.54 2.4 1.94 -0.54 2.4 3.7 0 2.4 1.9 0 2.4 9.140001 7.4 0 5.78 7.08 -0.1 5.78 5.28 -0.1 5.78 7.08 0 5.78 5.28 0 4.98 7.08 -0.1 4.98 7.08 0 4.98 5.28 -0.1 4.98 5.28 0 1.88 7.015 -0.1 1.88 5.215 -0.1 1.88 7.015 0 1.88 5.215 0 1.08 7.015 -0.1 1.08 7.015 0 1.08 5.215 -0.1 1.08 5.215 0 6.019859 1.8 -0.1 6.019859 3.6 -0.1 6.019859 1.8 0 6.019859 3.6 0 6.82 1.8 -0.1 6.82 1.8 0 6.82 3.6 -0.1 6.82 3.6 0 3.96 6.61 -0.1 3.96 4.81 -0.1 3.96 6.61 0 3.96 4.81 0 3.16 6.61 -0.1 3.16 6.61 0 3.16 4.81 -0.1 3.16 4.81 0 3.9 0.57 -0.1 2.1 0.57 -0.1 3.9 0.57 0 2.1 0.57 0 3.9 1.37 -0.1 3.9 1.37 0 2.1 1.37 -0.1 2.1 1.37 0 -1.45 0.54 0 0 -0.55 0 -1.65 0.54 0 -3.1 -0.55 0 -1.65 0.74 0 -1.65 1.54 0 -1.45 0.74 0 -1.45 1.54 0 -1.45 1.74 0 -1.65 1.74 0 -3.1 7.45 0 0.01999998 0 0 0.01999998 -0.55 0 9.7 -0.55 0 9.7 7.45 0 -3.1 7.65 -0.1 -3.1 -0.55 -0.1 0 -0.55 -0.1 0 -0.75 -0.1 9.9 -0.75 -0.1 9.9 7.65 -0.1 -2.2 0.55 0.55 -2.05 0.54 0.55 -2.2 0.6 0.55 -2.194083 1.670809 0.55 -2.244002 1.670809 0.55 -2.35 0.54 0.55 -2.25 0.55 0.55 -2.25 0.6 0.55 -2.35 1.74 0.55 -2.244002 1.720815 0.55 -2.194083 1.720815 0.55 -2.05 1.74 0.55 -3.05 0.6 1.15 -3.076389 1.670809 1.15 -3.1 0.6 1.15 -3.12 1.74 1.15 -3.12 0.54 1.15 -3.05 0.55 1.15 -2.95 0.54 1.15 -3.02647 1.670809 1.15 -3.1 0.55 1.15 -2.95 1.74 1.15 -3.02647 1.720815 1.15 -3.076389 1.720815 1.15 -1.47188 0.6 0.15 -1.521886 1.670809 0.15 -1.521886 0.6 0.15 -1.75 0.54 0.15 -1.521886 0.55 0.15 -1.45 0.54 0.15 -1.47188 0.55 0.15 -1.47188 1.670809 0.15 -1.75 1.74 0.15 -1.521886 1.720815 0.15 -1.45 1.74 0.15 -1.47188 1.720815 0.15 -3.12 0.54 0.5 -3.12 1.74 0.5 -3.12 0.54 1.1 -3.12 1.74 1.1 -3.12 0.54 1.3 -3.12 1.74 1.3 -3.27 1.74 0 -3.27 0.54 0 -3.27 1.74 1.3 -3.27 0.54 1.3 -3.12 1.74 0 -3.12 0.54 0 -2.964876 0.54 1.1 -2.964876 0.54 0.9 -2.95 0.54 0.95 -2.664876 0.54 0.9 -2.65 0.54 0.95 -2.65 0.54 0.75 -2.664876 0.54 0.7 -2.364876 0.54 0.7 -2.364876 0.54 0.5 -2.35 0.54 0.75 -2.064876 0.54 0.5 -2.05 0.54 0.35 -2.064876 0.54 0.3 -1.764876 0.54 0.3 -1.764876 0.54 0.1 -1.75 0.54 0.35 -1.65 0.54 0.1 -2.964876 1.74 1.1 -1.65 1.74 0.1 -1.65 1.54 0.1 -1.45 1.54 0.1 -1.65 0.74 0.1 -1.45 0.74 0.1 -1.764876 1.74 0.1 -2.064876 1.74 0.3 -2.064876 1.74 0.5 -2.05 1.74 0.35 -1.75 1.74 0.35 -1.764876 1.74 0.3 -2.364876 1.74 0.5 -2.364876 1.74 0.7 -2.664876 1.74 0.7 -2.664876 1.74 0.9 -2.35 1.74 0.75 -2.65 1.74 0.75 -2.964876 1.74 0.9 -2.65 1.74 0.95 -2.95 1.74 0.95 0 0 0.85 0.01999998 0 0.85 0.01999998 -0.55 0.85 0 -0.55 0.85 0 -0.55 4 9.7 -0.55 4 0 -0.55 0.5 -3.1 -0.55 0.5 -3.1 7.45 0.5 9.7 7.45 4 -3.1 7.45 4 0 -0.57 0.5 0 -0.57 -0.04999995 0 -0.55 -0.04999995 0 -0.75 4 -3.1 7.65 4 9.9 7.65 4 9.9 -0.75 4 -3.1 -0.55 -0.04999995 -3.12 -0.57 -0.04999995 -3.12 7.45 -0.04999995 -3.1 7.45 -0.04999995 -3.12 -0.57 0.5 -3.12 7.45 0.5 -1.521886 1.670809 0.9470762 -1.507097 1.670809 0.97 -1.47188 1.670809 0.97 -1.521886 1.720815 0.9470762 -1.507097 1.720815 0.97 -1.47188 1.720815 0.97 -2.194083 1.672791 1.35 -2.207243 1.683535 1.35 -2.194083 1.670809 1.35 -2.244002 1.670809 1.35 -2.213412 1.695991 1.35 -2.244002 1.720815 1.35 -2.213644 1.70246 1.35 -2.211949 1.708864 1.35 -2.203006 1.720815 1.35 -2.194083 1.720815 1.344244 -2.194083 1.708864 1.338474 -2.194083 1.695991 1.33753 -2.194083 1.683535 1.34151 -2.305843 1.734641 1.433194 -1.918343 1.734641 1.183194 -1.92628 1.72 1.170891 -1.533836 1.7308 0.9285539 -1.538722 1.720183 0.9209805 -2.31378 1.72 1.420891 -2.316685 1.7 1.416388 -2.31378 1.68 1.420891 -1.926292 1.680037 1.170873 -1.921695 1.669761 1.177998 -2.309419 1.670123 1.427651 -2.305843 1.665359 1.433194 -2.693342 1.665359 1.683194 -2.6825 1.66 1.7 -3.07 1.66 1.95 -3.059157 1.665359 1.966806 -2.671658 1.665359 1.716806 -3.05122 1.68 1.979109 -2.66372 1.68 1.729109 -3.048315 1.7 1.983612 -2.660815 1.7 1.733612 -3.05122 1.72 1.979109 -2.66372 1.72 1.729109 -3.059157 1.734641 1.966806 -2.671658 1.734641 1.716806 -3.07 1.74 1.95 -2.6825 1.74 1.7 -3.080842 1.734641 1.933194 -2.693342 1.734641 1.683194 -3.02647 1.720815 1.881267 -2.70128 1.72 1.670891 -3.02647 1.708181 1.87532 -2.704185 1.7 1.666388 -3.02647 1.694603 1.874749 -2.70128 1.68 1.670891 -3.02647 1.681647 1.87962 -3.02647 1.670809 1.889371 -2.697757 1.671575 1.676351 -2.69714 1.670492 1.677308 -1.929185 1.7 1.166388 -1.541369 1.693193 0.9168784 -1.541339 1.707119 0.9169248 -3.080842 1.665359 1.933194 -3.08878 1.68 1.920891 -3.076389 1.670809 1.921577 -3.091685 1.7 1.916388 -3.076389 1.694603 1.906955 -3.076389 1.681647 1.911826 -3.076389 1.708181 1.907526 -3.08878 1.72 1.920891 -3.076389 1.720815 1.913473 -1.527435 1.662424 0.9384763 -1.52 1.66 0.95 -1.9075 1.66 1.2 -1.51631 1.660583 0.95572 -1.512727 1.662317 0.9612731 -1.896657 1.665359 1.216806 -1.509357 1.665149 0.9664973 -1.506297 1.668999 0.9712402 -1.88872 1.68 1.229109 -1.501365 1.679544 0.9788841 -1.498692 1.692569 0.9830268 -1.885815 1.7 1.233612 -1.498603 1.706494 0.9831659 -1.88872 1.72 1.229109 -1.501107 1.719633 0.9792848 -1.505901 1.730391 0.9718538 -1.896657 1.734641 1.216806 -1.512404 1.737466 0.9617737 -1.9075 1.74 1.2 -1.519828 1.739999 0.9502665 -1.527273 1.737683 0.938727 -1.538808 1.680092 0.9208469 -1.533968 1.669404 0.9283494 -1.918343 1.665359 1.183194 -2.295 1.66 1.45 -2.284157 1.665359 1.466806 -2.31075 1.672505 1.425588 -2.295 1.74 1.45 -2.284157 1.734641 1.466806 -2.27622 1.72 1.479109 -2.273315 1.7 1.483612 -2.27622 1.68 1.479109 -3.07 1.670809 1.95 -3.076389 1.670809 1.940097 -3.076389 1.720815 1.940097 -3.07 1.720815 1.95 -3.076389 1.720815 1.95 -3.076389 1.670809 1.95 -2.2 0.5605928 1.342443 -1.92628 0.55 1.170891 -2.2 0.55 1.347485 -1.918343 0.535359 1.183194 -2.305843 0.535359 1.433194 -2.295 0.53 1.45 -2.6825 0.53 1.7 -2.671658 0.535359 1.716806 -3.061034 0.5335792 1.963897 -3.052781 0.5456849 1.976689 -2.66372 0.55 1.729109 -3.0486 0.5635392 1.98317 -2.660815 0.57 1.733612 -3.049477 0.5829209 1.98181 -2.66372 0.59 1.729109 -3.055207 0.5992478 1.972929 -2.671658 0.604641 1.716806 -3.064434 0.60866 1.958627 -2.6825 0.61 1.7 -3.074977 0.6089322 1.942286 -2.693342 0.604641 1.683194 -3.084343 0.6 1.927768 -3.05 0.6 1.905611 -2.70128 0.59 1.670891 -3.05 0.5893574 1.89544 -3.05 0.5764608 1.89012 -2.704185 0.57 1.666388 -3.05 0.5628119 1.890269 -2.70128 0.55 1.670891 -3.05 0.55 1.895872 -3.081446 0.536026 1.932259 -3.08878 0.55 1.920891 -1.929185 0.57 1.166388 -2.2 0.5719509 1.341164 -2.2 0.5831503 1.343753 -1.92628 0.59 1.170891 -2.2 0.5932799 1.35 -1.918343 0.604641 1.183194 -2.305843 0.604641 1.433194 -1.9075 0.61 1.2 -2.295 0.61 1.45 -1.896657 0.604641 1.216806 -2.284157 0.604641 1.466806 -1.88872 0.59 1.229109 -2.27622 0.59 1.479109 -1.885815 0.57 1.233612 -2.273315 0.57 1.483612 -1.88872 0.55 1.229109 -2.27622 0.55 1.479109 -1.896657 0.535359 1.216806 -2.284157 0.535359 1.466806 -1.9075 0.53 1.2 -2.31378 0.59 1.420891 -2.209682 0.5831503 1.35 -2.316685 0.57 1.416388 -2.213696 0.5719509 1.35 -2.211714 0.5605928 1.35 -2.203898 0.55 1.35 -2.31378 0.55 1.420891 -1.529947 0.5344564 0.9345821 -1.52 0.53 0.95 -1.513408 0.5318928 0.9602172 -1.50744 0.5373921 0.9694675 -1.502661 0.5459775 0.9768753 -1.499523 0.5568363 0.9817396 -1.498322 0.5689409 0.9836001 -1.499174 0.5811458 0.9822806 -1.501996 0.5922959 0.9779061 -1.506522 0.6013358 0.9708906 -1.515816 0.6092485 0.9564849 -1.526042 0.6084158 0.9406342 -1.534922 0.5990232 0.9268704 -1.540477 0.5831637 0.9182604 -1.541469 0.5643711 0.9167226 -1.537678 0.5468327 0.9225997 -3.071406 0.5300842 1.94782 -2.693342 0.535359 1.683194 -1.521886 0.55 0.9470762 -1.521886 0.6 0.9470762 -1.507097 0.6 0.97 -1.507097 0.55 0.97 -3.07 0.55 1.95 -3.07 0.6 1.95 -3.1 0.6 1.95 -3.1 0.55 1.95 -1.47188 0.6 0.97 -1.47188 0.55 0.97 -2.25 0.55 1.35 -2.25 0.6 1.35 -2.2 0.6 1.35 5.08 5.38 0 5.08 6.98 0 5.08 5.38 -0.1 5.08 6.98 -0.1 5.68 5.38 0 5.68 5.38 -0.1 5.68 6.98 0 5.68 6.98 -0.1 3.26 4.91 0 3.26 6.51 0 3.26 4.91 -0.1 3.26 6.51 -0.1 3.86 4.91 0 3.86 4.91 -0.1 3.86 6.51 0 3.86 6.51 -0.1 6.72 3.5 0 6.72 1.9 0 6.72 3.5 -0.1 6.72 1.9 -0.1 6.119859 3.5 0 6.119859 3.5 -0.1 6.119859 1.9 0 6.119859 1.9 -0.1 1.18 5.315 0 1.18 6.915 0 1.18 5.315 -0.1 1.18 6.915 -0.1 1.78 5.315 0 1.78 5.315 -0.1 1.78 6.915 0 1.78 6.915 -0.1 2.2 1.27 0 3.8 1.27 0 2.2 1.27 -0.1 3.8 1.27 -0.1 2.2 0.67 0 2.2 0.67 -0.1 3.8 0.67 0 3.8 0.67 -0.1</float_array>
          <technique_common>
            <accessor source="#Atolyegercek-mesh-positions-array" count="789" stride="3">
              <param name="X" type="float"/>
              <param name="Y" type="float"/>
              <param name="Z" type="float"/>
            </accessor>
          </technique_common>
        </source>
        <source id="Atolyegercek-mesh-normals">
          <float_array id="Atolyegercek-mesh-normals-array" count="1332">0 -1 0 0 0 1 1 0 0 1 -2.03777e-5 0 -1 0 0 -1 3.72529e-5 0 -1 -4.47035e-4 0 1 2.03777e-5 0 0 1 0 0 1 0 0 1 0 0 1 0 0 1 -2.11664e-7 0 1 0 0 1 7.27597e-7 0 1 7.27611e-7 1 -1.01888e-5 0 0 1 -2.56918e-6 0 1 1.16418e-6 0 0 1 0 0 -1 0 0 -1 -1 0 0 -1 0 0 -1 0 0 -1 0 0 -1 0 0 -1 0 0 0 -1 -2.32835e-6 1 4.14641e-5 0 1 1.86264e-4 0 1 -4.14641e-5 0 0 -1 8.46658e-7 0 -1 -1.7462e-5 0 -1 -6.15751e-7 0 -1 3.38663e-6 0 -1 4.23329e-7 0 -1 1.16418e-6 0 -1 -8.46658e-7 0 0 -1 0 -1 4.65671e-6 8.24194e-7 0 1 0 0 1 0 0 1 0 0 1 0 0 1 0 0 1 0 0 1 0 0 1 0 0 1 0 0 1 0 0 1 0 0 1 0 0 1 0 0 1 0 0 1 0 0 -1 0 0 -1 0 0 -1 0 0 -1 0 0 -1 0 0 -1 0 0 -1 0 0 -1 0 0 -1 0 0 -1 0 0 -1 0 0 -1 0 0 -1 -7.40539e-7 0 1 7.45058e-7 0 1 3.92418e-7 0 1 3.51406e-7 0 1 -5.17035e-7 0 1 6.89469e-7 0 1 3.08307e-6 0 1 -2.19756e-6 0 1 -7.45058e-6 0 1 9.7418e-7 0 1 9.74309e-7 0 1 0 0 1 0 0 1 0 0 1 -8.51191e-7 0 1 2.83768e-7 0 1 0 -1 -1.98682e-6 0 -1 1.11759e-6 0 -1 -1.98682e-6 0 -1 1.11759e-6 0 -1 -1.98682e-6 0 -1 1.98682e-6 0 0 -1 0 0 -1 0 1 -7.01235e-6 4.96706e-6 0 1 0 1 1.81699e-7 1.42816e-4 0 1 -6.94522e-6 0 1 4.87059e-6 0 1 -8.2588e-6 0 1 0 1 -3.73137e-7 1 2.51174e-5 0 1 -2.22264e-5 0 1 2.08637e-5 0 1 -1.03813e-5 0 -0.3787855 0.7154443 -0.5870785 -0.378773 0.715429 -0.5871051 -0.3827233 0.7071121 -0.5945716 -0.3855101 0.7070978 -0.5927856 -0.413358 0.6471582 -0.6405635 -0.3848441 0.7070964 -0.5932198 -0.5015832 0.3753339 -0.7794479 -0.5326545 0.2588083 -0.8057899 -0.5384938 0.1424911 -0.8304944 -0.5411553 -0.01937878 -0.8406995 -0.5294172 -0.2588101 -0.80792 -0.5286215 -0.2618185 -0.8074716 -0.4496429 -0.5507203 -0.7032271 -0.4529445 -0.552754 -0.699503 -0.4168914 -0.6364118 -0.6489851 -0.3784194 -0.7158945 -0.5867657 -0.3175072 -0.8106938 -0.4918994 -0.3174202 -0.8106819 -0.4919751 -0.1403138 -0.9659255 -0.2174855 0.1403154 -0.9659247 0.2174882 0.1403158 -0.9659218 0.2175008 0.383342 -0.707112 0.5941729 0.3833374 -0.7071036 0.594186 0.5236557 -0.2588112 0.8116658 0.5236577 -0.2588206 0.8116616 0.5236518 0.2588233 0.8116646 0.5236572 0.2588094 0.8116655 0.3833419 0.7071059 0.5941802 0.3833424 0.7071069 0.5941789 0.1403127 0.9659277 0.2174764 0.1403133 0.9659259 0.2174842 -0.140309 0.9659268 -0.217483 -0.1403105 0.9659275 -0.2174792 -0.3787695 0.7154353 -0.5870996 -0.3828358 0.7071056 -0.5945069 -0.5044718 0.3677226 -0.7812094 -0.5208028 0.2588059 -0.8135011 -0.5430086 0.03531098 -0.8389844 -0.5213651 -0.2588195 -0.8131366 -0.5161271 -0.30144 -0.801715 -0.4331513 -0.6028207 -0.6700652 -0.4296138 -0.6107468 -0.6651469 -0.3737534 -0.7243018 -0.5793921 -0.373765 -0.7243865 -0.5792789 -0.3205224 -0.8066286 -0.4966043 -0.5213446 -0.2597213 -0.8128621 -0.5214886 -0.2582999 -0.8132226 -0.5259036 -0.2582949 -0.8103759 -0.5410146 0.003972291 -0.841004 -0.5258827 0.258818 -0.8102225 -0.5084637 0.3465654 -0.7882621 -0.5422942 0.06145757 -0.837938 -0.5201026 0.258818 -0.8139451 -0.5027592 0.3758124 -0.7784591 -0.140312 -0.9659264 -0.2174829 -0.3204291 -0.8066207 -0.4966773 -0.4912663 -0.7008828 -0.5171275 -0.3229807 -0.8031521 -0.5006299 -0.3234966 -0.802599 -0.5011834 -0.5715016 -0.2583839 -0.7788606 -0.5378603 -0.2966912 -0.7891011 -0.4141457 -0.6087827 -0.6766588 -0.515345 0.0360139 -0.8562259 -0.58395 0.2581253 -0.7696583 -0.4950236 0.370042 -0.7861428 -0.3969412 0.707011 -0.5852976 -0.3787713 0.7154269 -0.5871089 -0.09437429 -0.9847274 -0.1463062 0.0463044 -0.9963452 0.07177984 0.1354165 -0.9672796 0.2145527 0.1380654 -0.9659193 0.2189477 0.2247006 -0.9100059 0.3484236 0.3055167 -0.8261579 0.4734163 0.3812313 -0.7071099 0.595532 0.4103217 -0.653185 0.6363848 0.5071867 -0.3539989 0.7857777 0.5213719 -0.2588213 0.8131317 0.543189 -0.01188254 0.8395265 0.5215272 0.2588193 0.8130325 0.5113026 0.3316451 0.7928311 0.4189329 0.6350012 0.6490523 0.3810746 0.7071066 0.5956363 0.2765057 0.8613568 0.4261562 0.1381633 0.9659253 0.2188588 0.09850013 0.9833209 0.1528984 -0.09003943 0.9860793 -0.1397881 -0.1425598 0.9659271 -0.2160127 -0.2668396 0.8693132 -0.4160426 -0.5100247 -0.3391214 -0.7904882 -0.4181425 -0.6364022 -0.6481891 -0.4158965 -0.6411134 -0.6449836 -0.3144686 -0.8146659 -0.4872669 -0.3143699 -0.8146729 -0.4873189 -0.1403154 -0.9659247 -0.2174882 0.1403158 -0.9659274 0.2174763 -0.2705734 -0.8653625 -0.421827 -0.1425135 -0.9659261 -0.2160485 0.1403138 -0.9659255 0.2174855 0.1403171 -0.9659239 0.2174907 -0.4348684 -0.5977968 -0.6734453 -0.4345953 -0.5977733 -0.6736424 -0.523654 -0.2588229 -0.8116633 -0.5236529 -0.2588152 -0.8116665 -0.5236518 0.2588233 -0.8116646 -0.5236556 0.2588183 -0.8116637 -0.3833453 0.7070997 -0.5941855 -0.3833417 0.707108 -0.5941779 -0.1403095 0.9659294 -0.2174711 -0.1403129 0.9659262 -0.2174828 0.1403118 0.965927 0.2174804 0.3833414 0.7071051 0.5941817 0.5236568 0.258826 0.8116605 0.5236551 0.2588165 0.8116647 0.523654 -0.2588229 0.8116633 0.5236573 -0.2588161 0.8116633 0.3833364 -0.7071016 0.5941891 -0.1403107 0.965926 -0.2174856 -0.1403123 0.9659266 -0.2174818 -0.4295552 -0.6107282 -0.6652019 -0.3773676 -0.7177463 -0.5851786 -0.3774085 -0.7178341 -0.5850446 0.1403111 0.9659286 0.2174737 0.1403109 0.9659273 0.2174797 0.3833453 0.7070997 0.5941855 0.3833437 0.7071113 0.5941728 0.5236561 0.2588089 0.8116664 0.5236514 -0.2588174 0.8116667 0.3833426 -0.7071006 0.5941863 0.3833388 -0.7071142 0.5941725 -0.8402888 0 0.5421391 -0.8402928 0 0.5421329 -0.8402971 0 0.5421264 -0.8402844 -3.72417e-5 0.542146 -0.840297 0 0.5421265 -0.8402974 0 0.5421259 -0.8403044 0 0.5421149 -0.840294 1.15444e-5 0.542131 -0.8402991 0 0.5421232 -0.8402909 0 0.5421359 -0.8402957 0 0.5421285 -0.8402993 3.00887e-5 0.5421228 -0.8402944 0 0.5421303 -0.8402947 1.63472e-5 0.5421301 -0.8402971 0 0.5421264 -0.8402974 -1.99954e-5 0.5421258 0.8402962 0 -0.5421277 0.8403013 -3.09783e-6 -0.5421199 0.840299 1.15203e-5 -0.5421233 0.8402953 2.41279e-5 -0.5421291 0.840295 -1.85052e-5 -0.5421294 0.8402958 0 -0.5421281 0.8402941 0 -0.5421308 0.8402855 0 -0.5421441 0.8403105 0 -0.5421056 0.8402965 -4.10069e-6 -0.5421273 0.8402848 -1.42756e-5 -0.5421454 0.8402982 0 -0.5421245 0.8402989 0 -0.5421234 0.840292 0 -0.5421342 0.8402966 -2.15987e-5 -0.5421269 0.8402991 0 -0.5421232 0.8402965 -1.85045e-5 -0.5421273 0.8402919 5.74861e-6 -0.5421344 0.8402996 -1.36656e-5 -0.5421224 0.8402945 0 -0.5421303 0.840304 0 -0.5421155 0.8403002 0 -0.5421214 0.8402986 1.05563e-6 -0.5421239 0.8402944 0 -0.5421305 1 -1.91824e-5 0 1 1.52846e-5 0 1 4.18393e-6 0 -1 3.97958e-5 0 -1 -2.19414e-6 0 -1 -3.0896e-5 0 -0.5033559 -0.3713753 -0.7802008 -0.3833391 -0.7071097 -0.5941777 -0.3833426 -0.7071073 -0.5941783 -0.1403139 -0.9659249 -0.2174882 -0.1403123 -0.9659265 -0.2174826 0.140314 -0.9659255 0.2174852 0.1418139 -0.9659233 0.2165203 0.33604 -0.782686 0.5239084 0.3851906 -0.707104 0.5929859 0.4959709 -0.3965889 0.7724832 0.5257768 -0.2588196 0.8102909 0.5383121 0.08324366 0.8386242 0.5259711 0.2588189 0.8101651 0.4530011 0.5434123 0.7067483 0.3857797 0.7071027 0.5926042 0.26018 0.8751034 0.4080448 0.1427975 0.96592 0.2158876 0.005407929 0.9998987 0.01316827 -0.1378611 0.9659227 -0.219061 -0.2510806 0.8883042 -0.3845444 -0.3163728 0.8120123 -0.4904532 -0.3807739 0.7070985 -0.5958381 -0.4229784 0.6260595 -0.6550869 -0.5119392 0.3276061 -0.7940986 -0.5212784 0.2588028 -0.8131974 -0.543296 -0.009222984 -0.8394907 -0.5211424 -0.2588077 -0.8132831 -0.5088613 -0.3449077 -0.7887325 -0.3895118 -0.6955374 -0.6037454 -0.3895095 -0.695539 -0.6037449 -0.5201337 -0.2588222 -0.8139238 -0.5403234 -0.09412461 -0.8361765 -0.5313126 0.190836 -0.8254022 -0.5203889 0.2588233 -0.8137605 -0.4823725 0.4597872 -0.7455954 -0.3812208 0.7071041 -0.5955457 -0.3641894 0.7407523 -0.5644928 -0.140313 0.9659253 -0.2174869 -0.1403137 0.9659258 -0.2174844 0.1403123 0.9659265 0.2174826 0.1403121 0.9659257 0.217486 0.383342 0.7071081 0.5941776 0.5236531 0.2588239 0.8116636 0.5236564 0.258809 0.8116662 0.5236548 -0.2588123 0.8116661 0.5236542 -0.2588204 0.8116639 0.383346 -0.7071011 0.5941835 0.3833396 -0.7071099 0.5941771 0.1403122 -0.9659258 0.2174856 0.1403114 -0.9659271 0.2174801 -0.3885066 0.7070896 -0.5908359 -0.4794796 0.4583204 -0.7483594 -0.5320082 0.2587959 -0.8062209 -0.534334 0.191497 -0.823296 -0.5381519 -0.09390532 -0.8376004 -0.5033583 -0.3713662 -0.7802035 -0.5033524 -0.3713951 -0.7801937 -0.5375466 -0.1708453 -0.8257454 -0.5236545 -0.2588178 -0.8116645 -0.5236544 0.2588246 -0.8116624 -0.523654 0.2588176 -0.8116649 -0.3833445 0.7070984 -0.5941875 -0.383342 0.7071086 -0.5941771 -0.1403105 0.9659266 -0.2174829 -0.1403144 0.9659255 -0.2174853 0.140314 0.9659255 0.2174852 0.1403132 0.9659254 0.2174866 0.3833419 0.7071059 0.5941805 0.5236528 0.258824 0.8116637 0.5236553 0.2588166 0.8116645 0.5236541 -0.2588247 0.8116626 0.5236548 -0.2588164 0.8116649 0.3833419 -0.7071059 0.5941802 0.3833418 -0.7071058 0.5941806 0.1403139 -0.9659249 0.2174882 -0.383339 -0.7071108 -0.5941764 -0.3833904 -0.7070615 -0.5942018 -0.1279535 -0.9717468 -0.1983334 0.08339262 -0.9880989 0.1292526 0.1379088 -0.9659209 0.2190389 0.2430112 -0.8945858 0.3750491 0.3768599 -0.7163992 0.5871531 0.3815814 -0.7071081 0.5953099 0.4792202 -0.4704278 0.7409762 0.5213669 -0.2588118 0.8131378 0.5329567 -0.1799312 0.8267902 0.5379658 0.1276033 0.8332528 0.5211837 0.2588171 0.8132537 0.49182 0.4230512 0.761013 0.3973368 0.6784667 0.6179049 0.3813347 0.7071076 0.5954685 0.228943 0.9079533 0.3510071 0.1379966 0.9659211 0.2189824 -0.02191931 0.9990241 -0.03834652 -0.14278 0.9659228 -0.2158868 -0.2676196 0.8674916 -0.4193305 -0.3858007 0.707101 -0.5925926 -0.4533885 0.5426626 -0.7070758 -0.525939 0.2588174 -0.8101863 -0.5378587 0.09693026 -0.837444 -0.5256067 -0.2588174 -0.8104018 -0.5022597 -0.3704234 -0.781359 -0.3848062 -0.7070986 -0.5932419 -0.354614 -0.7552252 -0.5512565 -0.1411218 -0.9659265 -0.2169582 0.09642034 -0.9837201 0.151651 -0.1392387 -0.9659236 -0.2181839 -0.1403122 -0.9659258 -0.2174856 -0.3833445 -0.7070984 -0.5941875 -0.1661573 -0.9521929 -0.2563601 -0.3827633 -0.7071119 -0.5945462 -0.3833419 -0.7071059 -0.5941802 0.8402931 7.4576e-6 -0.5421324 0.8402981 0 -0.5421247 0.840295 9.18315e-6 -0.5421295 0.8402969 0 -0.5421265 0.8402961 -2.64153e-6 -0.5421277 0.8402961 -2.10786e-6 -0.5421277 0.8402975 0 -0.5421257 0.8402996 0 -0.5421224 0.8402959 0 -0.542128 0.8402947 -1.47652e-5 -0.54213 0.8403002 0 -0.5421214 0.8403207 -8.98354e-5 -0.5420895 0.8402959 0 -0.5421282 0.8402944 0 -0.5421305 0.8402959 2.04888e-6 -0.5421282 0.8402886 0 -0.5421393 0.8402948 -2.49168e-5 -0.5421298 0.8403004 1.76208e-5 -0.5421213 0.840292 0 -0.5421342 0.8403 6.52797e-6 -0.5421218 -0.8402937 -1.53914e-5 0.5421314 -0.8402913 0 0.5421353 -0.8403057 0 0.5421129 -0.8402945 0 0.5421302 -0.8402977 -1.24102e-5 0.5421253 -0.840302 2.24839e-5 0.5421187 -0.8402951 0 0.5421292 -0.8402956 0 0.5421286 -0.8402947 -6.10657e-5 0.5421299 -0.8402931 0 0.5421324 -0.840301 0 0.54212 0 1 -2.79273e-6 1 -3.69823e-5 0 1 -3.54229e-6 0 1 -2.72885e-6 0 0 -1 2.133e-6 7.17563e-6 0 1 -2.86275e-5 0 1 1 2.13721e-5 0 1 -1.12452e-5 0 0 0 1 0 0 1 -1.51339e-7 0 -1 1.86264e-7 0 -1 0 0 1 0 0 1 0 0 1 0 0 1 0 0 1 0 0 1 0 0 -1 0 0 -1</float_array>
          <technique_common>
            <accessor source="#Atolyegercek-mesh-normals-array" count="444" stride="3">
              <param name="X" type="float"/>
              <param name="Y" type="float"/>
              <param name="Z" type="float"/>
            </accessor>
          </technique_common>
        </source>
        <vertices id="Atolyegercek-mesh-vertices">
          <input semantic="POSITION" source="#Atolyegercek-mesh-positions"/>
        </vertices>
        <triangles material="Material_001-material" count="1291">
          <input semantic="VERTEX" source="#Atolyegercek-mesh-vertices" offset="0"/>
          <input semantic="NORMAL" source="#Atolyegercek-mesh-normals" offset="1"/>
          <p>0 0 1 0 2 0 2 0 1 0 3 0 4 0 5 0 6 0 6 0 5 0 7 0 8 0 9 0 10 0 10 0 9 0 11 0 12 0 13 0 14 0 14 0 13 0 15 0 0 1 2 1 16 1 16 1 2 1 17 1 18 1 19 1 5 1 5 1 19 1 7 1 20 1 21 1 9 1 9 1 21 1 11 1 12 1 14 1 22 1 22 1 14 1 23 1 24 1 25 1 26 1 26 1 25 1 27 1 24 0 28 0 25 0 25 0 28 0 29 0 28 2 24 2 30 2 30 3 24 3 31 3 31 2 24 2 32 2 32 2 24 2 26 2 13 2 12 2 33 2 33 2 12 2 34 2 34 2 12 2 35 2 35 2 12 2 22 2 10 2 11 2 36 2 39 4 40 4 41 4 41 5 40 5 42 5 41 6 42 6 43 6 58 4 39 4 41 4 59 4 60 4 61 4 61 4 60 4 62 4 61 4 62 4 63 4 61 4 64 4 59 4 61 4 63 4 65 4 65 4 63 4 66 4 65 4 66 4 67 4 58 4 41 4 68 4 68 4 41 4 69 4 70 4 71 4 72 4 72 4 71 4 69 4 72 4 69 4 41 4 72 4 17 4 70 4 67 4 73 4 65 4 1 2 0 2 74 2 74 7 0 7 75 7 75 2 0 2 76 2 76 2 0 2 16 2 77 8 26 8 72 8 72 9 26 9 27 9 72 10 27 10 19 10 82 11 83 11 65 11 65 12 83 12 84 12 65 13 84 13 85 13 85 14 84 14 86 14 85 11 86 11 87 11 77 11 88 11 35 11 77 11 35 11 22 11 73 11 89 11 65 11 65 15 89 15 90 15 65 11 90 11 82 11 18 11 16 11 72 11 72 11 16 11 17 11 20 11 26 11 77 11 87 11 100 11 85 11 85 11 100 11 101 11 23 11 21 11 77 11 77 11 21 11 20 11 19 11 18 11 72 11 22 11 23 11 77 11 6 2 7 2 102 2 102 16 7 16 103 16 103 2 7 2 78 2 78 2 7 2 19 2 104 2 105 2 106 2 106 2 105 2 107 2 108 2 109 2 110 2 110 2 109 2 111 2 112 2 113 2 114 2 114 2 113 2 115 2 69 1 71 1 105 1 105 1 71 1 107 1 70 1 17 1 109 1 109 1 17 1 111 1 112 1 114 1 68 1 68 1 114 1 58 1 40 1 39 1 116 1 116 1 39 1 117 1 118 2 116 2 119 2 119 2 116 2 117 2 120 11 121 11 122 11 122 11 121 11 41 11 122 11 41 11 61 11 120 11 124 11 125 11 120 11 125 11 126 11 126 11 125 11 127 11 123 11 128 11 124 11 124 17 128 17 61 17 129 11 41 11 121 11 126 11 121 11 120 11 113 11 112 11 130 11 130 11 112 11 131 11 48 11 112 11 68 11 106 11 107 11 132 11 132 11 107 11 133 11 52 11 107 11 71 11 119 11 117 11 134 11 134 11 117 11 135 11 44 11 117 11 39 11 136 1 137 1 138 1 138 1 137 1 139 1 139 1 137 1 140 1 139 1 140 1 141 1 141 1 140 1 81 1 141 1 81 1 96 1 140 1 137 1 142 1 142 1 137 1 143 1 142 1 143 1 144 1 144 1 143 1 145 1 144 1 145 1 146 1 146 1 145 1 147 1 146 1 147 1 148 1 148 1 147 1 149 1 150 1 149 1 151 1 150 1 151 1 152 1 152 1 151 1 153 1 143 1 156 1 145 1 145 1 156 1 157 1 147 1 158 1 149 1 149 1 158 1 159 1 151 1 160 1 153 1 153 1 160 1 161 1 163 1 162 1 164 1 163 1 164 1 165 1 167 1 166 1 168 1 167 1 168 1 169 1 169 1 170 1 171 1 171 1 170 1 172 1 171 1 172 1 173 1 175 1 174 1 176 1 175 1 176 1 177 1 142 1 91 1 80 1 139 1 141 1 186 1 186 1 141 1 187 1 186 1 187 1 188 1 188 1 187 1 189 1 188 1 189 1 190 1 190 1 189 1 191 1 190 1 191 1 192 1 192 19 191 19 193 19 192 1 193 1 194 1 194 1 193 1 195 1 187 1 95 1 189 1 189 1 95 1 98 1 191 1 99 1 193 1 193 1 99 1 88 1 192 1 196 1 190 1 190 1 196 1 197 1 188 1 198 1 186 1 186 1 198 1 199 1 200 20 201 20 202 20 202 20 201 20 31 20 202 20 31 20 203 20 203 20 31 20 32 20 203 20 32 20 79 20 200 20 204 20 201 20 31 20 201 20 205 20 205 20 201 20 206 20 205 20 206 20 37 20 37 20 206 20 207 20 37 20 207 20 208 20 208 20 207 20 209 20 208 20 209 20 34 20 34 20 209 20 210 20 34 20 210 20 211 20 211 20 210 20 212 20 206 20 213 20 207 20 207 20 213 20 214 20 209 20 215 20 210 20 210 20 215 20 216 20 34 20 35 20 208 20 208 20 35 20 97 20 37 20 38 20 205 20 205 20 38 20 94 20 202 20 203 20 217 20 217 20 203 20 103 20 217 20 103 20 218 20 218 21 103 21 219 21 218 20 219 20 220 20 220 20 219 20 75 20 220 20 75 20 221 20 221 20 75 20 222 20 221 20 222 20 223 20 223 20 222 20 224 20 223 20 224 20 225 20 225 20 224 20 226 20 225 20 226 20 227 20 227 20 226 20 228 20 103 20 78 20 219 20 219 20 78 20 93 20 75 20 76 20 222 20 224 20 229 20 226 20 226 20 229 20 230 20 230 20 229 20 231 20 230 20 231 20 232 20 232 20 231 20 133 20 232 20 133 20 233 20 233 20 133 20 234 20 233 20 234 20 235 20 235 20 234 20 131 20 235 20 131 20 236 20 236 20 131 20 237 20 236 20 237 20 238 20 238 20 237 20 135 20 238 20 135 20 239 20 239 20 135 20 240 20 239 20 240 20 241 20 241 20 121 20 126 20 242 20 243 20 241 20 241 20 243 20 239 20 244 20 245 20 238 20 238 20 245 20 236 20 246 20 247 20 235 20 235 20 247 20 233 20 248 20 249 20 232 20 232 20 249 20 230 20 225 20 250 20 223 20 223 20 250 20 251 20 221 20 252 20 220 20 220 20 252 20 253 20 218 20 254 20 217 20 217 20 254 20 255 20 255 2 261 2 217 2 217 2 261 2 256 2 147 2 267 2 158 2 158 2 267 2 268 2 253 2 269 2 220 2 220 2 269 2 262 2 206 4 277 4 213 4 213 4 277 4 278 4 139 2 281 2 138 2 138 2 281 2 282 2 204 2 283 2 201 2 201 2 283 2 276 2 216 2 284 2 210 2 210 2 284 2 285 2 192 2 286 2 196 2 196 2 286 2 287 2 194 11 288 11 192 11 192 11 288 11 286 11 205 0 289 0 31 0 31 0 289 0 30 0 96 2 84 2 141 2 141 2 84 2 290 2 8 4 289 4 9 4 9 4 289 4 205 4 211 0 291 0 34 0 34 0 291 0 33 0 193 0 292 0 195 0 195 0 292 0 293 0 291 4 211 4 77 4 77 4 211 4 195 4 85 22 293 22 288 22 194 25 212 25 294 25 194 4 294 4 295 4 212 4 296 4 294 4 194 26 295 26 288 26 288 27 295 27 85 27 88 2 101 2 193 2 193 2 101 2 292 2 208 0 297 0 37 0 37 0 297 0 36 0 98 2 87 2 189 2 189 2 87 2 298 2 15 4 297 4 14 4 14 4 297 4 208 4 14 4 208 4 97 4 97 4 23 4 14 4 222 0 299 0 224 0 224 0 299 0 300 0 224 2 300 2 229 2 229 2 300 2 301 2 163 2 302 2 150 2 150 2 302 2 303 2 3 4 299 4 2 4 17 11 56 11 111 11 301 11 110 11 111 11 234 2 305 2 131 2 131 2 305 2 130 2 49 11 62 11 171 11 104 0 305 0 105 0 105 0 305 0 234 0 105 28 234 28 50 28 50 0 69 0 105 0 122 2 128 2 177 2 177 2 128 2 308 2 235 4 309 4 310 4 235 0 310 0 246 0 246 0 310 0 311 0 182 11 314 11 315 11 245 11 316 11 236 11 236 11 316 11 309 11 225 4 319 4 250 4 250 4 319 4 320 4 227 11 321 11 225 11 225 11 321 11 319 11 241 4 127 4 322 4 247 11 325 11 233 11 233 11 325 11 326 11 232 0 327 0 248 0 248 0 327 0 328 0 179 0 329 0 164 0 164 0 329 0 330 0 232 4 326 4 327 4 243 11 332 11 239 11 239 11 332 11 333 11 238 4 333 4 334 4 108 0 339 0 109 0 109 0 339 0 231 0 109 0 231 0 54 0 54 0 70 0 109 0 231 2 339 2 133 2 133 2 339 2 132 2 167 2 340 2 165 2 165 2 340 2 341 2 4 4 342 4 5 4 92 2 89 2 146 2 146 2 89 2 343 2 219 0 342 0 75 0 75 0 342 0 74 0 311 2 316 2 246 2 246 2 316 2 245 2 246 2 245 2 181 2 181 2 245 2 182 2 181 2 182 2 312 2 312 2 182 2 315 2 312 2 315 2 124 2 124 2 315 2 336 2 124 2 336 2 345 2 345 2 336 2 184 2 184 2 336 2 183 2 184 2 183 2 243 2 243 2 183 2 244 2 243 2 244 2 332 2 332 2 244 2 335 2 245 2 244 2 182 2 182 2 244 2 183 2 243 2 242 2 184 2 184 2 242 2 185 2 185 2 242 2 125 2 185 2 125 2 124 2 242 2 346 2 125 2 124 2 347 2 312 2 312 2 347 2 348 2 348 2 347 2 329 2 348 2 329 2 180 2 180 2 329 2 179 2 180 2 179 2 247 2 247 2 179 2 248 2 247 2 248 2 325 2 325 2 248 2 328 2 349 2 155 2 347 2 347 29 155 29 350 29 347 2 350 2 351 2 321 2 227 2 349 2 349 30 227 30 155 30 227 2 228 2 155 2 155 2 228 2 154 2 154 2 228 2 249 2 154 2 249 2 178 2 178 2 249 2 248 2 178 2 248 2 179 2 352 2 353 2 228 2 228 2 353 2 249 2 247 2 246 2 180 2 154 2 178 2 351 2 351 2 178 2 354 2 351 2 354 2 347 2 347 2 354 2 329 2 345 2 324 2 124 2 249 11 353 11 230 11 230 11 353 11 355 11 226 0 356 0 228 0 228 0 356 0 352 0 226 4 355 4 356 4 251 2 359 2 223 2 223 2 359 2 360 2 221 4 361 4 252 4 252 4 361 4 362 4 223 11 360 11 221 11 221 11 360 11 361 11 29 4 366 4 25 4 80 2 82 2 142 2 142 2 82 2 367 2 203 0 366 0 103 0 103 0 366 0 102 0 142 0 367 0 140 0 115 0 369 0 114 0 114 0 369 0 237 0 46 0 58 0 114 0 237 2 369 2 135 2 135 2 369 2 134 2 175 2 370 2 173 2 173 2 370 2 371 2 143 2 372 2 156 2 156 2 372 2 373 2 256 20 261 20 257 20 257 20 261 20 258 20 258 0 261 0 200 0 200 0 261 0 255 0 200 0 255 0 136 0 136 0 255 0 156 0 136 0 156 0 259 0 259 0 373 0 347 0 347 32 373 32 265 32 347 33 265 33 268 33 268 0 265 0 158 0 158 0 157 0 253 0 253 0 157 0 254 0 253 0 254 0 269 0 269 0 254 0 264 0 255 0 254 0 156 0 156 0 254 0 157 0 253 0 252 0 158 0 158 0 252 0 159 0 159 0 252 0 251 0 159 0 251 0 160 0 160 0 251 0 250 0 160 0 250 0 161 0 161 0 250 0 349 0 161 0 349 0 347 0 362 0 359 0 252 0 252 0 359 0 251 0 250 0 320 0 349 0 347 34 295 34 259 34 259 35 295 35 282 35 282 0 295 0 279 0 282 0 279 0 138 0 138 0 279 0 199 0 138 0 199 0 204 0 204 0 199 0 213 0 204 0 213 0 283 0 283 0 213 0 278 0 294 0 196 0 295 0 295 0 196 0 287 0 295 0 287 0 275 0 284 0 216 0 294 0 294 0 216 0 196 0 216 0 215 0 196 0 196 0 215 0 197 0 197 0 215 0 214 0 197 0 214 0 198 0 198 0 214 0 213 0 198 0 213 0 199 0 374 0 274 0 215 0 215 0 274 0 214 0 204 0 200 0 138 0 138 0 200 0 136 0 268 36 363 36 347 36 347 37 363 37 375 37 347 0 375 0 317 0 375 0 363 0 160 0 160 0 363 0 159 0 197 0 198 0 275 0 275 0 376 0 295 0 295 38 376 38 279 38 317 0 161 0 347 0 264 20 263 20 269 20 269 20 263 20 262 20 259 20 281 20 260 20 260 20 281 20 290 20 260 20 290 20 368 20 368 20 290 20 84 20 368 20 84 20 83 20 259 20 282 20 281 20 290 20 281 20 377 20 377 20 281 20 280 20 377 20 280 20 298 20 298 20 280 20 273 20 298 20 273 20 378 20 378 20 273 20 272 20 378 20 272 20 292 20 292 20 272 20 286 20 292 20 286 20 293 20 293 20 286 20 288 20 280 20 279 20 273 20 273 20 279 20 376 20 272 20 275 20 286 20 286 20 275 20 287 20 292 20 101 20 378 20 378 20 101 20 100 20 298 20 87 20 377 20 377 20 87 20 86 20 260 20 368 20 372 20 372 20 368 20 367 20 372 20 367 20 266 20 266 39 367 39 344 39 266 20 344 20 267 20 267 20 344 20 343 20 267 20 343 20 364 20 364 20 343 20 304 20 364 20 304 20 365 20 365 20 304 20 303 20 365 20 303 20 318 20 318 20 303 20 357 20 318 20 357 20 350 20 350 20 357 20 351 20 367 20 82 20 344 20 344 20 82 20 90 20 343 20 89 20 304 20 304 20 89 20 73 20 303 20 302 20 357 20 357 20 302 20 358 20 358 20 302 20 341 20 358 20 341 20 330 20 330 20 341 20 340 20 330 20 340 20 331 20 331 20 340 20 307 20 331 20 307 20 313 20 313 20 307 20 306 20 313 20 306 20 314 20 314 20 306 20 371 20 314 20 371 20 337 20 337 20 371 20 370 20 337 20 370 20 338 20 338 20 370 20 308 20 338 20 308 20 323 20 323 20 308 20 128 20 323 20 128 20 123 20 73 20 67 20 302 20 302 20 67 20 341 20 66 20 63 20 340 20 340 20 63 20 307 20 62 20 60 20 306 20 306 20 60 20 371 20 59 20 64 20 370 20 370 20 64 20 308 20 324 20 345 20 323 20 323 20 345 20 338 20 336 20 315 20 337 20 337 20 315 20 314 20 312 20 348 20 313 20 313 20 348 20 331 20 329 20 354 20 330 20 330 20 354 20 358 20 318 20 317 20 365 20 365 20 317 20 375 20 364 20 363 20 267 20 267 20 363 20 268 20 266 20 265 20 372 20 372 20 265 20 373 20 141 0 290 0 187 0 30 20 8 20 28 20 28 20 8 20 77 20 28 20 77 20 72 20 30 20 289 20 8 20 8 20 10 20 77 20 77 20 10 20 15 20 77 20 15 20 13 20 10 20 36 20 15 20 15 20 36 20 297 20 33 20 291 20 13 20 13 20 291 20 77 20 41 20 104 20 72 20 72 20 104 20 106 20 72 20 106 20 108 20 108 20 106 20 339 20 339 20 106 20 132 20 129 20 118 20 41 20 41 20 118 20 119 20 41 20 119 20 115 20 115 20 119 20 369 20 369 20 119 20 134 20 129 20 379 20 118 20 115 20 113 20 41 20 41 20 113 20 104 20 130 20 305 20 113 20 113 20 305 20 104 20 108 20 110 20 72 20 72 20 110 20 3 20 72 20 3 20 1 20 301 20 300 20 110 20 110 20 300 20 3 20 300 20 299 20 3 20 72 20 1 20 4 20 4 20 1 20 74 20 4 20 74 20 342 20 4 20 6 20 72 20 72 20 6 20 29 20 72 20 29 20 28 20 6 20 102 20 29 20 29 20 102 20 366 20 325 20 328 20 326 20 326 20 328 20 327 20 184 11 338 11 345 11 334 20 333 20 335 20 335 20 333 20 332 20 170 4 313 4 314 4 310 20 309 20 311 20 311 20 309 20 316 20 240 2 379 2 121 2 121 2 379 2 129 2 118 0 379 0 116 0 42 0 40 0 116 0 321 20 349 20 319 20 319 20 349 20 320 20 189 0 298 0 191 0 171 2 306 2 169 2 169 2 306 2 307 2 295 1 347 1 65 1 65 41 347 41 124 41 65 1 124 1 61 1 65 1 85 1 295 1 188 2 273 2 198 2 198 2 273 2 376 2 209 4 271 4 215 4 215 4 271 4 374 4 270 20 274 20 271 20 271 20 274 20 374 20 278 20 277 20 283 20 283 20 277 20 276 20 353 20 352 20 355 20 355 20 352 20 356 20 151 2 365 2 160 2 160 2 365 2 375 2 360 20 359 20 361 20 361 20 359 20 362 20 210 11 285 11 212 11 212 11 285 11 296 11 294 20 296 20 284 20 284 20 296 20 285 20 322 20 127 20 346 20 346 20 127 20 125 20 380 4 381 4 382 4 382 4 381 4 383 4 384 0 380 0 385 0 385 0 380 0 382 0 386 2 384 2 387 2 387 2 384 2 385 2 381 11 386 11 383 11 383 11 386 11 387 11 388 4 389 4 390 4 390 4 389 4 391 4 392 0 388 0 393 0 393 0 388 0 390 0 394 2 392 2 395 2 395 2 392 2 393 2 389 11 394 11 391 11 391 11 394 11 395 11 396 2 397 2 398 2 398 2 397 2 399 2 400 11 396 11 401 11 401 11 396 11 398 11 402 4 400 4 403 4 403 4 400 4 401 4 397 0 402 0 399 0 399 0 402 0 403 0 404 4 405 4 406 4 406 4 405 4 407 4 408 0 404 0 409 0 409 0 404 0 406 0 410 2 408 2 411 2 411 2 408 2 409 2 405 11 410 11 407 11 407 11 410 11 411 11 412 11 413 11 414 11 414 11 413 11 415 11 416 4 412 4 417 4 417 4 412 4 414 4 418 0 416 0 419 0 419 0 416 0 417 0 413 2 418 2 415 2 415 2 418 2 419 2 291 1 420 1 421 1 421 1 420 1 422 1 421 1 422 1 423 1 423 1 422 1 424 1 423 1 424 1 425 1 425 1 424 1 426 1 425 1 426 1 427 1 427 42 426 42 419 42 427 43 419 43 428 43 428 44 419 44 395 44 428 1 395 1 429 1 429 1 395 1 430 1 429 1 430 1 423 1 420 1 291 1 426 1 426 1 291 1 431 1 426 45 431 45 419 45 419 46 431 46 415 46 415 46 431 46 432 46 415 47 432 47 414 47 414 48 432 48 433 48 414 49 433 49 401 49 401 1 433 1 403 1 403 1 433 1 434 1 403 1 434 1 383 1 383 1 434 1 382 1 382 1 434 1 385 1 385 1 434 1 430 1 385 1 430 1 390 1 390 1 430 1 393 1 393 1 430 1 395 1 425 1 429 1 423 1 395 50 419 50 411 50 411 51 419 51 417 51 411 52 417 52 399 52 399 53 417 53 398 53 398 54 417 54 414 54 398 55 414 55 401 55 395 1 411 1 391 1 391 1 411 1 409 1 391 1 409 1 390 1 390 1 409 1 385 1 409 1 406 1 385 1 385 1 406 1 387 1 387 1 406 1 407 1 387 1 407 1 399 1 399 1 407 1 411 1 387 1 399 1 383 1 383 1 399 1 403 1 435 56 394 56 436 56 436 20 394 20 418 20 436 20 418 20 437 20 437 57 418 57 413 57 437 20 413 20 438 20 438 20 413 20 412 20 438 20 412 20 439 20 439 58 412 58 400 58 439 59 400 59 402 59 440 20 384 20 435 20 435 20 384 20 388 20 435 20 388 20 392 20 439 60 402 60 440 60 440 61 402 61 381 61 440 20 381 20 380 20 418 20 410 20 416 20 416 20 410 20 397 20 416 62 397 62 396 62 400 20 412 20 396 20 396 63 412 63 416 63 410 64 389 64 408 64 408 20 389 20 388 20 408 20 388 20 384 20 410 20 405 20 397 20 397 65 405 65 386 65 397 20 386 20 381 20 405 66 404 66 386 66 386 67 404 67 384 67 384 20 404 20 408 20 402 20 397 20 381 20 392 20 394 20 435 20 418 68 394 68 410 68 410 20 394 20 389 20 380 20 384 20 440 20 442 1 441 1 446 1 446 1 441 1 447 1 459 1 458 1 457 1 457 1 458 1 461 1 457 77 461 77 455 77 463 1 456 1 464 1 464 1 456 1 454 1 469 1 468 1 470 1 469 1 470 1 471 1 471 1 470 1 465 1 475 1 474 1 476 1 475 83 476 83 472 83 477 2 478 2 479 2 479 2 478 2 480 2 483 4 484 4 485 4 485 4 484 4 486 4 483 20 487 20 484 20 484 20 487 20 488 20 489 0 457 0 479 0 479 0 457 0 486 0 479 0 486 0 477 0 477 0 486 0 484 0 477 0 484 0 488 0 490 0 491 0 489 0 489 0 491 0 459 0 489 0 459 0 457 0 490 85 492 85 491 85 491 86 492 86 493 86 493 0 492 0 494 0 494 0 492 0 495 0 494 87 495 87 496 87 497 0 446 0 496 0 496 0 446 0 498 0 496 0 498 0 494 0 497 0 499 0 446 0 446 88 499 88 442 88 442 0 499 0 500 0 500 0 499 0 501 0 500 89 501 89 502 89 503 0 468 0 502 0 502 0 468 0 504 0 502 90 504 90 500 90 503 0 505 0 468 0 468 0 505 0 470 0 470 0 505 0 420 0 420 0 505 0 422 0 457 0 481 0 486 0 480 20 506 20 479 20 479 20 506 20 489 20 429 4 425 4 507 4 507 4 425 4 508 4 425 0 427 0 508 0 508 0 427 0 509 0 424 4 422 4 510 4 510 4 422 4 505 4 426 11 424 11 511 11 511 11 424 11 510 11 509 20 510 20 508 20 508 91 510 91 503 91 508 92 503 92 512 92 509 20 511 20 510 20 510 20 505 20 503 20 512 20 507 20 508 20 513 4 501 4 514 4 514 4 501 4 499 4 502 20 501 20 517 20 517 20 501 20 513 20 518 4 497 4 519 4 519 4 497 4 496 4 499 20 497 20 514 20 514 20 497 20 518 20 520 4 495 4 521 4 521 4 495 4 492 4 496 20 495 20 519 20 519 20 495 20 520 20 524 4 490 4 506 4 506 4 490 4 489 4 492 20 490 20 521 20 521 20 490 20 524 20 456 11 506 11 480 11 456 11 480 11 485 11 485 11 480 11 478 11 485 11 478 11 483 11 483 11 478 11 487 11 462 11 526 11 506 11 506 11 526 11 524 11 524 11 526 11 521 11 521 11 526 11 525 11 521 11 525 11 523 11 522 11 519 11 523 11 523 11 519 11 520 11 523 11 520 11 521 11 522 11 449 11 519 11 519 11 449 11 518 11 518 11 449 11 514 11 514 11 449 11 452 11 514 11 452 11 515 11 515 11 517 11 513 11 515 11 513 11 514 11 516 11 473 11 517 11 517 11 473 11 512 11 507 11 475 11 428 11 428 11 429 11 507 11 485 11 482 11 456 11 512 4 503 4 517 4 517 4 503 4 502 4 291 11 527 11 431 11 431 11 527 11 528 11 432 2 431 2 529 2 529 2 431 2 528 2 529 1 528 1 530 1 530 1 528 1 527 1 530 11 531 11 529 11 433 11 432 11 529 11 538 4 530 4 533 4 533 4 530 4 527 4 533 4 527 4 291 4 530 4 538 4 438 4 438 4 538 4 539 4 438 4 539 4 437 4 437 4 539 4 540 4 438 4 541 4 530 4 530 4 541 4 531 4 291 4 421 4 533 4 542 11 543 11 435 11 435 11 543 11 440 11 543 2 544 2 440 2 440 2 544 2 439 2 544 0 541 0 439 0 439 0 541 0 438 0 531 1 541 1 532 1 532 1 541 1 544 1 532 1 544 1 536 1 536 1 544 1 543 1 536 1 543 1 542 1 542 1 537 1 536 1 540 0 545 0 437 0 437 0 545 0 436 0 539 20 546 20 545 20 545 20 546 20 547 20 545 20 547 20 548 20 545 20 540 20 539 20 538 0 549 0 539 0 539 0 549 0 546 0 478 4 550 4 487 4 487 4 550 4 547 4 487 4 547 4 546 4 487 4 546 4 488 4 488 4 546 4 549 4 488 4 549 4 477 4 549 1 538 1 534 1 534 1 538 1 533 1 548 11 547 11 430 11 430 11 547 11 550 11 430 11 550 11 535 11 545 4 548 4 436 4 436 4 548 4 435 4 435 4 548 4 430 4 435 4 430 4 535 4 537 4 542 4 535 4 535 4 542 4 435 4 554 11 555 11 474 11 474 95 555 95 476 95 476 11 555 11 556 11 557 96 558 96 559 96 559 1 558 1 560 1 560 97 558 97 561 97 560 98 561 98 562 98 562 1 561 1 563 1 562 99 563 99 564 99 564 1 565 1 562 1 566 11 451 11 565 11 565 100 451 100 450 100 565 11 450 11 562 11 566 101 567 101 451 101 565 105 570 105 566 105 566 106 570 106 571 106 566 107 571 107 572 107 572 108 571 108 573 108 572 109 573 109 574 109 570 110 565 110 575 110 575 111 565 111 564 111 575 112 564 112 576 112 576 113 564 113 563 113 576 114 563 114 561 114 576 115 561 115 577 115 577 116 561 116 558 116 577 117 558 117 557 117 569 118 578 118 557 118 557 119 578 119 579 119 557 120 579 120 580 120 580 121 579 121 581 121 580 122 581 122 582 122 595 136 596 136 597 136 597 137 596 137 598 137 597 138 598 138 599 138 599 139 598 139 600 139 599 140 600 140 601 140 601 141 600 141 602 141 601 142 602 142 603 142 603 143 602 143 604 143 603 144 604 144 605 144 605 145 604 145 606 145 606 146 604 146 607 146 606 147 607 147 608 147 608 148 607 148 580 148 569 150 568 150 578 150 578 151 568 151 609 151 578 152 609 152 610 152 610 153 609 153 611 153 611 154 609 154 572 154 611 155 572 155 574 155 568 156 567 156 609 156 609 157 567 157 572 157 567 158 566 158 572 158 613 161 614 161 612 161 612 162 614 162 606 162 612 163 606 163 608 163 615 164 616 164 613 164 613 165 616 165 617 165 613 166 617 166 614 166 616 167 615 167 618 167 618 168 615 168 619 168 618 169 619 169 620 169 620 170 619 170 597 170 620 171 597 171 599 171 639 191 641 191 571 191 571 192 641 192 573 192 610 193 642 193 578 193 578 194 642 194 579 194 642 195 643 195 579 195 579 196 643 196 644 196 557 204 647 204 577 204 577 205 647 205 604 205 577 206 604 206 576 206 576 207 604 207 602 207 576 208 602 208 575 208 575 209 602 209 600 209 575 210 600 210 570 210 570 211 600 211 598 211 570 212 598 212 648 212 639 221 571 221 570 221 607 223 604 223 647 223 647 224 557 224 580 224 647 225 580 225 607 225 551 250 642 250 554 250 554 251 642 251 610 251 554 252 610 252 611 252 552 253 627 253 551 253 551 255 625 255 624 255 555 256 630 256 552 256 554 259 638 259 555 259 555 261 636 261 635 261 643 265 642 265 551 265 611 266 574 266 554 266 554 267 574 267 573 267 554 268 573 268 641 268 641 269 640 269 554 269 554 270 640 270 638 270 555 272 633 272 631 272 555 273 631 273 630 273 655 4 654 4 657 4 657 4 654 4 658 4 454 277 617 277 616 277 454 4 616 4 464 4 464 278 616 278 618 278 464 279 618 279 620 279 620 11 599 11 464 11 464 11 599 11 463 11 659 280 660 280 661 280 661 281 660 281 662 281 661 282 662 282 663 282 663 283 662 283 664 283 678 299 679 299 680 299 680 300 679 300 681 300 681 301 679 301 682 301 681 302 682 302 683 302 683 303 682 303 684 303 684 304 682 304 685 304 684 305 685 305 686 305 686 306 685 306 687 306 686 307 687 307 688 307 688 308 687 308 689 308 688 309 689 309 690 309 660 310 659 310 691 310 691 311 659 311 692 311 691 312 692 312 693 312 691 313 693 313 694 313 694 314 693 314 695 314 694 315 695 315 696 315 696 316 695 316 697 316 697 330 695 330 711 330 711 331 695 331 712 331 711 332 712 332 713 332 713 333 712 333 714 333 713 334 714 334 715 334 716 335 717 335 715 335 715 336 717 336 687 336 715 337 687 337 713 337 713 338 687 338 685 338 713 339 685 339 711 339 711 340 685 340 682 340 711 341 682 341 697 341 697 342 682 342 679 342 717 355 716 355 663 355 663 356 716 356 661 356 696 375 729 375 730 375 696 376 730 376 694 376 694 377 730 377 731 377 694 378 731 378 691 378 691 379 731 379 732 379 691 380 732 380 660 380 660 381 732 381 733 381 660 382 733 382 662 382 662 383 733 383 718 383 662 384 718 384 710 384 665 387 735 387 663 387 663 388 735 388 717 388 734 389 689 389 735 389 735 390 689 390 687 390 735 391 687 391 717 391 720 392 719 392 736 392 736 393 719 393 718 393 736 394 718 394 733 394 733 395 732 395 736 395 736 396 732 396 731 396 736 397 731 397 730 397 736 398 730 398 737 398 737 399 730 399 729 399 737 400 729 400 728 400 737 401 728 401 738 401 738 404 726 404 739 404 739 405 726 405 725 405 739 406 725 406 724 406 739 410 721 410 736 410 736 411 721 411 720 411 458 425 684 425 686 425 458 426 686 426 688 426 690 0 743 0 461 0 690 0 461 0 458 0 458 0 688 0 690 0 455 4 461 4 742 4 742 4 461 4 743 4 736 0 469 0 739 0 739 0 469 0 471 0 739 0 471 0 745 0 736 4 737 4 469 4 716 1 715 1 746 1 746 1 715 1 714 1 746 1 714 1 747 1 747 428 714 428 712 428 747 1 712 1 748 1 748 429 712 429 695 429 748 2 695 2 443 2 443 430 693 430 692 430 441 431 659 431 661 431 661 0 716 0 441 0 441 0 716 0 447 0 447 0 716 0 746 0 448 4 447 4 747 4 747 4 447 4 746 4 749 4 750 4 751 4 751 4 750 4 752 4 753 0 749 0 754 0 754 0 749 0 751 0 755 2 753 2 756 2 756 2 753 2 754 2 750 11 755 11 752 11 752 11 755 11 756 11 752 20 756 20 751 20 751 20 756 20 754 20 757 4 758 4 759 4 759 4 758 4 760 4 761 0 757 0 762 0 762 0 757 0 759 0 763 2 761 2 764 2 764 2 761 2 762 2 758 11 763 11 760 11 760 11 763 11 764 11 760 20 764 20 759 20 759 20 764 20 762 20 765 2 766 2 767 2 767 2 766 2 768 2 769 11 765 11 770 11 770 11 765 11 767 11 771 4 769 4 772 4 772 4 769 4 770 4 766 0 771 0 768 0 768 0 771 0 772 0 768 20 772 20 767 20 767 20 772 20 770 20 773 4 774 4 775 4 775 4 774 4 776 4 777 0 773 0 778 0 778 0 773 0 775 0 779 2 777 2 780 2 780 2 777 2 778 2 774 11 779 11 776 11 776 11 779 11 780 11 779 1 774 1 777 1 777 1 774 1 773 1 776 20 780 20 775 20 775 20 780 20 778 20 781 11 782 11 783 11 783 11 782 11 784 11 785 4 781 4 786 4 786 4 781 4 783 4 787 0 785 0 788 0 788 0 785 0 786 0 782 2 787 2 784 2 784 2 787 2 788 2 788 20 786 20 784 20 784 20 786 20 783 20 753 4 755 4 754 4 754 4 755 4 756 4 749 11 753 11 751 11 751 11 753 11 754 11 750 2 749 2 752 2 752 2 749 2 751 2 755 0 750 0 756 0 756 0 750 0 752 0 387 4 385 4 386 4 386 4 385 4 384 4 383 0 387 0 381 0 381 0 387 0 386 0 382 2 383 2 380 2 380 2 383 2 381 2 385 11 382 11 384 11 384 11 382 11 380 11 752 20 380 20 756 20 756 20 380 20 381 20 756 20 381 20 754 20 754 20 381 20 386 20 754 20 386 20 751 20 751 20 386 20 752 20 752 20 386 20 384 20 752 20 384 20 380 20 761 4 763 4 762 4 762 4 763 4 764 4 757 11 761 11 759 11 759 11 761 11 762 11 758 2 757 2 760 2 760 2 757 2 759 2 763 0 758 0 764 0 764 0 758 0 760 0 411 4 409 4 410 4 410 4 409 4 408 4 407 0 411 0 405 0 405 0 411 0 410 0 406 2 407 2 404 2 404 2 407 2 405 2 409 11 406 11 408 11 408 11 406 11 404 11 760 20 404 20 764 20 764 20 404 20 405 20 764 20 405 20 762 20 762 20 405 20 410 20 762 20 410 20 759 20 759 20 410 20 760 20 760 20 410 20 408 20 760 20 408 20 404 20 769 2 771 2 770 2 770 2 771 2 772 2 765 0 769 0 767 0 767 0 769 0 770 0 766 4 765 4 768 4 768 4 765 4 767 4 771 11 766 11 772 11 772 11 766 11 768 11 403 2 401 2 402 2 402 2 401 2 400 2 399 11 403 11 397 11 397 11 403 11 402 11 398 4 399 4 396 4 396 4 399 4 397 4 401 0 398 0 400 0 400 0 398 0 396 0 770 434 772 434 396 434 396 20 772 20 768 20 396 20 768 20 400 20 400 435 768 435 767 435 400 20 767 20 402 20 402 20 767 20 770 20 402 20 770 20 397 20 397 20 770 20 396 20 777 4 779 4 778 4 778 4 779 4 780 4 773 11 777 11 775 11 775 11 777 11 778 11 774 2 773 2 776 2 776 2 773 2 775 2 779 0 774 0 780 0 780 0 774 0 776 0 395 4 393 4 394 4 394 4 393 4 392 4 391 0 395 0 389 0 389 0 395 0 394 0 390 2 391 2 388 2 388 2 391 2 389 2 393 11 390 11 392 11 392 11 390 11 388 11 776 20 388 20 780 20 780 20 388 20 389 20 780 20 389 20 778 20 778 20 389 20 394 20 778 20 394 20 775 20 775 20 394 20 776 20 776 20 394 20 392 20 776 20 392 20 388 20 785 11 787 11 786 11 786 11 787 11 788 11 781 2 785 2 783 2 783 2 785 2 786 2 782 0 781 0 784 0 784 0 781 0 783 0 787 4 782 4 788 4 788 4 782 4 784 4 419 11 417 11 418 11 418 11 417 11 416 11 415 4 419 4 413 4 413 4 419 4 418 4 414 0 415 0 412 0 412 0 415 0 413 0 417 2 414 2 416 2 416 2 414 2 412 2 784 442 412 442 788 442 788 20 412 20 413 20 788 20 413 20 786 20 786 20 413 20 783 20 783 20 413 20 418 20 783 20 418 20 416 20 412 443 784 443 416 443 416 20 784 20 783 20</p>
        </triangles>
        <triangles material="Material_002-material" count="280">
          <input semantic="VERTEX" source="#Atolyegercek-mesh-vertices" offset="0"/>
          <input semantic="NORMAL" source="#Atolyegercek-mesh-normals" offset="1"/>
          <p>36 2 11 2 37 2 37 2 11 2 38 2 38 2 11 2 21 2 43 4 42 4 44 4 43 4 44 4 45 4 45 4 44 4 46 4 45 4 46 4 47 4 47 4 46 4 48 4 47 4 48 4 49 4 49 4 48 4 50 4 49 4 50 4 51 4 51 4 50 4 52 4 51 4 52 4 53 4 53 4 52 4 54 4 53 4 54 4 55 4 55 4 54 4 56 4 55 4 56 4 57 4 46 4 44 4 58 4 58 4 44 4 39 4 45 4 47 4 59 4 59 4 47 4 60 4 63 4 62 4 51 4 51 4 62 4 49 4 41 4 43 4 61 4 61 4 43 4 64 4 67 4 66 4 55 4 55 4 66 4 53 4 68 4 69 4 48 4 48 4 69 4 50 4 54 4 52 4 70 4 70 4 52 4 71 4 19 11 27 11 78 11 78 11 27 11 79 11 78 11 79 11 80 11 80 11 79 11 81 11 80 11 81 11 82 11 82 11 81 11 83 11 85 11 88 11 77 11 90 11 89 11 91 11 91 11 89 11 92 11 91 11 92 11 93 11 93 11 92 11 76 11 93 11 76 11 18 11 18 11 76 11 16 11 92 11 57 11 76 11 76 11 57 11 56 11 94 11 32 11 20 11 20 11 32 11 26 11 38 11 95 11 94 11 94 11 95 11 96 11 94 11 96 11 32 11 32 11 96 11 81 11 32 11 81 11 79 11 21 11 23 11 38 11 38 11 23 11 97 11 38 11 97 11 98 11 98 11 97 11 99 11 98 11 99 11 87 11 87 11 99 11 100 11 85 11 101 11 88 11 93 11 78 11 91 11 91 11 78 11 80 11 88 11 99 11 35 11 35 11 99 11 97 11 86 11 84 11 95 11 95 11 84 11 96 11 98 11 95 11 38 11 123 11 124 11 120 11 61 11 128 11 122 11 131 18 112 18 48 18 133 11 107 11 52 11 135 11 117 11 44 11 148 1 149 1 150 1 152 1 153 1 154 1 154 1 153 1 155 1 152 1 162 1 150 1 150 1 162 1 163 1 165 1 164 1 166 1 165 1 166 1 167 1 169 1 168 1 170 1 173 1 172 1 174 1 173 1 174 1 175 1 177 1 176 1 120 1 177 1 120 1 122 1 178 1 179 1 162 1 162 1 179 1 164 1 180 1 181 1 166 1 166 1 181 1 168 1 182 1 183 1 170 1 170 1 183 1 172 1 184 1 185 1 174 1 174 1 185 1 176 1 43 1 45 1 177 1 177 1 45 1 175 1 47 1 49 1 173 1 173 1 49 1 171 1 51 1 53 1 169 1 169 1 53 1 167 1 55 1 57 1 165 1 165 1 57 1 163 1 148 1 57 1 146 1 146 1 57 1 92 1 144 1 91 1 142 1 222 20 76 20 56 20 241 20 240 20 121 20 56 20 54 20 229 20 229 20 54 20 231 20 52 20 50 20 133 20 133 20 50 20 234 20 48 20 46 20 131 20 131 20 46 20 237 20 44 20 42 20 135 20 135 20 42 20 240 20 217 11 256 11 202 11 202 11 256 11 257 11 202 4 257 4 200 4 200 4 257 4 258 4 136 4 259 4 137 4 137 4 259 4 260 4 220 11 262 11 218 11 218 11 262 11 263 11 218 4 263 4 254 4 254 4 263 4 264 4 157 4 265 4 145 4 145 4 265 4 266 4 207 11 270 11 209 11 209 11 270 11 271 11 190 11 272 11 188 11 188 11 272 11 273 11 214 2 274 2 207 2 207 2 274 2 270 2 197 4 275 4 190 4 190 4 275 4 272 4 201 11 276 11 206 11 206 11 276 11 277 11 199 4 279 4 186 4 186 4 279 4 280 4 9 4 205 4 94 4 94 4 20 4 9 4 77 4 195 4 85 4 85 4 195 4 293 4 211 23 212 23 195 23 195 24 212 24 194 24 148 4 304 4 57 4 57 4 304 4 73 4 2 4 299 4 222 4 2 4 222 4 56 4 56 4 17 4 2 4 111 11 56 11 229 11 111 11 229 11 301 11 57 11 73 11 163 11 163 11 73 11 302 11 171 11 62 11 306 11 169 0 307 0 51 0 51 0 307 0 63 0 177 0 308 0 43 0 43 0 308 0 64 0 236 4 309 4 235 4 181 0 312 0 168 0 168 0 312 0 313 0 170 11 314 11 182 11 161 4 317 4 153 4 153 4 317 4 318 4 126 4 127 4 241 4 176 4 323 4 120 4 120 4 323 4 123 4 185 0 324 0 176 0 176 0 324 0 323 0 233 4 326 4 232 4 164 4 330 4 166 4 166 4 330 4 331 4 238 0 334 0 244 0 244 0 334 0 335 0 183 0 336 0 172 0 172 0 336 0 337 0 239 4 333 4 238 4 172 4 337 4 174 4 174 4 337 4 338 4 53 11 66 11 167 11 167 11 66 11 340 11 5 4 342 4 219 4 5 4 219 4 93 4 93 4 18 4 5 4 146 0 343 0 144 0 144 0 343 0 344 0 180 2 246 2 181 2 124 31 324 31 185 31 154 0 351 0 152 0 152 0 351 0 357 0 230 4 355 4 226 4 152 4 357 4 162 4 162 4 357 4 358 4 159 4 363 4 149 4 149 4 363 4 364 4 149 11 364 11 151 11 151 11 364 11 365 11 25 4 366 4 203 4 25 4 203 4 79 4 79 4 27 4 25 4 140 0 367 0 368 0 114 0 237 0 46 0 45 11 59 11 175 11 175 11 59 11 370 11 137 11 260 11 143 11 143 11 260 11 372 11 259 0 156 0 373 0 158 0 265 0 157 0 275 0 198 0 376 0 145 11 266 11 147 11 147 11 266 11 267 11 187 0 290 0 377 0 187 4 377 4 95 4 95 4 377 4 86 4 166 11 331 11 180 11 180 11 331 11 348 11 174 11 338 11 184 11 168 4 313 4 170 4 116 0 379 0 240 0 116 40 240 40 42 40 153 11 318 11 155 11 155 11 318 11 350 11 191 0 298 0 378 0 191 4 378 4 99 4 99 4 378 4 100 4 150 0 303 0 148 0 148 0 303 0 304 0 165 0 341 0 55 0 55 0 341 0 67 0 186 11 280 11 139 11 139 11 280 11 281 11 144 4 344 4 91 4 91 4 344 4 90 4 162 11 358 11 178 11 178 11 358 11 354 11 140 4 368 4 81 4 81 4 368 4 83 4 241 0 322 0 242 0 242 0 322 0 346 0 173 0 371 0 47 0 47 0 371 0 60 0 755 1 385 1 750 1 750 1 385 1 387 1 750 1 387 1 749 1 749 1 387 1 383 1 749 1 383 1 753 1 753 1 383 1 755 1 755 1 383 1 382 1 755 1 382 1 385 1 763 1 409 1 758 1 758 1 409 1 411 1 758 1 411 1 757 1 757 1 411 1 407 1 757 1 407 1 761 1 761 1 407 1 763 1 763 1 407 1 406 1 763 1 406 1 409 1 765 1 766 1 401 1 401 1 766 1 771 1 401 1 771 1 398 1 398 1 771 1 769 1 398 1 769 1 399 1 399 1 769 1 765 1 399 1 765 1 403 1 403 1 765 1 401 1 779 1 393 1 774 1 774 1 393 1 395 1 774 1 395 1 773 1 773 1 395 1 391 1 773 1 391 1 777 1 777 1 391 1 779 1 779 1 391 1 390 1 779 1 390 1 393 1 787 1 414 1 782 1 782 436 414 436 417 436 782 1 417 1 419 1 787 437 785 437 414 437 414 438 785 438 415 438 415 439 785 439 781 439 415 440 781 440 419 440 419 441 781 441 782 441</p>
        </triangles>
        <triangles material="Material_003-material" count="8">
          <input semantic="VERTEX" source="#Atolyegercek-mesh-vertices" offset="0"/>
          <input semantic="NORMAL" source="#Atolyegercek-mesh-normals" offset="1"/>
          <p>755 1 750 1 753 1 753 1 750 1 749 1 763 1 758 1 761 1 761 1 758 1 757 1 771 1 766 1 769 1 769 1 766 1 765 1 782 432 781 432 787 432 787 433 781 433 785 433</p>
        </triangles>
        <triangles material="Material_004-material" count="9">
          <input semantic="VERTEX" source="#Atolyegercek-mesh-vertices" offset="0"/>
          <input semantic="NORMAL" source="#Atolyegercek-mesh-normals" offset="1"/>
          <p>529 11 531 11 532 11 529 11 532 11 433 11 421 11 423 11 533 11 533 11 423 11 534 11 430 0 434 0 535 0 535 0 434 0 536 0 535 0 536 0 537 0 434 4 433 4 536 4 536 4 433 4 532 4</p>
        </triangles>
        <triangles material="Material_005-material" count="290">
          <input semantic="VERTEX" source="#Atolyegercek-mesh-vertices" offset="0"/>
          <input semantic="NORMAL" source="#Atolyegercek-mesh-normals" offset="1"/>
          <p>441 1 442 1 443 1 443 69 442 69 444 69 443 1 444 1 445 1 446 70 447 70 448 70 443 1 445 1 448 1 448 71 445 71 449 71 448 1 449 1 446 1 445 72 450 72 449 72 449 1 450 1 451 1 449 1 451 1 452 1 452 73 451 73 444 73 452 74 444 74 442 74 453 1 454 1 455 1 455 75 454 75 456 75 455 1 456 1 457 1 458 1 459 1 453 1 453 76 459 76 460 76 453 1 460 1 454 1 460 78 462 78 463 78 463 1 462 1 456 1 459 79 462 79 460 79 465 1 466 1 467 1 467 1 466 1 468 1 467 80 468 80 469 80 465 1 470 1 472 1 465 1 472 1 466 1 468 81 466 81 473 81 473 82 466 82 474 82 473 1 474 1 475 1 470 84 475 84 472 84 457 2 456 2 481 2 481 2 456 2 482 2 500 1 504 1 515 1 515 1 504 1 516 1 452 2 442 2 515 2 515 2 442 2 500 2 522 2 498 2 449 2 449 2 498 2 446 2 494 1 498 1 523 1 523 1 498 1 522 1 525 2 493 2 523 2 523 2 493 2 494 2 491 1 493 1 526 1 526 1 493 1 525 1 482 1 485 1 481 1 481 1 485 1 486 1 462 93 506 93 456 93 516 11 517 11 515 11 512 11 473 11 507 11 507 11 473 11 475 11 462 2 459 2 526 2 526 2 459 2 491 2 468 2 473 2 504 2 504 2 473 2 516 2 427 2 428 2 509 2 509 2 428 2 475 2 509 2 475 2 470 2 509 2 470 2 511 2 511 2 470 2 420 2 511 2 420 2 426 2 423 2 430 2 534 2 534 2 430 2 535 2 550 1 478 1 535 1 535 1 478 1 534 1 534 94 478 94 477 94 534 1 477 1 549 1 551 0 466 0 552 0 552 0 466 0 472 0 552 0 472 0 553 0 551 4 554 4 466 4 466 4 554 4 474 4 472 2 476 2 553 2 553 2 476 2 556 2 552 1 553 1 555 1 555 1 553 1 556 1 450 4 445 4 562 4 562 4 445 4 560 4 451 102 567 102 568 102 451 2 568 2 444 2 444 103 568 103 569 103 444 104 569 104 557 104 557 2 559 2 444 2 445 0 444 0 560 0 560 0 444 0 559 0 582 123 581 123 583 123 582 123 583 123 584 123 584 124 583 124 585 124 585 125 583 125 586 125 585 126 586 126 587 126 587 127 586 127 588 127 587 128 588 128 589 128 589 129 588 129 590 129 589 130 590 130 591 130 591 131 590 131 592 131 591 132 592 132 593 132 593 133 592 133 594 133 593 134 594 134 595 134 595 135 594 135 596 135 608 149 580 149 582 149 584 159 612 159 582 159 582 160 612 160 608 160 621 172 622 172 623 172 623 173 622 173 624 173 623 174 624 174 625 174 623 175 625 175 626 175 626 176 625 176 627 176 626 177 627 177 628 177 626 178 628 178 629 178 629 179 628 179 630 179 629 180 630 180 631 180 629 181 631 181 632 181 632 182 631 182 633 182 632 183 633 183 634 183 634 184 633 184 635 184 634 185 635 185 636 185 634 186 636 186 637 186 637 187 636 187 638 187 637 188 638 188 639 188 639 189 638 189 640 189 639 190 640 190 641 190 579 197 644 197 581 197 581 198 644 198 645 198 581 123 645 123 583 123 583 199 645 199 586 199 643 200 621 200 644 200 644 201 621 201 623 201 644 123 623 123 645 123 645 202 623 202 646 202 645 203 646 203 586 203 586 126 646 126 588 126 648 213 598 213 596 213 648 134 596 134 649 134 649 214 596 214 594 214 649 132 594 132 650 132 650 215 594 215 592 215 650 216 592 216 651 216 651 217 592 217 590 217 651 218 590 218 652 218 652 219 590 219 588 219 652 220 588 220 646 220 639 222 570 222 648 222 637 226 639 226 648 226 637 227 648 227 649 227 634 228 637 228 649 228 634 229 649 229 650 229 632 130 634 130 650 130 632 230 650 230 651 230 629 128 632 128 651 128 629 231 651 231 652 231 626 232 629 232 652 232 626 233 652 233 646 233 623 202 626 202 646 202 585 234 653 234 584 234 584 235 653 235 654 235 584 236 654 236 612 236 612 237 654 237 613 237 613 238 654 238 655 238 613 239 655 239 615 239 615 240 655 240 619 240 619 241 655 241 597 241 597 242 655 242 595 242 595 243 655 243 656 243 595 244 656 244 593 244 593 245 656 245 591 245 591 246 656 246 589 246 589 247 656 247 587 247 587 248 656 248 653 248 587 249 653 249 585 249 551 254 627 254 625 254 552 257 630 257 628 257 552 258 628 258 627 258 555 260 638 260 636 260 624 262 622 262 551 262 551 263 622 263 621 263 551 264 621 264 643 264 635 271 633 271 555 271 599 2 601 2 463 2 463 274 601 274 603 274 463 2 603 2 460 2 460 275 603 275 605 275 460 276 605 276 606 276 656 1 657 1 653 1 653 1 657 1 658 1 654 0 653 0 658 0 614 0 454 0 606 0 606 0 454 0 460 0 656 11 655 11 657 11 614 4 617 4 454 4 663 284 664 284 665 284 665 285 664 285 666 285 665 286 666 286 667 286 667 287 666 287 668 287 668 288 666 288 669 288 668 289 669 289 670 289 670 290 669 290 671 290 670 291 671 291 672 291 672 292 671 292 673 292 672 293 673 293 674 293 674 294 673 294 675 294 674 295 675 295 676 295 676 296 675 296 677 296 676 297 677 297 678 297 678 298 677 298 679 298 696 317 697 317 698 317 698 318 697 318 699 318 698 319 699 319 700 319 700 320 699 320 701 320 700 228 701 228 702 228 702 321 701 321 703 321 702 322 703 322 704 322 704 323 703 323 705 323 704 324 705 324 706 324 706 325 705 325 707 325 706 326 707 326 708 326 708 327 707 327 709 327 708 328 709 328 710 328 710 329 709 329 664 329 710 284 664 284 662 284 697 343 679 343 699 343 699 344 679 344 677 344 699 345 677 345 701 345 701 346 677 346 675 346 701 132 675 132 703 132 703 347 675 347 673 347 703 348 673 348 705 348 705 349 673 349 671 349 705 350 671 350 707 350 707 351 671 351 669 351 707 352 669 352 709 352 709 353 669 353 666 353 709 354 666 354 664 354 718 357 719 357 710 357 710 358 719 358 720 358 710 359 720 359 708 359 708 360 720 360 721 360 708 361 721 361 722 361 708 362 722 362 706 362 706 363 722 363 723 363 706 364 723 364 704 364 704 365 723 365 724 365 704 366 724 366 725 366 704 367 725 367 702 367 702 368 725 368 726 368 702 369 726 369 727 369 702 370 727 370 700 370 700 371 727 371 728 371 700 372 728 372 698 372 698 373 728 373 729 373 698 374 729 374 696 374 667 385 734 385 665 385 665 386 734 386 735 386 738 402 728 402 727 402 738 403 727 403 726 403 724 407 723 407 739 407 739 408 723 408 722 408 739 409 722 409 721 409 690 412 689 412 740 412 740 413 689 413 734 413 740 414 734 414 667 414 667 415 668 415 740 415 740 416 668 416 670 416 740 417 670 417 672 417 672 418 674 418 740 418 740 419 674 419 741 419 741 420 674 420 676 420 741 421 676 421 678 421 678 422 680 422 741 422 741 1 742 1 740 1 740 1 742 1 743 1 741 423 680 423 742 423 742 11 680 11 455 11 455 11 680 11 453 11 453 11 680 11 681 11 681 2 683 2 453 2 453 424 683 424 684 424 453 2 684 2 458 2 740 427 743 427 690 427 737 11 738 11 467 11 467 11 738 11 465 11 465 11 738 11 744 11 739 1 745 1 738 1 738 1 745 1 744 1 471 2 465 2 745 2 745 2 465 2 744 2 469 4 737 4 467 4 443 2 695 2 693 2 443 2 692 2 441 2 441 2 692 2 659 2 443 11 448 11 748 11 748 11 448 11 747 11</p>
        </triangles>
      </mesh>
    </geometry>
  </library_geometries>
  <library_visual_scenes>
    <visual_scene id="Scene" name="Scene">
      <node id="Atolyegercek" name="Atolyegercek" type="NODE">
        <matrix sid="transform">1 0 0 0 0 1 0 0 0 0 1 0 0 0 0 1</matrix>
        <instance_geometry url="#Atolyegercek-mesh" name="Atolyegercek">
          <bind_material>
            <technique_common>
              <instance_material symbol="Material_001-material" target="#Material_001-material"/>
              <instance_material symbol="Material_002-material" target="#Material_002-material"/>
              <instance_material symbol="Material_003-material" target="#Material_003-material"/>
              <instance_material symbol="Material_004-material" target="#Material_004-material"/>
              <instance_material symbol="Material_005-material" target="#Material_005-material"/>
            </technique_common>
          </bind_material>
        </instance_geometry>
      </node>
      <node id="Camera" name="Camera" type="NODE">
        <matrix sid="transform">0.6859207 -0.3240135 0.6515582 7.358891 0.7276763 0.3054208 -0.6141704 -6.925791 0 0.8953956 0.4452714 4.958309 0 0 0 1</matrix>
        <instance_camera url="#Camera-camera"/>
      </node>
      <node id="Light" name="Light" type="NODE">
        <matrix sid="transform">-0.2908646 -0.7711008 0.5663932 4.076245 0.9551712 -0.1998834 0.2183912 1.005454 -0.05518906 0.6045247 0.7946723 5.903862 0 0 0 1</matrix>
        <instance_light url="#Light-light"/>
      </node>
    </visual_scene>
  </library_visual_scenes>
  <scene>
    <instance_visual_scene url="#Scene"/>
  </scene>
</COLLADA>