<?xml version="1.0" encoding="utf-8"?>
<COLLADA xmlns="http://www.collada.org/2005/11/COLLADASchema" version="1.4.1" xmlns:xsi="http://www.w3.org/2001/XMLSchema-instance">
  <asset>
    <contributor>
      <author>Blender User</author>
      <authoring_tool>Blender 2.83.5 commit date:2020-08-19, commit time:06:07, hash:c2b144df395f</authoring_tool>
    </contributor>
    <created>2020-08-28T12:13:12</created>
    <modified>2020-08-28T12:13:12</modified>
    <unit name="meter" meter="1"/>
    <up_axis>Z_UP</up_axis>
  </asset>
  <library_cameras>
    <camera id="Camera-camera" name="Camera">
      <optics>
        <technique_common>
          <perspective>
            <xfov sid="xfov">39.59775</xfov>
            <aspect_ratio>1.777778</aspect_ratio>
            <znear sid="znear">0.1</znear>
            <zfar sid="zfar">100</zfar>
          </perspective>
        </technique_common>
      </optics>
      <extra>
        <technique profile="blender">
          <shiftx sid="shiftx" type="float">0</shiftx>
          <shifty sid="shifty" type="float">0</shifty>
          <dof_distance sid="dof_distance" type="float">10</dof_distance>
        </technique>
      </extra>
    </camera>
  </library_cameras>
  <library_lights>
    <light id="Light-light" name="Light">
      <technique_common>
        <point>
          <color sid="color">1000 1000 1000</color>
          <constant_attenuation>1</constant_attenuation>
          <linear_attenuation>0</linear_attenuation>
          <quadratic_attenuation>0.00111109</quadratic_attenuation>
        </point>
      </technique_common>
      <extra>
        <technique profile="blender">
          <type sid="type" type="int">0</type>
          <flag sid="flag" type="int">0</flag>
          <mode sid="mode" type="int">1</mode>
          <gamma sid="blender_gamma" type="float">1</gamma>
          <red sid="red" type="float">1</red>
          <green sid="green" type="float">1</green>
          <blue sid="blue" type="float">1</blue>
          <shadow_r sid="blender_shadow_r" type="float">0</shadow_r>
          <shadow_g sid="blender_shadow_g" type="float">0</shadow_g>
          <shadow_b sid="blender_shadow_b" type="float">0</shadow_b>
          <energy sid="blender_energy" type="float">1000</energy>
          <dist sid="blender_dist" type="float">29.99998</dist>
          <spotsize sid="spotsize" type="float">75</spotsize>
          <spotblend sid="spotblend" type="float">0.15</spotblend>
          <att1 sid="att1" type="float">0</att1>
          <att2 sid="att2" type="float">1</att2>
          <falloff_type sid="falloff_type" type="int">2</falloff_type>
          <clipsta sid="clipsta" type="float">0.04999995</clipsta>
          <clipend sid="clipend" type="float">30.002</clipend>
          <bias sid="bias" type="float">1</bias>
          <soft sid="soft" type="float">3</soft>
          <bufsize sid="bufsize" type="int">2880</bufsize>
          <samp sid="samp" type="int">3</samp>
          <buffers sid="buffers" type="int">1</buffers>
          <area_shape sid="area_shape" type="int">1</area_shape>
          <area_size sid="area_size" type="float">0.1</area_size>
          <area_sizey sid="area_sizey" type="float">0.1</area_sizey>
          <area_sizez sid="area_sizez" type="float">1</area_sizez>
        </technique>
      </extra>
    </light>
  </library_lights>
  <library_effects>
    <effect id="Material_001-effect">
      <profile_COMMON>
        <newparam sid="ahsap_jpg-surface">
          <surface type="2D">
            <init_from>ahsap_jpg</init_from>
          </surface>
        </newparam>
        <newparam sid="ahsap_jpg-sampler">
          <sampler2D>
            <source>ahsap_jpg-surface</source>
          </sampler2D>
        </newparam>
        <technique sid="common">
          <lambert>
            <emission>
              <color sid="emission">0 0 0 1</color>
            </emission>
            <diffuse>
              <texture texture="ahsap_jpg-sampler"/>
            </diffuse>
            <index_of_refraction>
              <float sid="ior">1.45</float>
            </index_of_refraction>
          </lambert>
        </technique>
      </profile_COMMON>
    </effect>
  </library_effects>
  <library_images>
    <image id="ahsap_jpg" name="ahsap_jpg">
      <init_from>../materials/textures/ahsap.png</init_from>
    </image>
  </library_images>
  <library_materials>
    <material id="Material_001-material" name="Material.001">
      <instance_effect url="#Material_001-effect"/>
    </material>
  </library_materials>
  <library_geometries>
    <geometry id="Kutu1-mesh" name="Kutu1">
      <mesh>
        <source id="Kutu1-mesh-positions">
          <float_array id="Kutu1-mesh-positions-array" count="96">-0.15 0.1499998 -0.09499996 -0.15 0.2499998 -0.09499996 -0.15 0.1499998 0.004999995 -0.15 0.2499998 0.004999995 0.1499996 0.2499998 -0.09499996 0.1499996 0.1499998 -0.09499996 0.1499996 0.2499998 0.004999995 0.1499996 0.1499998 0.004999995 0.3000002 0.1499998 -0.09499996 0.3000002 0.1499998 0.004999995 0.3000002 -0.15 -0.09499996 0.1499996 -0.15 -0.09499996 0.3000002 -0.15 0.004999995 0.1499996 -0.15 0.004999995 0.1499996 -0.2500001 -0.09499996 0.1499996 -0.2500001 0.004999995 -0.15 -0.2500001 -0.09499996 -0.15 -0.15 -0.09499996 -0.15 -0.2500001 0.004999995 -0.15 -0.15 0.004999995 -0.3000002 -0.15 -0.09499996 -0.3000002 -0.15 0.004999995 -0.3000002 0.1499998 -0.09499996 -0.3000002 0.1499998 0.004999995 0.3000002 -0.2500001 -0.115 0.3000002 0.2499998 -0.115 0.3000002 0.2499998 0.385 0.3000002 -0.2500001 0.385 -0.3000002 -0.2500001 -0.115 -0.3000002 -0.2500001 0.385 -0.3000002 0.2499998 -0.115 -0.3000002 0.2499998 0.385</float_array>
          <technique_common>
            <accessor source="#Kutu1-mesh-positions-array" count="32" stride="3">
              <param name="X" type="float"/>
              <param name="Y" type="float"/>
              <param name="Z" type="float"/>
            </accessor>
          </technique_common>
        </source>
        <source id="Kutu1-mesh-normals">
          <float_array id="Kutu1-mesh-normals-array" count="36">1 0 0 -1 0 0 0 -1 0 0 1 0 0 0 -1 0 0 1 1 -2.79397e-7 0 0 -1 -1.24176e-6 0 -1 1.30712e-7 -1 2.79397e-7 0 0 1 1.24176e-6 0 1 -1.30712e-7</float_array>
          <technique_common>
            <accessor source="#Kutu1-mesh-normals-array" count="12" stride="3">
              <param name="X" type="float"/>
              <param name="Y" type="float"/>
              <param name="Z" type="float"/>
            </accessor>
          </technique_common>
        </source>
        <vertices id="Kutu1-mesh-vertices">
          <input semantic="POSITION" source="#Kutu1-mesh-positions"/>
        </vertices>
        <triangles material="Material_001-material" count="72">
          <input semantic="VERTEX" source="#Kutu1-mesh-vertices" offset="0"/>
          <input semantic="NORMAL" source="#Kutu1-mesh-normals" offset="1"/>
          <p>0 0 1 0 2 0 2 0 1 0 3 0 4 1 5 1 6 1 6 1 5 1 7 1 5 2 8 2 7 2 7 2 8 2 9 2 10 3 11 3 12 3 12 3 11 3 13 3 11 1 14 1 13 1 13 1 14 1 15 1 16 0 17 0 18 0 18 0 17 0 19 0 17 3 20 3 19 3 19 3 20 3 21 3 22 2 0 2 23 2 23 2 0 2 2 2 23 4 2 4 21 4 21 4 2 4 19 4 19 4 2 4 7 4 19 4 7 4 13 4 13 4 7 4 9 4 13 4 9 4 12 4 3 4 6 4 2 4 2 4 6 4 7 4 15 4 18 4 13 4 13 4 18 4 19 4 22 5 17 5 0 5 0 5 17 5 11 5 0 5 11 5 5 5 5 5 11 5 10 5 5 5 10 5 8 5 22 5 20 5 17 5 16 5 14 5 17 5 17 5 14 5 11 5 4 5 1 5 5 5 5 5 1 5 0 5 12 6 24 6 10 6 10 0 24 0 25 0 10 0 25 0 8 0 8 0 25 0 9 0 9 0 25 0 26 0 9 0 26 0 27 0 24 0 12 0 27 0 27 0 12 0 9 0 18 2 28 2 16 2 16 2 28 2 24 2 16 7 24 7 14 7 14 2 24 2 15 2 15 2 24 2 27 2 15 2 27 2 29 2 28 2 18 2 29 2 29 8 18 8 15 8 23 9 30 9 22 9 22 1 30 1 28 1 22 1 28 1 20 1 20 1 28 1 21 1 21 1 28 1 29 1 21 1 29 1 31 1 30 1 23 1 31 1 31 1 23 1 21 1 6 3 25 3 4 3 4 3 25 3 30 3 4 10 30 10 1 10 1 3 30 3 3 3 3 3 30 3 31 3 3 3 31 3 26 3 25 3 6 3 26 3 26 11 6 11 3 11 26 5 31 5 27 5 27 5 31 5 29 5 30 4 25 4 28 4 28 4 25 4 24 4</p>
        </triangles>
      </mesh>
    </geometry>
  </library_geometries>
  <library_visual_scenes>
    <visual_scene id="Scene" name="Scene">
      <node id="Kutu1" name="Kutu1" type="NODE">
        <matrix sid="transform">1 0 0 0 0 1 0 0 0 0 1 0 0 0 0 1</matrix>
        <instance_geometry url="#Kutu1-mesh" name="Kutu1">
          <bind_material>
            <technique_common>
              <instance_material symbol="Material_001-material" target="#Material_001-material"/>
            </technique_common>
          </bind_material>
        </instance_geometry>
      </node>
      <node id="Camera" name="Camera" type="NODE">
        <matrix sid="transform">0.6859207 -0.3240135 0.6515582 7.358891 0.7276763 0.3054208 -0.6141704 -6.925791 0 0.8953956 0.4452714 4.958309 0 0 0 1</matrix>
        <instance_camera url="#Camera-camera"/>
      </node>
      <node id="Light" name="Light" type="NODE">
        <matrix sid="transform">-0.2908646 -0.7711008 0.5663932 4.076245 0.9551712 -0.1998834 0.2183912 1.005454 -0.05518906 0.6045247 0.7946723 5.903862 0 0 0 1</matrix>
        <instance_light url="#Light-light"/>
      </node>
    </visual_scene>
  </library_visual_scenes>
  <scene>
    <instance_visual_scene url="#Scene"/>
  </scene>
</COLLADA>
