<?xml version="1.0" encoding="utf-8"?>
<COLLADA xmlns="http://www.collada.org/2005/11/COLLADASchema" version="1.4.1" xmlns:xsi="http://www.w3.org/2001/XMLSchema-instance">
  <asset>
    <contributor>
      <author>Blender User</author>
      <authoring_tool>Blender 2.83.5 commit date:2020-08-19, commit time:06:07, hash:c2b144df395f</authoring_tool>
    </contributor>
    <created>2020-10-15T09:52:25</created>
    <modified>2020-10-15T09:52:25</modified>
    <unit name="meter" meter="1"/>
    <up_axis>Z_UP</up_axis>
  </asset>
  <library_cameras>
    <camera id="Camera-camera" name="Camera">
      <optics>
        <technique_common>
          <perspective>
            <xfov sid="xfov">39.59775</xfov>
            <aspect_ratio>1.777778</aspect_ratio>
            <znear sid="znear">0.1</znear>
            <zfar sid="zfar">100</zfar>
          </perspective>
        </technique_common>
      </optics>
      <extra>
        <technique profile="blender">
          <shiftx sid="shiftx" type="float">0</shiftx>
          <shifty sid="shifty" type="float">0</shifty>
          <dof_distance sid="dof_distance" type="float">10</dof_distance>
        </technique>
      </extra>
    </camera>
  </library_cameras>
  <library_lights>
    <light id="Light-light" name="Light">
      <technique_common>
        <point>
          <color sid="color">1000 1000 1000</color>
          <constant_attenuation>1</constant_attenuation>
          <linear_attenuation>0</linear_attenuation>
          <quadratic_attenuation>0.00111109</quadratic_attenuation>
        </point>
      </technique_common>
      <extra>
        <technique profile="blender">
          <type sid="type" type="int">0</type>
          <flag sid="flag" type="int">0</flag>
          <mode sid="mode" type="int">1</mode>
          <gamma sid="blender_gamma" type="float">1</gamma>
          <red sid="red" type="float">1</red>
          <green sid="green" type="float">1</green>
          <blue sid="blue" type="float">1</blue>
          <shadow_r sid="blender_shadow_r" type="float">0</shadow_r>
          <shadow_g sid="blender_shadow_g" type="float">0</shadow_g>
          <shadow_b sid="blender_shadow_b" type="float">0</shadow_b>
          <energy sid="blender_energy" type="float">1000</energy>
          <dist sid="blender_dist" type="float">29.99998</dist>
          <spotsize sid="spotsize" type="float">75</spotsize>
          <spotblend sid="spotblend" type="float">0.15</spotblend>
          <att1 sid="att1" type="float">0</att1>
          <att2 sid="att2" type="float">1</att2>
          <falloff_type sid="falloff_type" type="int">2</falloff_type>
          <clipsta sid="clipsta" type="float">0.04999995</clipsta>
          <clipend sid="clipend" type="float">30.002</clipend>
          <bias sid="bias" type="float">1</bias>
          <soft sid="soft" type="float">3</soft>
          <bufsize sid="bufsize" type="int">2880</bufsize>
          <samp sid="samp" type="int">3</samp>
          <buffers sid="buffers" type="int">1</buffers>
          <area_shape sid="area_shape" type="int">1</area_shape>
          <area_size sid="area_size" type="float">0.1</area_size>
          <area_sizey sid="area_sizey" type="float">0.1</area_sizey>
          <area_sizez sid="area_sizez" type="float">1</area_sizez>
        </technique>
      </extra>
    </light>
  </library_lights>
  <library_effects>
    <effect id="Material_001-effect">
      <profile_COMMON>
        <newparam sid="qr_png-surface">
          <surface type="2D">
            <init_from>qr_png</init_from>
          </surface>
        </newparam>
        <newparam sid="qr_png-sampler">
          <sampler2D>
            <source>qr_png-surface</source>
          </sampler2D>
        </newparam>
        <technique sid="common">
          <lambert>
            <emission>
              <color sid="emission">0 0 0 1</color>
            </emission>
            <diffuse>
              <texture texture="qr_png-sampler" texcoord="UVMap"/>
            </diffuse>
            <index_of_refraction>
              <float sid="ior">1.45</float>
            </index_of_refraction>
          </lambert>
        </technique>
      </profile_COMMON>
    </effect>
    <effect id="Material_002-effect">
      <profile_COMMON>
        <technique sid="common">
          <lambert>
            <emission>
              <color sid="emission">0 0 0 1</color>
            </emission>
            <diffuse>
              <color sid="diffuse">0.01170721 0.8000001 0 1</color>
            </diffuse>
            <reflectivity>
              <float sid="specular">0.5</float>
            </reflectivity>
          </lambert>
        </technique>
      </profile_COMMON>
    </effect>
    <effect id="Material_003-effect">
      <profile_COMMON>
        <technique sid="common">
          <lambert>
            <emission>
              <color sid="emission">0 0 0 1</color>
            </emission>
            <diffuse>
              <color sid="diffuse">0.7982973 0.8000001 0 1</color>
            </diffuse>
            <reflectivity>
              <float sid="specular">0.5</float>
            </reflectivity>
          </lambert>
        </technique>
      </profile_COMMON>
    </effect>
    <effect id="Material_004-effect">
      <profile_COMMON>
        <technique sid="common">
          <lambert>
            <emission>
              <color sid="emission">0 0 0 1</color>
            </emission>
            <diffuse>
              <color sid="diffuse">0.8000001 0 7.52623e-4 1</color>
            </diffuse>
            <reflectivity>
              <float sid="specular">0.5</float>
            </reflectivity>
          </lambert>
        </technique>
      </profile_COMMON>
    </effect>
    <effect id="Material_005-effect">
      <profile_COMMON>
        <technique sid="common">
          <lambert>
            <emission>
              <color sid="emission">0 0 0 1</color>
            </emission>
            <diffuse>
              <color sid="diffuse">0 0.01202512 0.8000001 1</color>
            </diffuse>
            <reflectivity>
              <float sid="specular">0.5</float>
            </reflectivity>
          </lambert>
        </technique>
      </profile_COMMON>
    </effect>
  </library_effects>
  <library_images>
    <image id="qr_png" name="qr_png">
      <init_from>qr.png</init_from>
    </image>
  </library_images>
  <library_materials>
    <material id="Material_001-material" name="Material.001">
      <instance_effect url="#Material_001-effect"/>
    </material>
    <material id="Material_002-material" name="Material.002">
      <instance_effect url="#Material_002-effect"/>
    </material>
    <material id="Material_003-material" name="Material.003">
      <instance_effect url="#Material_003-effect"/>
    </material>
    <material id="Material_004-material" name="Material.004">
      <instance_effect url="#Material_004-effect"/>
    </material>
    <material id="Material_005-material" name="Material.005">
      <instance_effect url="#Material_005-effect"/>
    </material>
  </library_materials>
  <library_geometries>
    <geometry id="Sarjdeneme-mesh" name="Sarjdeneme">
      <mesh>
        <source id="Sarjdeneme-mesh-positions">
          <float_array id="Sarjdeneme-mesh-positions-array" count="426">0.315 0.365 0 0.31 0.365 0 0.315 0.415 0 0.31 0.415 0 0.31 0.365 0.000999987 0.315 0.365 0.000999987 0.31 0.415 0.000999987 0.315 0.415 0.000999987 0.285 0.415 0 0.29 0.415 0 0.285 0.365 0 0.29 0.365 0 0.29 0.415 0.000999987 0.285 0.415 0.000999987 0.29 0.365 0.000999987 0.285 0.365 0.000999987 0.5986602 0.505 0.331 0.5986602 0.505 0.2206667 0.6 0.51 0.331 0.5986602 0.505 0.1103333 0.6 0.51 0 0.5986602 0.505 0 0.595 0.5013397 0 0.595 0.5013397 0.1103333 0.59 0.5 0 0.595 0.5013397 0.2206667 0.59 0.5 0.331 0.595 0.5013397 0.331 0.3595612 0.5 0.2511059 0.356182 0.5 0.2440889 0.350093 0.5 0.239233 0.301 0.5 0.331 0.350093 0.5 0.2707669 0.356182 0.5 0.2659111 0.3595612 0.5 0.2588941 0.301 0.5 0.2725 0.3425 0.5 0.2725 0.301 0.5 0.000999987 0.3425 0.5 0.2375 0.301 0.5 0.2375 0.301 0.5 0 0.6 0.6 0.331 0 0.6 0.331 0.299 0.5 0.331 0.301 0.499 0.331 0.299 0.499 0.331 0 0.51 0.331 0.001339733 0.505 0.331 0.00999999 0.5 0.331 0.004999995 0.5013397 0.331 0.004999995 0.5013397 0.2206667 0.004999995 0.5013397 0.1103333 0.00999999 0.5 0 0.004999995 0.5013397 0 0.001339733 0.505 0 0.001339733 0.505 0.1103333 0 0.51 0 0.001339733 0.505 0.2206667 0.2404387 0.5 0.2511059 0.2404387 0.5 0.2588941 0.2438179 0.5 0.2659111 0.299 0.5 0 0.299 0.5 0.000999987 0.249907 0.5 0.239233 0.2438179 0.5 0.2440889 0.299 0.5 0.2375 0.2575 0.5 0.2375 0.249907 0.5 0.2707669 0.2575 0.5 0.2725 0.299 0.5 0.2725 0.249907 0.4913 0.2707669 0.2438179 0.4913 0.2659111 0.2575 0.4913 0.2725 0.356182 0.4913 0.2659111 0.3425 0.4913 0.2725 0.350093 0.4913 0.2707669 0.3595612 0.4913 0.2588941 0.2404387 0.4913 0.2588941 0.3595612 0.4913 0.2511059 0.2404387 0.4913 0.2511059 0.356182 0.4913 0.2440889 0.2438179 0.4913 0.2440889 0.3425 0.4913 0.2375 0.2575 0.4913 0.2375 0.249907 0.4913 0.239233 0.350093 0.4913 0.239233 0.299 0.499 0.2375 0.301 0.499 0.2375 0.301 0.499 0.000999987 0.301 0.499 0 0.299 0.499 0.000999987 0.299 0.499 0 0.299 0.499 0.2725 0.301 0.499 0.2725 0 0.6 -0.00999999 0.6 0.6 -0.00999999 0 0.49 0 0 0.49 -0.00999999 0.6 0.49 -0.00999999 0.6 0.49 0 0 -1.01 0 0 -1.01 -0.00999999 -0.1 0.49 0 -0.1 0.49 -0.00999999 -0.1 -1.11 0 -0.1 -1.11 -0.00999999 0.7 -1.11 0 0.7 -1.11 -0.00999999 0.7 0.49 0 0.7 0.49 -0.00999999 0.6 -1.01 0 0.6 -1.01 -0.00999999 0.18 0 0 0.1299999 -0.4 0 0.18 0 -0.00999999 0.1299999 -0.4 -0.00999999 0.38 0 0 0.38 0 -0.00999999 0.28 -0.3 0 0.28 -0.3 -0.00999999 0.48 -0.3 0 0.48 -0.3 -0.00999999 0.28 -0.7738652 0 0.28 -0.7738652 -0.00999999 0.28 -0.4 0 0.28 -0.4 -0.00999999 0.249907 0.4913 0.2707669 0.2438179 0.4913 0.2659111 0.2575 0.4913 0.2725 0.356182 0.4913 0.2659111 0.3425 0.4913 0.2725 0.350093 0.4913 0.2707669 0.3595612 0.4913 0.2588941 0.2404387 0.4913 0.2588941 0.3595612 0.4913 0.2511059 0.2404387 0.4913 0.2511059 0.356182 0.4913 0.2440889 0.2438179 0.4913 0.2440889 0.3425 0.4913 0.2375 0.2575 0.4913 0.2375 0.249907 0.4913 0.239233 0.350093 0.4913 0.239233</float_array>
          <technique_common>
            <accessor source="#Sarjdeneme-mesh-positions-array" count="142" stride="3">
              <param name="X" type="float"/>
              <param name="Y" type="float"/>
              <param name="Z" type="float"/>
            </accessor>
          </technique_common>
        </source>
        <source id="Sarjdeneme-mesh-normals">
          <float_array id="Sarjdeneme-mesh-normals-array" count="276">0 0 -1 0 0 1 1 0 0 0 -1 0 0 1 0 -1 0 0 0.9659253 -0.2588207 0 0.965919 -0.2588451 0 0.9659233 -0.2588288 0 0.7071177 -0.7070959 0 0.7071047 -0.7071089 0 0.258815 -0.965927 0 0.2588151 -0.965927 0 0.2588086 -0.9659287 0 0.7071176 -0.707096 0 0.7071049 -0.7071087 0 0.7071177 -0.7070959 0 0.7071047 -0.707109 0 1.38435e-7 0 1 -1.38435e-7 0 1 -0.2588168 -0.9659265 0 -0.2588168 -0.9659264 0 -0.7071075 -0.7071061 0 -0.7071076 -0.707106 0 -0.9659259 -0.2588193 0 -0.9659258 -0.2588193 0 -0.9659258 -0.2588193 0 -0.7071074 -0.7071062 0 -0.7071077 -0.7071059 0 -0.7071075 -0.7071061 0 -0.7071076 -0.7071061 0 0 -1 -2.16277e-7 0 -1 8.56027e-7 -7.25477e-7 0 -1 7.25477e-7 0 -1 -0.2225234 0 -0.9749274 -0.2225219 0 -0.9749277 -0.62349 0 -0.7818314 -0.9009687 0 -0.433884 -0.9009675 0 -0.4338867 -0.9009687 0 0.433884 -0.9009675 0 0.4338867 -0.62349 0 0.7818314 -0.2225234 0 0.9749274 -0.2225219 0 0.9749277 -1 1.23633e-5 0 -1 3.02127e-5 0 1.28974e-6 0 1 0.2225219 0 0.9749277 0.2225234 0 0.9749274 0.62349 0 0.7818314 0.9009675 0 0.4338867 0.9009687 0 0.433884 0.9009675 0 -0.4338867 0.9009687 0 -0.433884 0.62349 0 -0.7818314 0.2225219 0 -0.9749277 0.2225234 0 -0.9749274 0 0 1 0 0 1 0 0 1 0 0 1 0 0 1 0 -4.9175e-6 1 0 0 1 0 0 1 0 -4.9175e-6 1 0 0 1 0 0 -1 0 0 -1 0.9922779 -0.1240348 0 0.9922779 -0.1240347 0 -0.9486834 0.3162277 0 -0.9486834 0.3162278 0 -0.9213029 0.3888459 0 0 0 -1 0 0 -1 0 0 -1 0.9213029 -0.3888459 0 0.9486834 -0.3162278 0 0.9486834 -0.3162277 0 -0.9922779 0.1240347 0 -0.9922779 0.1240348 0 0 0 -1 0 -1 -3.53876e-5 0 -1 1.6629e-6 0 -1 -1.76938e-5 0 -1 2.22837e-6 0 -1 -2.36241e-6 0 -1 -1.6629e-6 0 -1 1.76935e-5 0 -1 1.76938e-5</float_array>
          <technique_common>
            <accessor source="#Sarjdeneme-mesh-normals-array" count="92" stride="3">
              <param name="X" type="float"/>
              <param name="Y" type="float"/>
              <param name="Z" type="float"/>
            </accessor>
          </technique_common>
        </source>
        <source id="Sarjdeneme-mesh-map-0">
          <float_array id="Sarjdeneme-mesh-map-0-array" count="1704">0 0 0 0 0 0 0 0 0 0 0 0 0 0 0 0 0 0 0 0 0 0 0 0 0 0 0 0 0 0 0 0 0 0 0 0 0 0 0 0 0 0 0 0 0 0 0 0 0 0 0 0 0 0 0 0 0 0 0 0 0 0 0 0 0 0 0 0 0 0 0 0 0 0 0 0 0 0 0 0 0 0 0 0 0 0 0 0 0 0 0 0 0 0 0 0 0 0 0 0 0 0 0 0 0 0 0 0 0 0 0 0 0 0 0 0 0 0 0 0 0 0 0 0 0 0 0 0 0 0 0 0 0 0 0 0 0 0 0 0 0 0 0 0 0 0 0 0 0 0 0 0 0 0 0 0 0 0 0 0 0 0 0 0 0 0 0 0 0 0 0 0 0 0 0 0 0 0 0 0 0 0 0 0 0 0 0 0 0 0 0 0 0 0 0 0 0 0 0 0 0 0 0 0 0 0 0 0 0 0 0 0 0 0 0 0 0 0 0 0 0 0 0 0 0 0 0 0 0 0 0 0 0 0 0 0 0 0 0 0 0 0 0 0 0 0 0 0 0 0 0 0 0 0 0 0 0 0 0 0 0 0 0 0 0 0 0 0 0 0 0 0 0 0 0 0 0 0 0 0 0 0 0 0 0 0 0 0 0 0 0 0 0 0 0 0 0 0 0 0 0 0 0 0 0 0 0 0 0 0 0 0 0 0 0 0 0 0 0 0 0 0 0 0 0 0 0 0 0 0 0 0 0 0 0 0 0 0 0 0 0 0 0 0 0 0 0 0 0 0 0 0 0 0 0 0 0 0 0 0 0 0 0 0 0 0 0 0 0 0 0 0 0 0 0 0 0 0 0 0 0 0 0 0 0 0 0 0 0 0 0 0 0 0 0 0 0 0 0 0 0 0 0 0 0 0 0 0 0 0 0 0 0 0 0 0 0 0 0 0 0 0 0 0 0 0 0 0 0 0 0 0 0 0 0 0 0 0 0 0 0 0 0 0 0 0 0 0 0 0 0 0 0 0 0 0 0 0 0 0 0 0 0 0 0 0 0 0 0 0 0 0 0 0 0 0 0 0 0 0 0 0 0 0 0 0 0 0 0 0 0 0 0 0 0 0 0 0 0 0 0 0 0 0 0 0 0 0 0 0 0 0 0 0 0 0 0 0 0 0 0 0 0 0 0 0 0 0 0 0 0 0 0 0 0 0 0 0 0 0 0 0 0 0 0 0 0 0 0 0 0 0 0 0 0 0 0 0 0 0 0 0 0 0 0 0 0 0 0 0 0 0 0 0 0 0 0 0 0 0 0 0 0 0 0 0 0 0 0 0 0 0 0 0 0 0 0 0 0 0 0 0 0 0 0 0 0 0 0 0 0 0 0 0 0 0 0 0 0 0 0 0 0 0 0 0 0 0 0 0 0 0 0 0 0 0 0 0 0 0 0 0 0 0 0 0 0 0 0 0 0 0 0 0 0 0 0 0 0 0 0 0 0 0 0 0 0 0 0 0 0 0 0 0 0 0 0 0 0 0 0 0 0 0 0 0 0 0 0 0 0 0 0 0 0 0 0 0 0 0 0 0 0 0 0 0 0 0 0 0 0 0 0 0 0 0 0 0 0 0 0 0 0 0 0 0 0 0 0 0 0 0 0 0 0 0 0 0 0 0 0 0 0 0 0 0 0 0 0 0 0 0 0 0 0 0 0 0 0 0 0 0 0 0 0 0 0 0 0 0 0 0 0 0 0 0 0 0 0 0 0 0 0 0 0 0 0 0 0 0 0 0 0 0 0 0 0 0 0 0 0 0 0 0 0 0 0 0 0 0 0 0 0 0 0 0 0 0 0 0 0 0 0 0 0 0 0 0 0 0 0 0 0 0 0 0 0 0 0 0 0 0 0 0 0 0 0 0 0 0 0 0 0 0 0 0 0 0 0 0 0 0 0 0 0 0 0 0 0 0 0 0 0 0 0 0 0 0 0 0 0 0 0 0 0 0 0 0 0 0 0 0 0 0 0 0 0 0 0 0 0 0 0 0 0 0 0 0 0 0 0 0 0 0 0 0 0 0 0 0 0 0 0 0 0 0 0 0 0 0 0 0 0 0 0 0 0 0 0 0 0 0 0 0 0 0 0 0 0 0 0 0 0 0 0 0 0 0 0 0 0 0 0 0 0 0 0 0 0 0 0 0 0 0 0 0 0 0 0 0 0 0 0 0 0 0 0 0 0 0 0 0 0 0 0 0 0 0 0 0 0 0 0 0 0 0 0 0 0 0 0 0 0 0 0 0 0 0 0 0 0 0 0 0 0 0 0 0 0 0 0 0 0 0 0 0 0 0 0 0 0 0 0 0 0 0 0 0 0 0 0 0 0 0 0 0 0 0 0 0 0 0 0 0 0 0 0 0 0 0 0 0 0 0 0 0 0 0 0 0 0 0 0 0 0 0 0 0 0 0 0 0 0 0 0 0 0 0 0 0 0 0 0 0 0 0 0 0 0 0 0 0 0 0 0 0 0 0 0 0 0 0 0 0 0 0 0 0 0 0 0 0 0 0 0 0 0 0 0 0 0 0 0 0 0 0 0 0 0 0 0 0 0 0 0 0 0 0 0 0 0 0 0 0 0 0 0 0 0 0 0 0 0 0 0 0 0 0 0 0 0 0 0 0 0 0 0 0 0 0 0 0 0 0 0 0 0 0 0 0 0 0 0 0 0 0 0 0 0 0 0 0 0 0 0 0 0 0 0 0 0 0 0 0 0 0 0 0 0 0 0 0 0 0 0 0 0 0 0 0 0 0 0 0 0 0 0 0 0 0 0 0 0 0 0 0 0 0 0 0 0 0 0 0 0 0 0 0 0 0 0 0 0 0 0 0 0 0 0 0 0 0 0 0 0 0 0 0 0 0 0 0 0 0 0 0 0 0 0 0 0 0 0 0 0 0 0 0 0 0 0 0 0 0 0 0 0 0 0 0 0 0 0 0 0 0 0 0 0 0 0 0 0 0 0 0 0 0 0 0 0 0 0 0 0 0 0 0 0 0 0 0 0 0 0 0 0 0 0 0 0 0 0 0 0 0 0 0 0 0 0 0 0 0 0 0 0 0 0 0 0 0 0 0 0 0 0 0 0 0 0 0 0 0 0 0 0 0 0 0 0 0 0 0 0 0 0 0 0 0 0 0 0 0 0 0 0 0 0 0 0 0 0 0 0 0 0 0 0 0 0 0 0 0 0 0 0 0 0 0 0 0 0 0 0 0 0 0 0 0 0 0 0 0 0 0 0 0 0 0 0 0 0 0 0 0 0 0 0 0 0 0 0 0 0 0 0 0 0 0 0 0 0 0 0 0 0 0 0 0 0 0 0 0 0 0 0 0 0 0 0 0 0 0 0 0 0 0 0 0 0 0 0 0 0 0 0 0 0 0 0 0 0 0 0 0 0 0 0 0 0 0 0 0 0 0 0 0 0 0 0 0 0 0 0 0 0 0 0 0 0 0 0 0 0 0 0 0 0 0 0 0 0 0 0 0 0 0 0 0 0 0 0 0 0 0 0 0 0 0 0 0 0 0 0 0 0 0 0 0 0 0 0 0 0 0 0 0 0 0 0 0 0 0 0 0 0 0 0 0 0 0 0 0 0 0 0 0 0 0 -0.9594408 0.9711333 -1.136939 0.8311892 -0.7388008 1.020207 -0.7388008 1.020207 -1.136939 0.8311892 2.12405 0.8130811 -0.7388008 1.020207 2.12405 0.8130811 1.728035 1.00651 1.728035 1.00651 2.12405 0.8130811 1.948117 0.9549894 2.12405 0.8130811 -1.136939 0.8311892 2.220989 0.6088921 2.220989 0.6088921 -1.136939 0.8311892 -1.236142 0.6280857 2.220989 0.6088921 -1.236142 0.6280857 2.219735 0.3828619 2.219735 0.3828619 -1.236142 0.6280857 -1.237397 0.4020555 2.219735 0.3828619 -1.237397 0.4020555 2.120532 0.1797588 2.120532 0.1797588 -1.237397 0.4020555 -1.140457 0.1978669 2.120532 0.1797588 -1.140457 0.1978669 1.72239 -0.009260237 1.72239 -0.009260237 -1.140457 0.1978669 -0.744442 0.004437923 -0.744442 0.004437923 -1.140457 0.1978669 -0.9645244 0.05595886 1.72239 -0.009260237 1.943033 0.03981286 2.120532 0.1797588</float_array>
          <technique_common>
            <accessor source="#Sarjdeneme-mesh-map-0-array" count="852" stride="2">
              <param name="S" type="float"/>
              <param name="T" type="float"/>
            </accessor>
          </technique_common>
        </source>
        <vertices id="Sarjdeneme-mesh-vertices">
          <input semantic="POSITION" source="#Sarjdeneme-mesh-positions"/>
        </vertices>
        <triangles material="Material_001-material" count="234">
          <input semantic="VERTEX" source="#Sarjdeneme-mesh-vertices" offset="0"/>
          <input semantic="NORMAL" source="#Sarjdeneme-mesh-normals" offset="1"/>
          <input semantic="TEXCOORD" source="#Sarjdeneme-mesh-map-0" offset="2" set="0"/>
          <p>0 0 0 1 0 1 2 0 2 2 0 3 1 0 4 3 0 5 4 1 6 5 1 7 6 1 8 6 1 9 5 1 10 7 1 11 7 2 12 5 2 13 2 2 14 2 2 15 5 2 16 0 2 17 5 3 18 4 3 19 0 3 20 0 3 21 4 3 22 1 3 23 6 4 24 7 4 25 3 4 26 3 4 27 7 4 28 2 4 29 4 5 30 6 5 31 1 5 32 1 5 33 6 5 34 3 5 35 8 0 36 9 0 37 10 0 38 10 0 39 9 0 40 11 0 41 12 1 42 13 1 43 14 1 44 14 1 45 13 1 46 15 1 47 13 4 48 12 4 49 8 4 50 8 4 51 12 4 52 9 4 53 12 2 54 14 2 55 9 2 56 9 2 57 14 2 58 11 2 59 15 5 60 13 5 61 10 5 62 10 5 63 13 5 64 8 5 65 14 3 66 15 3 67 11 3 68 11 3 69 15 3 70 10 3 71 16 6 72 17 6 73 18 6 74 18 7 75 17 7 76 19 7 77 18 8 78 19 8 79 20 8 80 20 6 81 19 6 82 21 6 83 21 9 84 19 9 85 22 9 86 22 10 87 19 10 88 23 10 89 22 11 90 23 11 91 24 11 92 24 11 93 23 11 94 25 11 95 24 12 96 25 12 97 26 12 98 26 13 99 25 13 100 27 13 101 27 14 102 25 14 103 16 14 104 16 15 105 25 15 106 17 15 107 23 16 108 19 16 109 17 16 110 23 17 111 17 17 112 25 17 113 37 3 150 40 3 151 24 3 152 27 1 153 16 1 154 26 1 155 26 1 156 16 1 157 31 1 158 31 1 159 16 1 160 18 1 161 31 18 162 18 18 163 41 18 164 41 1 165 42 1 166 31 1 167 31 1 168 42 1 169 43 1 170 31 1 171 43 1 172 44 1 173 44 1 174 43 1 175 45 1 176 42 19 177 46 19 178 43 19 179 43 1 180 46 1 181 47 1 182 43 1 183 47 1 184 48 1 185 48 1 186 47 1 187 49 1 188 49 20 189 50 20 190 48 20 191 48 20 192 50 20 193 51 20 194 48 20 195 51 20 196 52 20 197 52 21 198 51 21 199 53 21 200 53 22 201 51 22 202 54 22 203 54 23 204 51 23 205 55 23 206 54 24 207 55 24 208 56 24 209 56 24 210 55 24 211 57 24 212 56 25 213 57 25 214 46 25 215 46 26 216 57 26 217 47 26 218 47 27 219 57 27 220 49 27 221 49 28 222 57 28 223 50 28 224 55 29 225 51 29 226 50 29 227 55 30 228 50 30 229 57 30 230 61 3 240 62 3 241 52 3 242 83 0 270 86 0 271 82 0 272 82 0 273 86 0 274 87 0 275 82 33 276 87 33 277 38 33 278 38 0 279 87 0 280 39 0 281 83 34 282 66 34 283 86 34 284 86 0 285 66 0 286 65 0 287 66 35 288 83 35 289 63 35 290 63 36 291 83 36 292 84 36 293 63 37 294 84 37 295 64 37 296 64 37 297 84 37 298 81 37 299 64 38 300 81 38 301 58 38 302 58 39 303 81 39 304 79 39 305 58 5 306 79 5 307 59 5 308 59 5 309 79 5 310 77 5 311 59 40 312 77 40 313 60 40 314 60 41 315 77 41 316 71 41 317 60 42 318 71 42 319 67 42 320 67 42 321 71 42 322 70 42 323 67 43 324 70 43 325 68 43 326 68 44 327 70 44 328 72 44 329 39 2 330 87 2 331 37 2 332 37 2 333 87 2 334 88 2 335 37 2 336 88 2 337 40 2 338 40 2 339 88 2 340 89 2 341 88 3 348 90 3 349 91 3 350 88 3 351 91 3 352 89 3 353 65 5 354 62 5 355 86 5 356 86 45 357 62 45 358 90 45 359 90 5 360 62 5 361 61 5 362 90 46 363 61 46 364 91 46 365 92 5 366 45 5 367 69 5 368 69 5 369 45 5 370 43 5 371 35 2 378 31 2 379 93 2 380 93 2 381 31 2 382 44 2 383 42 4 384 41 4 385 94 4 386 94 4 387 41 4 388 95 4 389 96 5 390 56 5 391 97 5 392 97 5 393 56 5 394 94 5 395 94 5 396 56 5 397 42 5 398 42 5 399 56 5 400 46 5 401 68 1 402 72 1 403 92 1 404 92 1 405 72 1 406 74 1 407 92 1 408 74 1 409 93 1 410 93 47 411 74 47 412 36 47 413 93 1 414 36 1 415 35 1 416 92 1 417 69 1 418 68 1 419 36 48 420 74 48 421 32 48 422 32 49 423 74 49 424 75 49 425 32 50 426 75 50 427 33 50 428 33 50 429 75 50 430 73 50 431 33 51 432 73 51 433 34 51 434 34 52 435 73 52 436 76 52 437 34 2 438 76 2 439 28 2 440 28 2 441 76 2 442 78 2 443 28 53 444 78 53 445 29 53 446 29 54 447 78 54 448 80 54 449 29 55 450 80 55 451 30 55 452 30 55 453 80 55 454 85 55 455 30 56 456 85 56 457 38 56 458 38 57 459 85 57 460 82 57 461 98 0 462 97 0 463 95 0 464 95 0 465 97 0 466 94 0 467 99 2 468 98 2 469 20 2 470 20 2 471 98 2 472 95 2 473 20 2 474 95 2 475 41 2 476 41 2 477 18 2 478 20 2 479 99 58 480 91 58 481 96 58 482 96 59 483 91 59 484 52 59 485 96 60 486 52 60 487 53 60 488 20 61 489 21 61 490 99 61 491 99 1 492 21 1 493 22 1 494 99 62 495 22 62 496 24 62 497 40 63 498 89 63 499 24 63 500 24 64 501 89 64 502 99 64 503 89 65 504 91 65 505 99 65 506 91 66 507 61 66 508 52 66 509 53 1 510 54 1 511 96 1 512 96 67 513 54 67 514 56 67 515 99 3 516 96 3 517 98 3 518 98 3 519 96 3 520 97 3 521 96 2 522 100 2 523 97 2 524 97 2 525 100 2 526 101 2 527 102 4 528 96 4 529 103 4 530 103 4 531 96 4 532 97 4 533 104 5 534 102 5 535 105 5 536 105 5 537 102 5 538 103 5 539 106 3 540 104 3 541 107 3 542 107 3 543 104 3 544 105 3 545 108 2 546 106 2 547 109 2 548 109 2 549 106 2 550 107 2 551 99 4 552 108 4 553 98 4 554 98 4 555 108 4 556 109 4 557 110 5 558 99 5 559 111 5 560 111 5 561 99 5 562 98 5 563 100 4 564 110 4 565 101 4 566 101 4 567 110 4 568 111 4 569 111 0 588 105 0 589 101 0 590 101 68 591 105 68 592 103 68 593 101 0 594 103 0 595 97 0 596 98 0 597 109 0 598 111 0 599 111 69 600 109 69 601 107 69 602 111 0 603 107 0 604 105 0 605 112 70 606 113 70 607 114 70 608 114 71 609 113 71 610 115 71 611 116 3 612 112 3 613 117 3 614 117 3 615 112 3 616 114 3 617 118 72 618 116 72 619 119 72 620 119 73 621 116 73 622 117 73 623 120 3 624 118 3 625 121 3 626 121 3 627 118 3 628 119 3 629 122 74 630 120 74 631 123 74 632 123 74 633 120 74 634 121 74 635 124 2 636 122 2 637 125 2 638 125 2 639 122 2 640 123 2 641 113 4 642 124 4 643 115 4 644 115 4 645 124 4 646 125 4 647 96 4 648 99 4 649 97 4 650 97 4 651 99 4 652 98 4 653 100 5 654 96 5 655 101 5 656 101 5 657 96 5 658 97 5 659 110 3 660 100 3 661 111 3 662 111 3 663 100 3 664 101 3 665 99 2 666 110 2 667 98 2 668 98 2 669 110 2 670 111 2 671 125 0 705 123 0 706 115 0 707 115 75 708 123 75 709 101 75 710 115 0 711 101 0 712 97 0 713 101 0 714 123 0 715 111 0 716 111 0 717 123 0 718 121 0 719 111 0 720 121 0 721 98 0 722 98 76 723 121 76 724 117 76 725 98 0 726 117 0 727 97 0 728 97 0 729 117 0 730 114 0 731 97 77 732 114 77 733 115 77 734 121 0 735 119 0 736 117 0 737 122 5 738 124 5 739 123 5 740 123 5 741 124 5 742 125 5 743 120 78 744 122 78 745 121 78 746 121 78 747 122 78 748 123 78 749 118 4 750 120 4 751 119 4 752 119 4 753 120 4 754 121 4 755 116 79 756 118 79 757 117 79 758 117 80 759 118 80 760 119 80 761 112 4 762 116 4 763 114 4 764 114 4 765 116 4 766 117 4 767 113 81 768 112 81 769 115 81 770 115 82 771 112 82 772 114 82 773 124 3 774 113 3 775 125 3 776 125 3 777 113 3 778 115 3 779 115 0 795 119 0 796 125 0 797 125 0 798 119 0 799 121 0 800 125 0 801 121 0 802 123 0 803 115 83 804 114 83 805 119 83 806 119 0 807 114 0 808 117 0 809 126 84 810 127 84 811 128 84 812 128 3 813 127 3 814 129 3 815 128 85 816 129 85 817 130 85 818 130 86 819 129 86 820 131 86 821 129 3 822 127 3 823 132 3 824 132 87 825 127 87 826 133 87 827 132 3 828 133 3 829 134 3 830 134 3 831 133 3 832 135 3 833 134 3 834 135 3 835 136 3 836 136 88 837 135 88 838 137 88 839 136 3 840 137 3 841 138 3 842 138 89 843 137 89 844 139 89 845 139 90 846 137 90 847 140 90 848 138 91 849 141 91 850 136 91 851</p>
        </triangles>
        <triangles material="Material_002-material" count="23">
          <input semantic="VERTEX" source="#Sarjdeneme-mesh-vertices" offset="0"/>
          <input semantic="NORMAL" source="#Sarjdeneme-mesh-normals" offset="1"/>
          <input semantic="TEXCOORD" source="#Sarjdeneme-mesh-map-0" offset="2" set="0"/>
          <p>26 3 114 28 3 115 24 3 116 24 3 117 28 3 118 29 3 119 24 3 120 29 3 121 30 3 122 31 3 123 32 3 124 26 3 125 26 3 126 32 3 127 33 3 128 26 3 129 33 3 130 34 3 131 35 3 132 36 3 133 31 3 134 31 3 135 36 3 136 32 3 137 34 3 138 28 3 139 26 3 140 24 3 141 30 3 142 37 3 143 37 3 144 30 3 145 38 3 146 37 3 147 38 3 148 39 3 149 124 1 672 113 1 673 122 1 674 122 1 675 113 1 676 100 1 677 122 1 678 100 1 679 110 1 680 100 1 681 113 1 682 96 1 683 96 1 684 113 1 685 112 1 686 96 1 687 112 1 688 116 1 689 118 1 690 120 1 691 116 1 692 116 1 693 120 1 694 99 1 695 116 1 696 99 1 697 96 1 698 99 1 699 120 1 700 110 1 701 110 1 702 120 1 703 122 1 704</p>
        </triangles>
        <triangles material="Material_003-material" count="5">
          <input semantic="VERTEX" source="#Sarjdeneme-mesh-vertices" offset="0"/>
          <input semantic="NORMAL" source="#Sarjdeneme-mesh-normals" offset="1"/>
          <input semantic="TEXCOORD" source="#Sarjdeneme-mesh-map-0" offset="2" set="0"/>
          <p>112 1 780 113 1 781 118 1 782 118 1 783 113 1 784 124 1 785 118 1 786 124 1 787 120 1 788 120 1 789 124 1 790 122 1 791 118 1 792 116 1 793 112 1 794</p>
        </triangles>
        <triangles material="Material_004-material" count="12">
          <input semantic="VERTEX" source="#Sarjdeneme-mesh-vertices" offset="0"/>
          <input semantic="NORMAL" source="#Sarjdeneme-mesh-normals" offset="1"/>
          <input semantic="TEXCOORD" source="#Sarjdeneme-mesh-map-0" offset="2" set="0"/>
          <p>52 3 231 58 3 232 48 3 233 48 3 234 58 3 235 59 3 236 48 3 237 59 3 238 60 3 239 52 31 243 62 31 244 63 31 245 52 3 246 63 3 247 64 3 248 65 3 249 66 3 250 62 3 251 62 3 252 66 3 253 63 3 254 64 3 255 58 3 256 52 3 257 60 3 258 67 3 259 48 3 260 48 32 261 67 32 262 43 32 263 43 3 264 67 3 265 68 3 266 43 3 267 68 3 268 69 3 269</p>
        </triangles>
        <triangles material="Material_005-material" count="10">
          <input semantic="VERTEX" source="#Sarjdeneme-mesh-vertices" offset="0"/>
          <input semantic="NORMAL" source="#Sarjdeneme-mesh-normals" offset="1"/>
          <input semantic="TEXCOORD" source="#Sarjdeneme-mesh-map-0" offset="2" set="0"/>
          <p>86 3 342 90 3 343 87 3 344 87 3 345 90 3 346 88 3 347 93 3 372 44 3 373 92 3 374 92 3 375 44 3 376 45 3 377 100 1 570 106 1 571 110 1 572 110 1 573 106 1 574 108 1 575 110 1 576 108 1 577 99 1 578 96 1 579 102 1 580 100 1 581 100 1 582 102 1 583 104 1 584 100 1 585 104 1 586 106 1 587</p>
        </triangles>
      </mesh>
    </geometry>
  </library_geometries>
  <library_visual_scenes>
    <visual_scene id="Scene" name="Scene">
      <node id="Sarjdeneme" name="Sarjdeneme" type="NODE">
        <matrix sid="transform">1 0 0 0.09999999 0 1 0 -0.5999997 0 0 1 0 0 0 0 1</matrix>
        <instance_geometry url="#Sarjdeneme-mesh" name="Sarjdeneme">
          <bind_material>
            <technique_common>
              <instance_material symbol="Material_001-material" target="#Material_001-material">
                <bind_vertex_input semantic="UVMap" input_semantic="TEXCOORD" input_set="0"/>
              </instance_material>
              <instance_material symbol="Material_002-material" target="#Material_002-material">
                <bind_vertex_input semantic="UVMap" input_semantic="TEXCOORD" input_set="0"/>
              </instance_material>
              <instance_material symbol="Material_003-material" target="#Material_003-material">
                <bind_vertex_input semantic="UVMap" input_semantic="TEXCOORD" input_set="0"/>
              </instance_material>
              <instance_material symbol="Material_004-material" target="#Material_004-material">
                <bind_vertex_input semantic="UVMap" input_semantic="TEXCOORD" input_set="0"/>
              </instance_material>
              <instance_material symbol="Material_005-material" target="#Material_005-material">
                <bind_vertex_input semantic="UVMap" input_semantic="TEXCOORD" input_set="0"/>
              </instance_material>
            </technique_common>
          </bind_material>
        </instance_geometry>
      </node>
      <node id="Camera" name="Camera" type="NODE">
        <matrix sid="transform">0.6859207 -0.3240135 0.6515582 7.358891 0.7276763 0.3054208 -0.6141704 -6.925791 0 0.8953956 0.4452714 4.958309 0 0 0 1</matrix>
        <instance_camera url="#Camera-camera"/>
      </node>
      <node id="Light" name="Light" type="NODE">
        <matrix sid="transform">-0.2908646 -0.7711008 0.5663932 4.076245 0.9551712 -0.1998834 0.2183912 1.005454 -0.05518906 0.6045247 0.7946723 5.903862 0 0 0 1</matrix>
        <instance_light url="#Light-light"/>
      </node>
    </visual_scene>
  </library_visual_scenes>
  <scene>
    <instance_visual_scene url="#Scene"/>
  </scene>
</COLLADA>